<?xml version="1.0" encoding="UTF-8" standalone="no"?>
<!-- Generator: Adobe Illustrator 15.0.0, SVG Export Plug-In  -->

<svg
   version="1.1"
   x="0px"
   y="0px"
   width="365"
   height="212"
   viewBox="-36.073 -17.643 365 212"
   enable-background="new -36.073 -17.643 425 227"
   xml:space="preserve"
   id="svg917"
   sodipodi:docname="CAMELS_Logo_V1.svg"
   inkscape:version="1.2 (dc2aedaf03, 2022-05-15)"
   xmlns:inkscape="http://www.inkscape.org/namespaces/inkscape"
   xmlns:sodipodi="http://sodipodi.sourceforge.net/DTD/sodipodi-0.dtd"
   xmlns="http://www.w3.org/2000/svg"
   xmlns:svg="http://www.w3.org/2000/svg"><sodipodi:namedview
   id="namedview919"
   pagecolor="#ffffff"
   bordercolor="#000000"
   borderopacity="0.25"
   inkscape:showpageshadow="2"
   inkscape:pageopacity="0.0"
   inkscape:pagecheckerboard="0"
   inkscape:deskcolor="#d1d1d1"
   showgrid="false"
   showguides="false"
   inkscape:zoom="2.8284271"
   inkscape:cx="186.67619"
   inkscape:cy="118.79394"
   inkscape:window-width="1280"
   inkscape:window-height="961"
   inkscape:window-x="-8"
   inkscape:window-y="-8"
   inkscape:window-maximized="1"
   inkscape:current-layer="svg917" />
<defs
   id="defs465">
</defs>

































































































































































































































<g
   id="g8336"
   transform="translate(-37.66808,-133.00036)"><g
     id="g8132"><polygon
       fill="#17A5F7"
       points="109.873,49.391 98.234,37.752 93.973,53.652 105.613,65.293 "
       id="polygon467"
       style="fill:#dfb71b;fill-opacity:1"
       transform="translate(2.5,164)" /><polygon
       fill="#17A5F7"
       points="89.711,69.549 78.072,57.91 73.811,73.811 85.451,85.451 "
       id="polygon469"
       style="fill:#dfb71b;fill-opacity:1"
       transform="translate(2.5,164)" /><polygon
       fill="#17A5F7"
       points="137.412,56.77 125.773,45.131 121.512,61.031 133.152,72.67 "
       id="polygon471"
       style="fill:#dfb71b;fill-opacity:1"
       transform="translate(2.5,164)" /><polygon
       fill="#17A5F7"
       points="117.25,76.928 105.611,65.289 101.35,81.189 112.99,92.828 "
       id="polygon473"
       style="fill:#dfb71b;fill-opacity:1"
       transform="translate(2.5,164)" /><polygon
       fill="#17A5F7"
       points="164.951,64.146 153.313,52.508 149.051,68.408 160.691,80.049 "
       id="polygon475"
       style="fill:#dfb71b;fill-opacity:1"
       transform="translate(2.5,164)" /><polygon
       fill="#17A5F7"
       points="144.789,84.305 133.15,72.666 128.889,88.566 140.529,100.207 "
       id="polygon477"
       style="fill:#dfb71b;fill-opacity:1"
       transform="translate(2.5,164)" /><polygon
       fill="#17A5F7"
       points="192.491,71.525 180.852,59.887 176.59,75.787 188.231,87.426 "
       id="polygon479"
       style="fill:#dfb71b;fill-opacity:1"
       transform="translate(2.5,164)" /><polygon
       fill="#17A5F7"
       points="172.328,91.684 160.689,80.045 156.428,95.945 168.068,107.584 "
       id="polygon481"
       style="fill:#dfb71b;fill-opacity:1"
       transform="translate(2.5,164)" /><polygon
       fill="#17A5F7"
       points="220.03,78.902 208.392,67.264 204.13,83.164 215.771,94.805 "
       id="polygon483"
       style="fill:#dfb71b;fill-opacity:1"
       transform="translate(2.5,164)" /><polygon
       fill="#17A5F7"
       points="199.868,99.061 188.229,87.422 183.968,103.322 195.608,114.963 "
       id="polygon485"
       style="fill:#dfb71b;fill-opacity:1"
       transform="translate(2.5,164)" /><polygon
       fill="#17A5F7"
       points="247.569,86.281 235.931,74.643 231.669,90.543 243.31,102.182 "
       id="polygon487"
       style="fill:#dfb71b;fill-opacity:1"
       transform="translate(2.5,164)" /><polygon
       fill="#17A5F7"
       points="227.407,106.439 215.769,94.801 211.507,110.701 223.147,122.341 "
       id="polygon489"
       style="fill:#dfb71b;fill-opacity:1"
       transform="translate(2.5,164)" /><polygon
       fill="#17A5F7"
       points="97.09,97.09 85.451,85.451 81.189,101.352 92.83,112.99 "
       id="polygon491"
       style="fill:#dfb71b;fill-opacity:1"
       transform="translate(2.5,164)" /><polygon
       fill="#17A5F7"
       points="124.629,104.467 112.99,92.828 108.729,108.729 120.369,120.37 "
       id="polygon493"
       style="fill:#dfb71b;fill-opacity:1"
       transform="translate(2.5,164)" /><polygon
       fill="#17A5F7"
       points="152.168,111.846 140.529,100.207 136.268,116.108 147.908,127.747 "
       id="polygon495"
       style="fill:#dfb71b;fill-opacity:1"
       transform="translate(2.5,164)" /><polygon
       fill="#17A5F7"
       points="179.707,119.224 168.068,107.584 163.807,123.485 175.447,135.126 "
       id="polygon497"
       style="fill:#dfb71b;fill-opacity:1"
       transform="translate(2.5,164)" /><polygon
       fill="#17A5F7"
       points="207.247,126.603 195.608,114.963 191.347,130.864 202.987,142.503 "
       id="polygon499"
       style="fill:#dfb71b;fill-opacity:1"
       transform="translate(2.5,164)" /><polygon
       fill="#17A5F7"
       points="226.837,136.11 221.017,130.292 218.886,138.241 224.706,144.062 "
       id="polygon501"
       style="fill:#dfb71b;fill-opacity:1"
       transform="translate(2.5,164)" /><polygon
       fill="#17A5F7"
       points="254.382,143.499 248.562,137.679 246.431,145.63 252.251,151.448 "
       id="polygon503"
       style="fill:#dfb71b;fill-opacity:1"
       transform="translate(2.5,164)" /><polygon
       fill="#17A5F7"
       points="342.405,90.396 336.585,84.576 334.454,92.527 340.274,98.346 "
       id="polygon505"
       style="fill:#dfb71b;fill-opacity:1"
       transform="translate(2.5,164)" /><polygon
       fill="#17A5F7"
       points="300.106,27.936 294.288,22.115 292.157,30.066 297.978,35.885 "
       id="polygon507"
       style="fill:#dfb71b;fill-opacity:1"
       transform="translate(2.5,164)" /><polygon
       fill="#17A5F7"
       points="275.108,93.658 263.47,82.02 259.208,97.92 270.849,109.561 "
       id="polygon509"
       style="fill:#dfb71b;fill-opacity:1"
       transform="translate(2.5,164)" /><polygon
       fill="#17A5F7"
       points="254.946,113.816 243.308,102.178 239.046,118.079 250.687,129.72 "
       id="polygon511"
       style="fill:#dfb71b;fill-opacity:1"
       transform="translate(2.5,164)" /><polygon
       fill="#17A5F7"
       points="302.647,101.037 291.009,89.398 286.747,105.299 298.388,116.938 "
       id="polygon513"
       style="fill:#dfb71b;fill-opacity:1"
       transform="translate(2.5,164)" /><polygon
       fill="#17A5F7"
       points="282.485,121.196 270.847,109.557 266.585,125.458 278.226,137.097 "
       id="polygon515"
       style="fill:#dfb71b;fill-opacity:1"
       transform="translate(2.5,164)" /><polygon
       fill="#17A5F7"
       points="169.785,18.58 163.965,12.762 161.834,20.711 167.654,26.531 "
       id="polygon517"
       style="fill:#dfb71b;fill-opacity:1"
       transform="translate(2.5,164)" /><polygon
       fill="#17A5F7"
       points="122.084,31.359 116.266,25.541 114.135,33.49 119.955,39.311 "
       id="polygon519"
       style="fill:#dfb71b;fill-opacity:1"
       transform="translate(2.5,164)" /><polygon
       fill="#17A5F7"
       points="138.271,12.266 135.361,9.355 134.295,13.33 137.205,16.24 "
       id="polygon521"
       style="fill:#dfb71b;fill-opacity:1"
       transform="translate(2.5,164)" /><polygon
       fill="#17A5F7"
       points="90.57,25.047 87.66,22.137 86.596,26.111 89.506,29.021 "
       id="polygon523"
       style="fill:#dfb71b;fill-opacity:1"
       transform="translate(2.5,164)" /><polygon
       fill="#17A5F7"
       points="63.031,17.67 60.121,14.76 59.055,18.734 61.965,21.645 "
       id="polygon525"
       style="fill:#dfb71b;fill-opacity:1"
       transform="translate(2.5,164)" /><polygon
       fill="#17A5F7"
       points="7.951,2.91 5.041,0 3.977,3.975 6.887,6.885 "
       id="polygon527"
       style="fill:#dfb71b;fill-opacity:1"
       transform="translate(2.5,164)" /><polygon
       fill="#17A5F7"
       points="15.328,30.449 12.418,27.539 11.354,31.514 14.264,34.424 "
       id="polygon529"
       style="fill:#dfb71b;fill-opacity:1"
       transform="translate(2.5,164)" /><polygon
       fill="#17A5F7"
       points="30.086,85.525 27.176,82.615 26.111,86.59 29.021,89.5 "
       id="polygon531"
       style="fill:#dfb71b;fill-opacity:1"
       transform="translate(2.5,164)" /><polygon
       fill="#17A5F7"
       points="37.465,113.064 34.555,110.154 33.49,114.129 36.4,117.04 "
       id="polygon533"
       style="fill:#dfb71b;fill-opacity:1"
       transform="translate(2.5,164)" /><polygon
       fill="#17A5F7"
       points="65.006,120.448 62.096,117.538 61.029,121.513 63.939,124.423 "
       id="polygon535"
       style="fill:#dfb71b;fill-opacity:1"
       transform="translate(2.5,164)" /><polygon
       fill="#17A5F7"
       points="92.545,127.669 89.635,124.759 88.57,128.733 91.48,131.644 "
       id="polygon537"
       style="fill:#dfb71b;fill-opacity:1"
       transform="translate(2.5,164)" /><polygon
       fill="#17A5F7"
       points="120.086,135.208 117.176,132.298 116.109,136.272 119.02,139.183 "
       id="polygon539"
       style="fill:#dfb71b;fill-opacity:1"
       transform="translate(2.5,164)" /><polygon
       fill="#17A5F7"
       points="202.704,157.345 199.794,154.435 198.729,158.409 201.64,161.319 "
       id="polygon541"
       style="fill:#dfb71b;fill-opacity:1"
       transform="translate(2.5,164)" /><polygon
       fill="#17A5F7"
       points="241.052,14.242 238.142,11.332 237.077,15.307 239.987,18.217 "
       id="polygon543"
       style="fill:#dfb71b;fill-opacity:1"
       transform="translate(2.5,164)" /><polygon
       fill="#17A5F7"
       points="268.593,21.623 265.683,18.713 264.618,22.688 267.528,25.598 "
       id="polygon545"
       style="fill:#dfb71b;fill-opacity:1"
       transform="translate(2.5,164)" /><polygon
       fill="#17A5F7"
       points="331.052,63.922 328.142,61.012 327.077,64.986 329.987,67.896 "
       id="polygon547"
       style="fill:#dfb71b;fill-opacity:1"
       transform="translate(2.5,164)" /><polygon
       fill="#17A5F7"
       points="318.269,111.621 315.358,108.711 314.294,112.686 317.204,115.597 "
       id="polygon549"
       style="fill:#dfb71b;fill-opacity:1"
       transform="translate(2.5,164)" /><polygon
       fill="#17A5F7"
       points="46.842,36.762 41.023,30.943 38.893,38.893 44.713,44.713 "
       id="polygon551"
       style="fill:#dfb71b;fill-opacity:1"
       transform="translate(2.5,164)" /><polygon
       fill="#17A5F7"
       points="74.383,43.986 68.564,38.168 66.434,46.117 72.254,51.938 "
       id="polygon553"
       style="fill:#dfb71b;fill-opacity:1"
       transform="translate(2.5,164)" /><polygon
       fill="#17A5F7"
       points="34.061,58.9 28.242,53.08 26.111,61.031 31.932,66.85 "
       id="polygon555"
       style="fill:#dfb71b;fill-opacity:1"
       transform="translate(2.5,164)" /><polygon
       fill="#17A5F7"
       points="54.221,64.299 48.402,58.48 46.271,66.43 52.092,72.25 "
       id="polygon557"
       style="fill:#dfb71b;fill-opacity:1"
       transform="translate(2.5,164)" /><polygon
       fill="#17A5F7"
       points="151.6,141.521 145.779,135.7 143.648,143.651 149.469,149.47 "
       id="polygon559"
       style="fill:#dfb71b;fill-opacity:1"
       transform="translate(2.5,164)" /><polygon
       fill="#17A5F7"
       points="61.6,91.84 55.781,86.021 53.65,93.971 59.471,99.791 "
       id="polygon561"
       style="fill:#dfb71b;fill-opacity:1"
       transform="translate(2.5,164)" /><polygon
       fill="#17A5F7"
       points="157.572,36.607 145.934,24.969 141.672,40.869 153.313,52.51 "
       id="polygon563"
       style="fill:#dfb71b;fill-opacity:1"
       transform="translate(2.5,164)" /><polygon
       fill="#17A5F7"
       points="197.325,25.959 191.505,20.139 189.374,28.09 195.194,33.908 "
       id="polygon565"
       style="fill:#dfb71b;fill-opacity:1"
       transform="translate(2.5,164)" /><polygon
       fill="#17A5F7"
       points="185.112,43.986 173.473,32.348 169.211,48.248 180.852,59.887 "
       id="polygon567"
       style="fill:#dfb71b;fill-opacity:1"
       transform="translate(2.5,164)" /><polygon
       fill="#17A5F7"
       points="224.864,33.336 219.044,27.518 216.913,35.467 222.733,41.287 "
       id="polygon569"
       style="fill:#dfb71b;fill-opacity:1"
       transform="translate(2.5,164)" /><polygon
       fill="#17A5F7"
       points="212.651,51.363 201.013,39.725 196.751,55.625 208.392,67.266 "
       id="polygon571"
       style="fill:#dfb71b;fill-opacity:1"
       transform="translate(2.5,164)" /><polygon
       fill="#17A5F7"
       points="260.353,38.584 248.714,26.945 244.452,42.846 256.093,54.484 "
       id="polygon573"
       style="fill:#dfb71b;fill-opacity:1"
       transform="translate(2.5,164)" /><polygon
       fill="#17A5F7"
       points="240.19,58.742 228.552,47.104 224.29,63.004 235.931,74.643 "
       id="polygon575"
       style="fill:#dfb71b;fill-opacity:1"
       transform="translate(2.5,164)" /><polygon
       fill="#17A5F7"
       points="287.892,45.961 276.253,34.322 271.991,50.223 283.632,61.863 "
       id="polygon577"
       style="fill:#dfb71b;fill-opacity:1"
       transform="translate(2.5,164)" /><polygon
       fill="#17A5F7"
       points="267.729,66.119 256.091,54.48 251.829,70.381 263.47,82.021 "
       id="polygon579"
       style="fill:#dfb71b;fill-opacity:1"
       transform="translate(2.5,164)" /><polygon
       fill="#17A5F7"
       points="315.431,53.34 303.792,41.701 299.53,57.602 311.171,69.24 "
       id="polygon581"
       style="fill:#dfb71b;fill-opacity:1"
       transform="translate(2.5,164)" /><polygon
       fill="#17A5F7"
       points="295.269,73.498 283.63,61.859 279.368,77.76 291.009,89.398 "
       id="polygon583"
       style="fill:#dfb71b;fill-opacity:1"
       transform="translate(2.5,164)" /><polygon
       fill="#17A5F7"
       points="322.808,80.875 311.169,69.236 306.907,85.137 318.548,96.777 "
       id="polygon585"
       style="fill:#dfb71b;fill-opacity:1"
       transform="translate(2.5,164)" /><polygon
       fill="#00C8C9"
       points="137.412,56.77 153.313,52.508 149.051,68.408 133.15,72.668 "
       id="polygon587"
       style="fill:#e9cc58;fill-opacity:1"
       transform="translate(2.5,164)" /><polygon
       fill="#00C8C9"
       points="117.25,76.928 133.15,72.666 128.889,88.566 112.988,92.826 "
       id="polygon589"
       style="fill:#e9cc58;fill-opacity:1"
       transform="translate(2.5,164)" /><polygon
       fill="#00C8C9"
       points="164.951,64.146 180.852,59.887 176.59,75.787 160.689,80.045 "
       id="polygon591"
       style="fill:#e9cc58;fill-opacity:1"
       transform="translate(2.5,164)" /><polygon
       fill="#00C8C9"
       points="144.789,84.305 160.689,80.045 156.428,95.945 140.527,100.203 "
       id="polygon593"
       style="fill:#e9cc58;fill-opacity:1"
       transform="translate(2.5,164)" /><polygon
       fill="#00C8C9"
       points="192.491,71.525 208.392,67.264 204.13,83.164 188.229,87.424 "
       id="polygon595"
       style="fill:#e9cc58;fill-opacity:1"
       transform="translate(2.5,164)" /><polygon
       fill="#00C8C9"
       points="172.328,91.684 188.229,87.422 183.968,103.322 168.066,107.582 "
       id="polygon597"
       style="fill:#e9cc58;fill-opacity:1"
       transform="translate(2.5,164)" /><polygon
       fill="#00C8C9"
       points="220.03,78.902 235.931,74.643 231.669,90.543 215.769,94.801 "
       id="polygon599"
       style="fill:#e9cc58;fill-opacity:1"
       transform="translate(2.5,164)" /><polygon
       fill="#00C8C9"
       points="247.569,86.281 263.47,82.02 259.208,97.92 243.308,102.18 "
       id="polygon601"
       style="fill:#e9cc58;fill-opacity:1"
       transform="translate(2.5,164)" /><polygon
       fill="#00C8C9"
       points="240.19,58.742 256.091,54.48 251.829,70.381 235.929,74.641 "
       id="polygon603"
       style="fill:#e9cc58;fill-opacity:1"
       transform="translate(2.5,164)" /><polygon
       fill="#527DE3"
       points="117.252,76.93 105.611,65.289 121.512,61.031 133.152,72.67 "
       id="polygon605"
       style="fill:#b19216;fill-opacity:1"
       transform="translate(2.5,164)" /><polygon
       fill="#527DE3"
       points="97.09,97.088 85.449,85.447 101.35,81.189 112.99,92.828 "
       id="polygon607"
       style="fill:#b19216;fill-opacity:1"
       transform="translate(2.5,164)" /><polygon
       fill="#527DE3"
       points="144.791,84.309 133.15,72.668 149.051,68.408 160.691,80.049 "
       id="polygon609"
       style="fill:#b19216;fill-opacity:1"
       transform="translate(2.5,164)" /><polygon
       fill="#527DE3"
       points="124.629,104.467 112.988,92.826 128.889,88.566 140.529,100.207 "
       id="polygon611"
       style="fill:#b19216;fill-opacity:1"
       transform="translate(2.5,164)" /><polygon
       fill="#527DE3"
       points="172.33,91.686 160.689,80.045 176.59,75.787 188.231,87.426 "
       id="polygon613"
       style="fill:#b19216;fill-opacity:1"
       transform="translate(2.5,164)" /><polygon
       fill="#527DE3"
       points="199.87,99.064 188.229,87.424 204.13,83.164 215.771,94.805 "
       id="polygon615"
       style="fill:#b19216;fill-opacity:1"
       transform="translate(2.5,164)" /><polygon
       fill="#527DE3"
       points="227.409,106.441 215.769,94.801 231.669,90.543 243.31,102.182 "
       id="polygon617"
       style="fill:#b19216;fill-opacity:1"
       transform="translate(2.5,164)" /><polygon
       fill="#527DE3"
       points="254.948,113.82 243.308,102.18 259.208,97.92 270.849,109.561 "
       id="polygon619"
       style="fill:#b19216;fill-opacity:1"
       transform="translate(2.5,164)" /><polygon
       fill="#527DE3"
       points="220.03,78.902 208.39,67.262 224.29,63.004 235.931,74.643 "
       id="polygon621"
       style="fill:#b19216;fill-opacity:1"
       transform="translate(2.5,164)" /><polygon
       fill="#527DE3"
       points="247.569,86.281 235.929,74.641 251.829,70.381 263.47,82.021 "
       id="polygon623"
       style="fill:#b19216;fill-opacity:1"
       transform="translate(2.5,164)" /><polygon
       fill="#527DE3"
       points="275.108,93.658 263.468,82.018 279.368,77.76 291.009,89.398 "
       id="polygon625"
       style="fill:#b19216;fill-opacity:1"
       transform="translate(2.5,164)" /><polygon
       fill="#00DFE0"
       points="82.334,42.014 98.234,37.752 93.973,53.652 78.072,57.912 "
       id="polygon627"
       style="fill:#e9cc58;fill-opacity:1"
       transform="translate(2.5,164)" /><polygon
       fill="#00DFE0"
       points="62.172,62.172 78.072,57.91 73.811,73.811 57.91,78.07 "
       id="polygon629"
       style="fill:#e9cc58;fill-opacity:1"
       transform="translate(2.5,164)" /><polygon
       fill="#00DFE0"
       points="109.873,49.391 125.773,45.131 121.512,61.031 105.611,65.289 "
       id="polygon631"
       style="fill:#e9cc58;fill-opacity:1"
       transform="translate(2.5,164)" /><polygon
       fill="#00DFE0"
       points="89.711,69.549 105.611,65.289 101.35,81.189 85.449,85.447 "
       id="polygon633"
       style="fill:#e9cc58;fill-opacity:1"
       transform="translate(2.5,164)" /><polygon
       fill="#00DFE0"
       points="199.868,99.061 215.769,94.801 211.507,110.701 195.606,114.959 "
       id="polygon635"
       style="fill:#e9cc58;fill-opacity:1"
       transform="translate(2.5,164)" /><polygon
       fill="#00DFE0"
       points="69.551,89.711 85.451,85.451 81.189,101.352 65.289,105.609 "
       id="polygon637"
       style="fill:#e9cc58;fill-opacity:1"
       transform="translate(2.5,164)" /><polygon
       fill="#00DFE0"
       points="97.09,97.09 112.99,92.828 108.729,108.729 92.828,112.988 "
       id="polygon639"
       style="fill:#e9cc58;fill-opacity:1"
       transform="translate(2.5,164)" /><polygon
       fill="#00DFE0"
       points="124.629,104.467 140.529,100.207 136.268,116.108 120.367,120.366 "
       id="polygon641"
       style="fill:#e9cc58;fill-opacity:1"
       transform="translate(2.5,164)" /><polygon
       fill="#00DFE0"
       points="152.168,111.846 168.068,107.584 163.807,123.485 147.906,127.745 "
       id="polygon643"
       style="fill:#e9cc58;fill-opacity:1"
       transform="translate(2.5,164)" /><polygon
       fill="#00DFE0"
       points="179.707,119.224 195.608,114.963 191.347,130.864 175.445,135.122 "
       id="polygon645"
       style="fill:#e9cc58;fill-opacity:1"
       transform="translate(2.5,164)" /><polygon
       fill="#00DFE0"
       points="213.067,132.421 221.017,130.292 218.886,138.241 210.937,140.37 "
       id="polygon647"
       style="fill:#e9cc58;fill-opacity:1"
       transform="translate(2.5,164)" /><polygon
       fill="#00DFE0"
       points="240.612,139.81 248.562,137.679 246.431,145.63 238.481,147.759 "
       id="polygon649"
       style="fill:#e9cc58;fill-opacity:1"
       transform="translate(2.5,164)" /><polygon
       fill="#00DFE0"
       points="328.636,86.707 336.585,84.576 334.454,92.527 326.505,94.656 "
       id="polygon651"
       style="fill:#e9cc58;fill-opacity:1"
       transform="translate(2.5,164)" /><polygon
       fill="#00DFE0"
       points="286.337,24.246 294.288,22.115 292.157,30.066 284.206,32.195 "
       id="polygon653"
       style="fill:#e9cc58;fill-opacity:1"
       transform="translate(2.5,164)" /><polygon
       fill="#00DFE0"
       points="227.407,106.439 243.308,102.178 239.046,118.079 223.146,122.339 "
       id="polygon655"
       style="fill:#e9cc58;fill-opacity:1"
       transform="translate(2.5,164)" /><polygon
       fill="#00DFE0"
       points="275.108,93.658 291.009,89.398 286.747,105.299 270.847,109.557 "
       id="polygon657"
       style="fill:#e9cc58;fill-opacity:1"
       transform="translate(2.5,164)" /><polygon
       fill="#00DFE0"
       points="254.946,113.816 270.847,109.557 266.585,125.458 250.685,129.716 "
       id="polygon659"
       style="fill:#e9cc58;fill-opacity:1"
       transform="translate(2.5,164)" /><polygon
       fill="#00DFE0"
       points="156.016,14.891 163.965,12.762 161.834,20.711 153.885,22.84 "
       id="polygon661"
       style="fill:#e9cc58;fill-opacity:1"
       transform="translate(2.5,164)" /><polygon
       fill="#00DFE0"
       points="108.314,27.67 116.266,25.541 114.135,33.49 106.184,35.619 "
       id="polygon663"
       style="fill:#e9cc58;fill-opacity:1"
       transform="translate(2.5,164)" /><polygon
       fill="#00DFE0"
       points="131.387,10.42 135.361,9.355 134.295,13.33 130.32,14.395 "
       id="polygon665"
       style="fill:#e9cc58;fill-opacity:1"
       transform="translate(2.5,164)" /><polygon
       fill="#00DFE0"
       points="83.686,23.201 87.66,22.137 86.596,26.111 82.619,27.176 "
       id="polygon667"
       style="fill:#e9cc58;fill-opacity:1"
       transform="translate(2.5,164)" /><polygon
       fill="#00DFE0"
       points="56.146,15.824 60.121,14.76 59.055,18.734 55.08,19.799 "
       id="polygon669"
       style="fill:#e9cc58;fill-opacity:1"
       transform="translate(2.5,164)" /><polygon
       fill="#00DFE0"
       points="1.066,1.064 5.041,0 3.977,3.975 0,5.039 "
       id="polygon671"
       style="fill:#e9cc58;fill-opacity:1"
       transform="translate(2.5,164)" /><polygon
       fill="#00DFE0"
       points="8.443,28.604 12.418,27.539 11.354,31.514 7.377,32.578 "
       id="polygon673"
       style="fill:#e9cc58;fill-opacity:1"
       transform="translate(2.5,164)" /><polygon
       fill="#00DFE0"
       points="23.201,83.68 27.176,82.615 26.111,86.59 22.135,87.654 "
       id="polygon675"
       style="fill:#e9cc58;fill-opacity:1"
       transform="translate(2.5,164)" /><polygon
       fill="#00DFE0"
       points="30.58,111.219 34.555,110.154 33.49,114.129 29.514,115.194 "
       id="polygon677"
       style="fill:#e9cc58;fill-opacity:1"
       transform="translate(2.5,164)" /><polygon
       fill="#00DFE0"
       points="58.121,118.603 62.096,117.538 61.029,121.513 57.055,122.577 "
       id="polygon679"
       style="fill:#e9cc58;fill-opacity:1"
       transform="translate(2.5,164)" /><polygon
       fill="#00DFE0"
       points="85.66,125.823 89.635,124.759 88.57,128.733 84.594,129.798 "
       id="polygon681"
       style="fill:#e9cc58;fill-opacity:1"
       transform="translate(2.5,164)" /><polygon
       fill="#00DFE0"
       points="113.201,133.362 117.176,132.298 116.109,136.272 112.135,137.337 "
       id="polygon683"
       style="fill:#e9cc58;fill-opacity:1"
       transform="translate(2.5,164)" /><polygon
       fill="#00DFE0"
       points="195.819,155.499 199.794,154.435 198.729,158.409 194.753,159.474 "
       id="polygon685"
       style="fill:#e9cc58;fill-opacity:1"
       transform="translate(2.5,164)" /><polygon
       fill="#00DFE0"
       points="234.167,12.396 238.142,11.332 237.077,15.307 233.101,16.371 "
       id="polygon687"
       style="fill:#e9cc58;fill-opacity:1"
       transform="translate(2.5,164)" /><polygon
       fill="#00DFE0"
       points="261.708,19.777 265.683,18.713 264.618,22.688 260.642,23.752 "
       id="polygon689"
       style="fill:#e9cc58;fill-opacity:1"
       transform="translate(2.5,164)" /><polygon
       fill="#00DFE0"
       points="324.167,62.076 328.142,61.012 327.077,64.986 323.101,66.051 "
       id="polygon691"
       style="fill:#e9cc58;fill-opacity:1"
       transform="translate(2.5,164)" /><polygon
       fill="#00DFE0"
       points="311.384,109.775 315.358,108.711 314.294,112.686 310.317,113.75 "
       id="polygon693"
       style="fill:#e9cc58;fill-opacity:1"
       transform="translate(2.5,164)" /><polygon
       fill="#00DFE0"
       points="33.072,33.072 41.023,30.943 38.893,38.893 30.941,41.021 "
       id="polygon695"
       style="fill:#e9cc58;fill-opacity:1"
       transform="translate(2.5,164)" /><polygon
       fill="#00DFE0"
       points="60.613,40.297 68.564,38.168 66.434,46.117 58.482,48.246 "
       id="polygon697"
       style="fill:#e9cc58;fill-opacity:1"
       transform="translate(2.5,164)" /><polygon
       fill="#00DFE0"
       points="20.291,55.211 28.242,53.08 26.111,61.031 18.16,63.16 "
       id="polygon699"
       style="fill:#e9cc58;fill-opacity:1"
       transform="translate(2.5,164)" /><polygon
       fill="#00DFE0"
       points="40.451,60.609 48.402,58.48 46.271,66.43 38.32,68.559 "
       id="polygon701"
       style="fill:#e9cc58;fill-opacity:1"
       transform="translate(2.5,164)" /><polygon
       fill="#00DFE0"
       points="137.83,137.831 145.779,135.7 143.648,143.651 135.699,145.78 "
       id="polygon703"
       style="fill:#e9cc58;fill-opacity:1"
       transform="translate(2.5,164)" /><polygon
       fill="#00DFE0"
       points="47.83,88.15 55.781,86.021 53.65,93.971 45.699,96.1 "
       id="polygon705"
       style="fill:#e9cc58;fill-opacity:1"
       transform="translate(2.5,164)" /><polygon
       fill="#00DFE0"
       points="130.033,29.23 145.934,24.969 141.672,40.869 125.771,45.129 "
       id="polygon707"
       style="fill:#e9cc58;fill-opacity:1"
       transform="translate(2.5,164)" /><polygon
       fill="#00DFE0"
       points="183.556,22.27 191.505,20.139 189.374,28.09 181.424,30.219 "
       id="polygon709"
       style="fill:#e9cc58;fill-opacity:1"
       transform="translate(2.5,164)" /><polygon
       fill="#00DFE0"
       points="157.572,36.607 173.473,32.348 169.211,48.248 153.311,52.506 "
       id="polygon711"
       style="fill:#e9cc58;fill-opacity:1"
       transform="translate(2.5,164)" /><polygon
       fill="#00DFE0"
       points="211.095,29.646 219.044,27.518 216.913,35.467 208.964,37.596 "
       id="polygon713"
       style="fill:#e9cc58;fill-opacity:1"
       transform="translate(2.5,164)" /><polygon
       fill="#00DFE0"
       points="185.112,43.986 201.013,39.725 196.751,55.625 180.85,59.885 "
       id="polygon715"
       style="fill:#e9cc58;fill-opacity:1"
       transform="translate(2.5,164)" /><polygon
       fill="#00DFE0"
       points="232.813,31.205 248.714,26.945 244.452,42.846 228.552,47.104 "
       id="polygon717"
       style="fill:#e9cc58;fill-opacity:1"
       transform="translate(2.5,164)" /><polygon
       fill="#00DFE0"
       points="212.651,51.363 228.552,47.104 224.29,63.004 208.39,67.262 "
       id="polygon719"
       style="fill:#e9cc58;fill-opacity:1"
       transform="translate(2.5,164)" /><polygon
       fill="#00DFE0"
       points="260.353,38.584 276.253,34.322 271.991,50.223 256.091,54.482 "
       id="polygon721"
       style="fill:#e9cc58;fill-opacity:1"
       transform="translate(2.5,164)" /><polygon
       fill="#00DFE0"
       points="287.892,45.961 303.792,41.701 299.53,57.602 283.63,61.859 "
       id="polygon723"
       style="fill:#e9cc58;fill-opacity:1"
       transform="translate(2.5,164)" /><polygon
       fill="#00DFE0"
       points="267.729,66.119 283.63,61.859 279.368,77.76 263.468,82.018 "
       id="polygon725"
       style="fill:#e9cc58;fill-opacity:1"
       transform="translate(2.5,164)" /><polygon
       fill="#00DFE0"
       points="295.269,73.498 311.169,69.236 306.907,85.137 291.007,89.396 "
       id="polygon727"
       style="fill:#e9cc58;fill-opacity:1"
       transform="translate(2.5,164)" /><polygon
       fill="#4472DB"
       points="89.713,69.553 78.072,57.912 93.973,53.652 105.613,65.293 "
       id="polygon729"
       style="fill:#b29316;fill-opacity:1"
       transform="translate(2.5,164)" /><polygon
       fill="#4472DB"
       points="69.551,89.711 57.91,78.07 73.811,73.811 85.451,85.451 "
       id="polygon731"
       style="fill:#b29316;fill-opacity:1"
       transform="translate(2.5,164)" /><polygon
       fill="#4472DB"
       points="152.168,111.844 140.527,100.203 156.428,95.945 168.068,107.584 "
       id="polygon733"
       style="fill:#b29316;fill-opacity:1"
       transform="translate(2.5,164)" /><polygon
       fill="#4472DB"
       points="179.707,119.224 168.066,107.582 183.968,103.322 195.608,114.963 "
       id="polygon735"
       style="fill:#b29316;fill-opacity:1"
       transform="translate(2.5,164)" /><polygon
       fill="#4472DB"
       points="207.247,126.601 195.606,114.959 211.507,110.701 223.147,122.341 "
       id="polygon737"
       style="fill:#b29316;fill-opacity:1"
       transform="translate(2.5,164)" /><polygon
       fill="#4472DB"
       points="76.93,117.251 65.289,105.609 81.189,101.352 92.83,112.99 "
       id="polygon739"
       style="fill:#b29316;fill-opacity:1"
       transform="translate(2.5,164)" /><polygon
       fill="#4472DB"
       points="104.469,124.63 92.828,112.988 108.729,108.729 120.369,120.37 "
       id="polygon741"
       style="fill:#b29316;fill-opacity:1"
       transform="translate(2.5,164)" /><polygon
       fill="#4472DB"
       points="132.008,132.007 120.367,120.366 136.268,116.108 147.908,127.747 "
       id="polygon743"
       style="fill:#b29316;fill-opacity:1"
       transform="translate(2.5,164)" /><polygon
       fill="#4472DB"
       points="159.547,139.386 147.906,127.745 163.807,123.485 175.447,135.126 "
       id="polygon745"
       style="fill:#b29316;fill-opacity:1"
       transform="translate(2.5,164)" /><polygon
       fill="#4472DB"
       points="187.087,146.763 175.445,135.122 191.347,130.864 202.987,142.503 "
       id="polygon747"
       style="fill:#b29316;fill-opacity:1"
       transform="translate(2.5,164)" /><polygon
       fill="#4472DB"
       points="216.757,146.19 210.937,140.37 218.886,138.241 224.706,144.062 "
       id="polygon749"
       style="fill:#b29316;fill-opacity:1"
       transform="translate(2.5,164)" /><polygon
       fill="#4472DB"
       points="244.302,153.579 238.481,147.759 246.431,145.63 252.251,151.448 "
       id="polygon751"
       style="fill:#b29316;fill-opacity:1"
       transform="translate(2.5,164)" /><polygon
       fill="#4472DB"
       points="332.325,100.477 326.505,94.656 334.454,92.527 340.274,98.346 "
       id="polygon753"
       style="fill:#b29316;fill-opacity:1"
       transform="translate(2.5,164)" /><polygon
       fill="#4472DB"
       points="290.026,38.016 284.206,32.195 292.157,30.066 297.978,35.885 "
       id="polygon755"
       style="fill:#b29316;fill-opacity:1"
       transform="translate(2.5,164)" /><polygon
       fill="#4472DB"
       points="234.786,133.979 223.146,122.339 239.046,118.079 250.687,129.72 "
       id="polygon757"
       style="fill:#b29316;fill-opacity:1"
       transform="translate(2.5,164)" /><polygon
       fill="#4472DB"
       points="282.487,121.198 270.847,109.557 286.747,105.299 298.388,116.938 "
       id="polygon759"
       style="fill:#b29316;fill-opacity:1"
       transform="translate(2.5,164)" /><polygon
       fill="#4472DB"
       points="262.325,141.356 250.685,129.716 266.585,125.458 278.226,137.097 "
       id="polygon761"
       style="fill:#b29316;fill-opacity:1"
       transform="translate(2.5,164)" /><polygon
       fill="#4472DB"
       points="159.705,28.66 153.885,22.84 161.834,20.711 167.654,26.531 "
       id="polygon763"
       style="fill:#b29316;fill-opacity:1"
       transform="translate(2.5,164)" /><polygon
       fill="#4472DB"
       points="112.004,41.439 106.184,35.619 114.135,33.49 119.955,39.311 "
       id="polygon765"
       style="fill:#b29316;fill-opacity:1"
       transform="translate(2.5,164)" /><polygon
       fill="#4472DB"
       points="133.23,17.305 130.32,14.395 134.295,13.33 137.205,16.24 "
       id="polygon767"
       style="fill:#b29316;fill-opacity:1"
       transform="translate(2.5,164)" /><polygon
       fill="#4472DB"
       points="85.529,30.086 82.619,27.176 86.596,26.111 89.506,29.021 "
       id="polygon769"
       style="fill:#b29316;fill-opacity:1"
       transform="translate(2.5,164)" /><polygon
       fill="#4472DB"
       points="57.99,22.709 55.08,19.799 59.055,18.734 61.965,21.645 "
       id="polygon771"
       style="fill:#b29316;fill-opacity:1"
       transform="translate(2.5,164)" /><polygon
       fill="#4472DB"
       points="2.91,7.949 0,5.039 3.977,3.975 6.887,6.885 "
       id="polygon773"
       style="fill:#b29316;fill-opacity:1"
       transform="translate(2.5,164)" /><polygon
       fill="#4472DB"
       points="10.287,35.488 7.377,32.578 11.354,31.514 14.264,34.424 "
       id="polygon775"
       style="fill:#b29316;fill-opacity:1"
       transform="translate(2.5,164)" /><polygon
       fill="#4472DB"
       points="25.045,90.564 22.135,87.654 26.111,86.59 29.021,89.5 "
       id="polygon777"
       style="fill:#b29316;fill-opacity:1"
       transform="translate(2.5,164)" /><polygon
       fill="#4472DB"
       points="32.424,118.104 29.514,115.194 33.49,114.129 36.4,117.04 "
       id="polygon779"
       style="fill:#b29316;fill-opacity:1"
       transform="translate(2.5,164)" /><polygon
       fill="#4472DB"
       points="59.965,125.487 57.055,122.577 61.029,121.513 63.939,124.423 "
       id="polygon781"
       style="fill:#b29316;fill-opacity:1"
       transform="translate(2.5,164)" /><polygon
       fill="#4472DB"
       points="87.504,132.708 84.594,129.798 88.57,128.733 91.48,131.644 "
       id="polygon783"
       style="fill:#b29316;fill-opacity:1"
       transform="translate(2.5,164)" /><polygon
       fill="#4472DB"
       points="115.045,140.247 112.135,137.337 116.109,136.272 119.02,139.183 "
       id="polygon785"
       style="fill:#b29316;fill-opacity:1"
       transform="translate(2.5,164)" /><polygon
       fill="#4472DB"
       points="197.663,162.384 194.753,159.474 198.729,158.409 201.64,161.319 "
       id="polygon787"
       style="fill:#b29316;fill-opacity:1"
       transform="translate(2.5,164)" /><polygon
       fill="#4472DB"
       points="236.011,19.281 233.101,16.371 237.077,15.307 239.987,18.217 "
       id="polygon789"
       style="fill:#b29316;fill-opacity:1"
       transform="translate(2.5,164)" /><polygon
       fill="#4472DB"
       points="263.552,26.662 260.642,23.752 264.618,22.688 267.528,25.598 "
       id="polygon791"
       style="fill:#b29316;fill-opacity:1"
       transform="translate(2.5,164)" /><polygon
       fill="#4472DB"
       points="326.011,68.961 323.101,66.051 327.077,64.986 329.987,67.896 "
       id="polygon793"
       style="fill:#b29316;fill-opacity:1"
       transform="translate(2.5,164)" /><polygon
       fill="#4472DB"
       points="313.228,116.661 310.317,113.75 314.294,112.686 317.204,115.597 "
       id="polygon795"
       style="fill:#b29316;fill-opacity:1"
       transform="translate(2.5,164)" /><polygon
       fill="#4472DB"
       points="36.762,46.842 30.941,41.021 38.893,38.893 44.713,44.713 "
       id="polygon797"
       style="fill:#b29316;fill-opacity:1"
       transform="translate(2.5,164)" /><polygon
       fill="#4472DB"
       points="64.303,54.066 58.482,48.246 66.434,46.117 72.254,51.938 "
       id="polygon799"
       style="fill:#b29316;fill-opacity:1"
       transform="translate(2.5,164)" /><polygon
       fill="#4472DB"
       points="23.98,68.98 18.16,63.16 26.111,61.031 31.932,66.85 "
       id="polygon801"
       style="fill:#b29316;fill-opacity:1"
       transform="translate(2.5,164)" /><polygon
       fill="#4472DB"
       points="44.141,74.379 38.32,68.559 46.271,66.43 52.092,72.25 "
       id="polygon803"
       style="fill:#b29316;fill-opacity:1"
       transform="translate(2.5,164)" /><polygon
       fill="#4472DB"
       points="141.52,151.601 135.699,145.78 143.648,143.651 149.469,149.47 "
       id="polygon805"
       style="fill:#b29316;fill-opacity:1"
       transform="translate(2.5,164)" /><polygon
       fill="#4472DB"
       points="51.52,101.92 45.699,96.1 53.65,93.971 59.471,99.791 "
       id="polygon807"
       style="fill:#b29316;fill-opacity:1"
       transform="translate(2.5,164)" /><polygon
       fill="#4472DB"
       points="137.412,56.77 125.771,45.129 141.672,40.869 153.313,52.51 "
       id="polygon809"
       style="fill:#b29316;fill-opacity:1"
       transform="translate(2.5,164)" /><polygon
       fill="#4472DB"
       points="187.245,36.039 181.424,30.219 189.374,28.09 195.194,33.908 "
       id="polygon811"
       style="fill:#b29316;fill-opacity:1"
       transform="translate(2.5,164)" /><polygon
       fill="#4472DB"
       points="164.951,64.146 153.311,52.506 169.211,48.248 180.852,59.887 "
       id="polygon813"
       style="fill:#b29316;fill-opacity:1"
       transform="translate(2.5,164)" /><polygon
       fill="#4472DB"
       points="214.784,43.416 208.964,37.596 216.913,35.467 222.733,41.287 "
       id="polygon815"
       style="fill:#b29316;fill-opacity:1"
       transform="translate(2.5,164)" /><polygon
       fill="#4472DB"
       points="192.491,71.525 180.85,59.885 196.751,55.625 208.392,67.266 "
       id="polygon817"
       style="fill:#b29316;fill-opacity:1"
       transform="translate(2.5,164)" /><polygon
       fill="#4472DB"
       points="240.192,58.744 228.552,47.104 244.452,42.846 256.093,54.484 "
       id="polygon819"
       style="fill:#b29316;fill-opacity:1"
       transform="translate(2.5,164)" /><polygon
       fill="#4472DB"
       points="267.731,66.123 256.091,54.482 271.991,50.223 283.632,61.863 "
       id="polygon821"
       style="fill:#b29316;fill-opacity:1"
       transform="translate(2.5,164)" /><polygon
       fill="#4472DB"
       points="295.271,73.5 283.63,61.859 299.53,57.602 311.171,69.24 "
       id="polygon823"
       style="fill:#b29316;fill-opacity:1"
       transform="translate(2.5,164)" /><polygon
       fill="#4472DB"
       points="302.647,101.037 291.007,89.396 306.907,85.137 318.548,96.777 "
       id="polygon825"
       style="fill:#b29316;fill-opacity:1"
       transform="translate(2.5,164)" /><path
       fill="none"
       d="m 144.59,238.569 c -2.035,2.417 -3.051,5.416 -3.051,8.997 0,3.58 1.016,6.58 3.051,8.996 0.207,0.246 0.425,0.471 0.645,0.692 1.544,0.914 3.319,1.375 5.33,1.375 3.238,0 5.875,-1.209 7.91,-3.625 2.035,-2.418 3.053,-5.416 3.053,-8.997 0,-3.581 -1.018,-6.579 -3.053,-8.997 -0.207,-0.246 -0.425,-0.471 -0.645,-0.692 -1.543,-0.914 -3.318,-1.375 -5.33,-1.375 -3.238,0 -5.875,1.209 -7.91,3.626 z"
       id="path881" /><polygon
       fill="none"
       points="237.677,86.745 233.432,74.755 229.072,86.745 "
       id="polygon899"
       transform="translate(2.5,164)" /><path
       fill="none"
       d="m 266.463,233.98 v 23.092 h 4.899 c 6.624,-0.018 9.944,-4.136 9.961,-12.354 -0.008,-4.358 -0.956,-7.548 -2.823,-9.596 -1.401,-0.757 -3.104,-1.142 -5.114,-1.142 z"
       id="path909" /><g
       id="g3605"
       transform="translate(5.822655,64.259659)"><path
         id="path3104"
         style="font-weight:bold;font-size:53.3333px;font-family:Arial;-inkscape-font-specification:'Arial Bold';fill:#b19216;fill-opacity:1"
         d="m 88.772703,165.18317 c -5.347209,0 -9.660164,1.76086 -12.941406,5.28516 -3.281243,3.50692 -4.921875,8.43881 -4.921875,14.79297 0,6.00692 1.63065,10.74653 4.894531,14.21875 3.263881,3.45484 7.430568,5.18164 12.5,5.18164 4.097212,0 7.474617,-1.0076 10.130859,-3.02149 2.673608,-2.03122 4.582688,-5.13023 5.728518,-9.29687 l -1.84766,-1.61524 -1.88672,0.43164 -3.738278,-1.18554 c -0.642358,2.79512 -1.702043,4.8444 -3.177735,6.14648 -1.475689,1.30209 -3.238503,1.95313 -5.287109,1.95313 -2.77777,0 -5.033425,-1.02561 -6.769531,-3.07422 -1.736107,-2.04861 -2.605469,-5.48613 -2.605469,-10.3125 0,-4.54861 0.877392,-7.83789 2.630859,-9.86914 1.77083,-2.03125 4.070537,-3.04688 6.900391,-3.04688 2.048606,0 3.785378,0.57291 5.208984,1.71875 0.942621,0.74955 1.668536,1.68096 2.1875,2.78711 l -1.197265,0.28516 1.847656,1.61523 7.630857,-1.82226 c -0.86805,-3.05556 -2.17014,-5.39931 -3.90625,-7.03125 -2.916653,-2.76042 -6.710731,-4.14063 -11.380857,-4.14063 z" /><path
         id="path2712"
         style="font-weight:bold;font-size:53.3333px;font-family:Arial;-inkscape-font-specification:'Arial Bold';fill:#b19216;fill-opacity:1"
         d="m 128.07348,164.21833 0.64649,1.61523 h -6.95313 l -14.24023,36.56055 H 105.052 l 1.8457,1.61523 h 8.17774 l 3.15039,-8.67187 h 15.25976 l 2.71289,7.05664 h -1.22461 l 1.84571,1.61523 h 8.38476 l -15.28515,-38.17578 z m -2.32226,10.52148 5.26172,14.16602 h -10.41797 z" /><path
         d="m 143.35957,202.39487 h -8.38541 l -3.33333,-8.67187 h -15.26041 l -3.15104,8.67187 h -8.17708 l 14.86979,-38.17706 h 8.15103 z m -14.1927,-15.10416 -5.26041,-14.16666 -5.15625,14.16666 z"
         id="path2997"
         style="font-weight:bold;font-size:53.3333px;font-family:Arial;-inkscape-font-specification:'Arial Bold';fill:#ffffff" /><path
         id="path2714"
         style="font-weight:bold;font-size:53.3333px;font-family:Arial;-inkscape-font-specification:'Arial Bold';fill:#b19216;fill-opacity:1"
         d="m 158.87817,164.21833 -3.92187,1.61523 h -5.76758 v 36.5625 h -1.8457 l 1.8457,1.61328 h 7.16211 v -30.05078 l 7.14648,28.4375 h -1.4414 l 1.84765,1.61328 h 7.42188 l 7.57812,-30.05078 v 28.4375 h -1.84765 l 1.84765,1.61328 h 7.16016 v -38.17578 l -1.8457,-1.61523 -3.93555,1.61523 h -5.78125 l -6.84766,26.04102 -6.92773,-26.04102 z" /><path
         id="path2716"
         style="font-weight:bold;font-size:53.3333px;font-family:Arial;-inkscape-font-specification:'Arial Bold';fill:#b19216;fill-opacity:1"
         d="m 220.18091,164.21833 -5.23047,1.61523 h -21.23047 v 36.5625 h -1.8457 l 1.8457,1.61328 h 29.03711 v -6.43164 l -1.84766,-1.61523 -3.4414,1.61523 h -16.03907 v -10.39062 h 19.16602 v -6.43164 l -1.8457,-1.61524 -3.49024,1.61524 h -13.83008 v -8.46485 h 20.59961 v -6.45703 z" /><path
         id="path2718"
         style="font-weight:bold;font-size:53.3333px;font-family:Arial;-inkscape-font-specification:'Arial Bold';fill:#b19216;fill-opacity:1"
         d="m 235.36255,164.53083 -2.00586,1.61523 h -3.85547 v 36.25 h -1.8457 l 1.8457,1.61328 h 26.875 v -6.43164 l -1.8457,-1.61523 -2.81055,1.61523 H 237.2102 v -31.43164 z" /><path
         id="path2720"
         style="font-weight:bold;font-size:53.3333px;font-family:Arial;-inkscape-font-specification:'Arial Bold';fill:#b19216;fill-opacity:1"
         d="m 275.23169,165.18317 c -2.93403,0 -5.44401,0.44076 -7.52735,1.32617 -2.06596,0.88542 -3.65452,2.17948 -4.76562,3.88086 -1.09375,1.68403 -1.64063,3.49892 -1.64063,5.44336 0,3.02083 1.17188,5.58096 3.51563,7.68164 1.66666,1.49305 4.56727,2.75109 8.69922,3.77539 3.21178,0.79862 5.26909,1.35547 6.17187,1.66797 1.31944,0.46875 2.23894,1.02366 2.75977,1.66602 0.53819,0.625 0.80664,1.38823 0.80664,2.29101 0,1.40625 -0.63303,2.6402 -1.90039,3.69922 -1.24999,1.04167 -3.11697,1.5625 -5.59961,1.5625 -2.34375,0 -4.20877,-0.59093 -5.59766,-1.77148 -1.37152,-1.18055 -2.28299,-3.02952 -2.73437,-5.54688 l -1.84766,-1.61523 -1.90234,1.97851 -3.75,0.36524 c 0.50346,4.27082 2.04797,7.52606 4.63476,9.76562 2.58681,2.22222 6.29278,3.33399 11.11914,3.33399 3.31597,0 6.08638,-0.46073 8.3086,-1.38086 2.22222,-0.9375 3.94097,-2.35981 5.15625,-4.26953 1.21527,-1.90972 1.82226,-3.95899 1.82226,-6.14649 0,-2.41317 -0.51281,-4.43641 -1.53711,-6.06836 -1.00694,-1.64929 -2.41319,-2.9414 -4.21875,-3.8789 -1.78818,-0.95486 -4.55664,-1.87631 -8.30664,-2.76172 -3.74998,-0.88542 -6.11176,-1.73482 -7.08398,-2.55078 -0.76389,-0.64236 -1.14453,-1.41558 -1.14453,-2.31836 0,-0.98958 0.40668,-1.77886 1.22265,-2.36914 1.26736,-0.92014 3.02214,-1.38086 5.26172,-1.38086 2.17014,0 3.79276,0.43468 4.86914,1.30273 0.75018,0.58348 1.31621,1.43486 1.70703,2.54102 l -1.41796,0.0625 1.8457,1.61523 7.70898,-0.33984 c -0.12152,-3.50694 -1.39757,-6.30947 -3.82812,-8.41016 -2.41319,-2.10069 -6.015,-3.15039 -10.80664,-3.15039 z" /><path
         style="font-weight:bold;font-size:53.3333px;font-family:Arial;-inkscape-font-specification:'Arial Bold';fill:none"
         d="m 64.320312,67.386719 5.259766,14.166015 H 59.164062 Z"
         transform="translate(59.586149,105.73733)"
         id="path2870" /><path
         style="font-weight:bold;font-size:53.3333px;font-family:Arial;-inkscape-font-specification:'Arial Bold';fill:#ffffff"
         d="m 168.07031,58.792969 v 37.865234 h 26.875 v -6.433594 h -19.16797 v -31.43164 z"
         transform="translate(59.586149,105.73733)"
         id="path2868" /><path
         style="font-weight:bold;font-size:53.3333px;font-family:Arial;-inkscape-font-specification:'Arial Bold';fill:#ffffff"
         d="m 132.28906,58.480469 v 38.177734 h 29.03516 V 90.224609 H 139.99609 V 79.833984 h 19.16797 v -6.43164 h -19.16797 v -8.462891 h 20.59961 v -6.458984 z"
         transform="translate(59.586149,105.73733)"
         id="path2866" /><path
         style="font-weight:bold;font-size:53.3333px;font-family:Arial;-inkscape-font-specification:'Arial Bold';fill:#ffffff"
         d="m 87.757812,58.480469 v 38.177734 h 7.160157 V 66.605469 l 7.552731,30.052734 h 7.42188 l 7.57812,-30.052734 v 30.052734 h 7.16211 V 58.480469 h -11.5625 L 106.2207,84.521484 99.292969,58.480469 Z"
         transform="translate(59.586149,105.73733)"
         id="path2864" /><path
         style="font-weight:bold;font-size:53.3333px;font-family:Arial;-inkscape-font-specification:'Arial Bold';fill:#ffffff"
         d="m 213.79883,57.830078 c -2.93403,0 -5.44206,0.442709 -7.52539,1.328125 -2.06597,0.885416 -3.65452,2.177519 -4.76563,3.878906 -1.09375,1.684027 -1.64062,3.498916 -1.64062,5.44336 0,3.020831 1.17187,5.580947 3.51562,7.68164 1.66667,1.493055 4.56533,2.753039 8.69727,3.777344 3.2118,0.798611 5.2691,1.353516 6.17187,1.666016 1.31945,0.468749 2.23894,1.023655 2.75977,1.666015 0.53819,0.625 0.80859,1.390192 0.80859,2.292969 0,1.406249 -0.63498,2.638239 -1.90234,3.697266 -1.25,1.041666 -3.11502,1.5625 -5.59766,1.5625 -2.34375,0 -4.21072,-0.59093 -5.59961,-1.771485 -1.37152,-1.180554 -2.28298,-3.029515 -2.73437,-5.546875 l -7.5,0.730469 c 0.50347,4.270831 2.04796,7.526043 4.63476,9.765625 2.58681,2.222221 6.29471,3.332031 11.1211,3.332031 3.31597,0 6.08442,-0.458768 8.30664,-1.378906 2.22222,-0.937499 3.94097,-2.361763 5.15625,-4.271484 1.21528,-1.909721 1.82226,-3.958986 1.82226,-6.146485 0,-2.413193 -0.51085,-4.434462 -1.53515,-6.066406 -1.00695,-1.649304 -2.4132,-2.94336 -4.21875,-3.880859 -1.7882,-0.954861 -4.5586,-1.87435 -8.3086,-2.759766 -3.74999,-0.885416 -6.10981,-1.736763 -7.08203,-2.552734 -0.76389,-0.642361 -1.14648,-1.415582 -1.14648,-2.31836 0,-0.989582 0.40864,-1.778863 1.22461,-2.36914 1.26736,-0.920139 3.02018,-1.38086 5.25976,-1.38086 2.17014,0 3.79276,0.43468 4.86914,1.302735 1.09375,0.850694 1.80686,2.256945 2.13672,4.21875 l 7.70703,-0.337891 c -0.12152,-3.506942 -1.39757,-6.311416 -3.82812,-8.412109 -2.41319,-2.100693 -6.01498,-3.150391 -10.80664,-3.150391 z"
         transform="translate(59.586149,105.73733)"
         id="path2860" /><path
         style="font-weight:bold;font-size:53.3333px;font-family:Arial;-inkscape-font-specification:'Arial Bold';fill:#ffffff"
         d="m 27.339844,57.830078 c -5.347219,0 -9.660158,1.760853 -12.941406,5.285156 -3.281249,3.506943 -4.9218755,8.438806 -4.9218755,14.792969 0,6.006941 1.6306445,10.74653 4.8945315,14.21875 3.263887,3.454859 7.430558,5.181641 12.5,5.181641 4.09722,0 7.474611,-1.007597 10.130859,-3.021485 2.67361,-2.031248 4.582683,-5.13021 5.728516,-9.296875 l -7.472657,-2.36914 c -0.64236,2.795137 -1.70204,4.844402 -3.177734,6.146484 -1.475693,1.302083 -3.238499,1.953125 -5.287109,1.953125 -2.777776,0 -5.033421,-1.025609 -6.769531,-3.074219 -1.736111,-2.04861 -2.605469,-5.486114 -2.605469,-10.3125 0,-4.548608 0.877388,-7.837891 2.630859,-9.86914 1.770832,-2.031249 4.070531,-3.046875 6.900391,-3.046875 2.04861,0 3.785374,0.572917 5.208984,1.71875 1.440971,1.145832 2.386502,2.708334 2.837891,4.6875 l 7.630859,-1.822266 c -0.868055,-3.055554 -2.17014,-5.399306 -3.90625,-7.03125 -2.916665,-2.760415 -6.710723,-4.140625 -11.380859,-4.140625 z"
         transform="translate(59.586149,105.73733)"
         id="text1187" /></g></g><g
     id="g7933"><path
       style="fill:#502d16;fill-opacity:1;fill-rule:nonzero;stroke:#28170b;stroke-width:1.63128;stroke-dasharray:none;stroke-opacity:1"
       d="m 58.134477,132.44791 c 0.06685,-0.36961 0.117316,-0.71356 0.193291,-1.05156 0.100575,-0.44835 0.313933,-0.80274 0.79693,-0.83739 0.126597,-0.26854 0.198362,-0.54129 0.361637,-0.73821 0.231142,-0.27854 0.519842,-0.50649 0.603219,-0.88524 0.01076,-0.0507 0.0592,-0.11206 0.105956,-0.1334 0.275653,-0.12441 0.340757,-0.36919 0.410645,-0.63151 0.06625,-0.24926 0.212438,-0.45733 0.448638,-0.59639 0.07953,-0.0469 0.130938,-0.1463 0.186188,-0.22765 0.06482,-0.0953 0.108348,-0.20663 0.180962,-0.29435 0.23766,-0.28711 0.496199,-0.53912 0.650051,-0.90758 0.178498,-0.42718 0.608576,-0.49084 1.15871,-0.27449 0.254629,-0.22838 0.551592,-0.39426 0.930917,-0.3525 0.15226,-0.35714 0.374541,-0.62032 0.781131,-0.66977 0.05884,-0.007 0.117796,-0.0689 0.163706,-0.11756 0.175305,-0.18604 0.387743,-0.23302 0.634097,-0.2033 0.09424,0.0108 0.214028,0.0121 0.287109,-0.036 0.35671,-0.23388 0.695721,-0.20649 1.035892,0.025 0.02846,0.0194 0.06087,0.0329 0.116719,0.0628 0.04915,-0.1032 0.09974,-0.20212 0.143842,-0.30378 0.197202,-0.45559 0.580162,-0.58189 1.016758,-0.33321 0.04915,0.028 0.0977,0.0571 0.144571,0.0845 0.531729,-0.57682 0.891046,-0.51099 1.344899,-0.0868 0.315236,-0.23607 0.660203,-0.23534 1.015598,-0.0771 0.109902,-0.22722 0.166611,-0.49128 0.329156,-0.63699 0.150228,-0.13472 0.414125,-0.14299 0.659761,-0.14995 0.01913,-0.0395 0.04066,-0.0779 0.0568,-0.11851 0.189812,-0.47357 0.631346,-0.59364 1.028944,-0.27217 0.133689,0.10799 0.250994,0.23636 0.373238,0.35309 0.03097,-0.0204 0.05669,-0.0286 0.06757,-0.0459 0.343508,-0.54984 0.86842,-0.57884 1.262968,-0.0616 0.146605,0.19198 0.272759,0.39948 0.420368,0.61771 0.225485,-0.1624 0.450958,-0.34845 0.728345,-0.23129 0.228236,0.0963 0.431537,0.25203 0.6879,0.40688 0.541152,-0.25926 0.933524,0.0599 1.286025,0.50316 0.07032,-0.0176 0.136594,-0.0292 0.199522,-0.0506 0.288843,-0.0984 0.565369,-0.0526 0.780845,0.14688 0.329731,0.30539 0.635544,0.63715 0.941058,0.96747 0.11624,0.12571 0.203445,0.27826 0.322053,0.44414 0.502729,-0.25724 0.868133,-0.0108 1.19729,0.33756 0.08479,0.0898 0.161385,0.15095 0.297107,0.12616 0.279563,-0.0512 0.502298,0.067 0.670201,0.28015 0.150084,0.19038 0.283198,0.39454 0.419937,0.59523 0.07821,0.1148 0.148768,0.23476 0.236056,0.37382 0.489383,-0.15342 0.786203,0.11373 1.016902,0.49808 0.105477,0.17574 0.227219,0.29783 0.444154,0.34655 0.133975,0.0301 0.273177,0.13877 0.361338,0.25057 0.206925,0.26276 0.39035,0.54493 0.571169,0.82697 0.07008,0.1093 0.140948,0.18778 0.261876,0.25491 0.141952,0.0789 0.2423,0.23388 0.35671,0.35946 0.02165,0.0237 0.03169,0.0633 0.03576,0.0967 0.07749,0.65251 0.432841,1.18888 0.735031,1.74642 0.05166,0.0951 0.130926,0.19024 0.221419,0.24723 0.900457,0.56724 1.865314,0.65555 2.872935,0.35437 0.643951,-0.19256 1.285152,-0.39497 1.954779,-0.4801 0.194738,-0.0247 0.392084,-0.0445 0.588127,-0.0436 2.369488,0.01 4.661543,0.41093 6.819181,1.42102 1.213242,0.56783 2.315982,1.31489 3.326372,2.19679 0.74429,0.64962 1.39738,1.38637 2.06555,2.11023 1.01386,1.09854 2.03164,2.19403 3.07188,3.26749 0.80608,0.83188 1.63376,1.64433 2.47941,2.43605 1.38883,1.30037 2.84481,2.52245 4.43113,3.57895 1.06375,0.70848 2.17432,1.33475 3.40003,1.72001 0.75821,0.23811 1.53558,0.34788 2.3312,0.17474 0.52565,-0.11445 0.96659,-0.37774 1.35868,-0.73473 0.57885,-0.52708 0.96006,-1.1912 1.25659,-1.89939 0.22301,-0.53274 0.37629,-1.09434 0.57378,-1.63824 0.0725,-0.19996 -0.0146,-0.35526 -0.0738,-0.52969 -0.0594,-0.17429 -0.0743,-0.35991 -0.29798,-0.4253 -0.082,-0.0238 -0.19488,-0.10009 -0.20953,-0.17009 -0.0802,-0.3812 -0.50996,-0.50098 -0.61727,-0.8442 -0.0648,-0.20677 -0.0798,-0.43138 -0.0975,-0.64947 -0.012,-0.14094 -0.012,-0.26332 -0.14312,-0.36554 -0.15443,-0.11993 -0.20866,-0.30842 -0.20359,-0.49897 0.007,-0.26535 0.0281,-0.53085 0.0568,-0.79475 0.0166,-0.15356 -0.001,-0.26043 -0.10787,-0.40209 -0.22069,-0.29306 -0.29131,-0.68442 -0.56914,-0.95093 0.004,-0.22911 -0.004,-0.45908 0.0151,-0.68688 0.0122,-0.14689 0.063,-0.29045 0.0957,-0.43138 -0.62438,-0.35845 -0.62729,-0.74938 -0.23824,-1.46192 -0.23911,-0.33322 -0.17952,-0.6934 -0.0144,-1.04069 0.1985,-0.41717 0.4163,-0.82535 0.63626,-1.23179 0.0674,-0.12471 0.11964,-0.21968 0.0715,-0.3815 -0.0454,-0.15328 -0.0173,-0.34453 0.0274,-0.50533 0.11373,-0.4079 0.33915,-0.75954 0.62003,-1.07476 0.11062,-0.12414 0.18473,-0.24158 0.14834,-0.4327 -0.0431,-0.22592 0.0662,-0.43008 0.22142,-0.59842 0.21155,-0.22997 0.42268,-0.46053 0.64366,-0.68123 0.10596,-0.10572 0.23433,-0.18908 0.35714,-0.28638 -0.29421,-0.49533 -0.11851,-0.86856 0.18734,-1.18698 0.40036,-0.41661 0.82971,-0.80551 1.27399,-1.23298 -0.11647,-0.51679 0.25927,-0.84145 0.61322,-1.15321 0.43415,-0.38251 0.90293,-0.72457 1.52645,-0.9022 -0.18473,-0.33685 -0.33046,-0.65107 -0.51954,-0.93643 -0.30698,-0.46343 -0.62844,-0.91887 -0.9692,-1.35794 -0.37063,-0.47707 -0.64281,-0.98689 -0.70718,-1.59663 -0.0427,-0.40296 -0.11098,-0.80361 -0.14428,-1.2073 -0.0336,-0.40484 0.16357,-0.6438 0.59249,-0.78359 1.10578,-0.36004 2.17996,-0.24302 3.20586,0.26261 0.4221,0.20807 0.79867,0.5091 1.19525,0.76851 0.0477,0.0312 0.092,0.0677 0.14907,0.11014 0.0878,-0.0621 0.17138,-0.11978 0.25346,-0.17966 0.93483,-0.68224 1.99901,-0.99632 3.13481,-1.1271 0.9576,-0.11026 1.89113,0.0397 2.8319,0.18298 0.73197,0.11158 1.47193,0.17836 2.21086,0.23158 0.54405,0.0391 1.03082,-0.1295 1.50441,-0.4295 1.59342,-1.00994 3.28329,-1.81341 5.13932,-2.22463 1.53109,-0.33916 3.02172,-0.24144 4.43839,0.46401 0.6905,0.34395 1.27675,0.83724 1.78512,1.42074 0.24332,0.27942 0.49186,0.55449 0.74662,0.82347 0.40993,0.43254 0.75329,0.90887 0.99878,1.45379 0.22897,0.50809 0.24448,1.03329 0.11373,1.56459 -0.0592,0.24069 -0.18719,0.45167 -0.39542,0.59682 -0.13993,0.0975 -0.18908,0.22171 -0.1753,0.38629 0.0183,0.21925 0.012,0.44153 0.0433,0.65845 0.0846,0.57914 -0.12905,1.01893 -0.59727,1.34853 -0.60713,0.42703 -1.28762,0.69282 -2.00814,0.83289 -0.50954,0.0989 -1.03271,0.13355 -1.55167,0.17213 -0.18372,0.0138 -0.3032,0.0685 -0.39209,0.22634 -0.0795,0.14095 -0.16603,0.28116 -0.26957,0.40499 -0.4044,0.48315 -0.74429,0.9956 -0.90945,1.61781 -0.0767,0.2887 -0.28145,0.49824 -0.59001,0.58988 -0.075,0.0224 -0.14268,0.10691 -0.18967,0.1785 -0.16023,0.24374 -0.31799,0.46429 -0.6238,0.57115 -0.17718,0.0619 -0.26709,0.24854 -0.32118,0.47939 -0.1308,0.55796 -0.0428,1.16306 -0.36018,1.68189 -0.0558,0.0909 -0.0506,0.22068 -0.0677,0.33349 -0.0503,0.33134 -0.0794,0.66717 -0.15399,0.99284 -0.037,0.16153 -0.12571,0.33655 -0.24505,0.44763 -0.14211,0.13224 -0.19604,0.27913 -0.22229,0.45226 -0.0572,0.37787 -0.17285,0.70195 -0.5339,0.92438 -0.18662,0.11517 -0.30131,0.34221 -0.52941,0.43401 -0.0547,0.022 -0.078,0.1331 -0.10655,0.20676 -0.16327,0.42298 -0.38832,0.56363 -0.82564,0.48446 -0.13442,-0.0243 -0.22157,0.006 -0.30277,0.10536 -0.0948,0.11576 -0.19561,0.22649 -0.30654,0.35395 0.0959,0.18154 0.19097,0.35119 0.27638,0.52564 0.1321,0.26969 0.18807,0.54215 0.0393,0.83057 -0.038,0.0737 -0.0435,0.17473 -0.0341,0.25984 0.0205,0.18401 0.0435,0.37063 0.0953,0.54753 0.12296,0.42065 0.0688,0.78027 -0.31886,1.04213 0.11277,0.68833 0.18328,1.35926 -0.47937,1.85937 0,0.26202 0.0183,0.53985 -0.005,0.8142 -0.0244,0.2871 -0.20967,0.48141 -0.47735,0.62307 0.0108,0.20605 0.0354,0.41355 0.0283,0.61989 -0.008,0.24143 -0.0312,0.48431 -0.0744,0.72167 -0.0194,0.10668 -0.0792,0.23853 -0.16342,0.29465 -0.2117,0.14109 -0.20227,0.33365 -0.21198,0.54695 -0.0108,0.25259 -0.048,0.50765 -0.10847,0.753 -0.0337,0.13776 -0.11469,0.28262 -0.21692,0.37961 -0.10512,0.0996 -0.14588,0.18184 -0.12789,0.32597 0.0818,0.66006 -0.0566,0.91048 -0.63237,1.18554 -0.0725,0.61583 0.0366,1.31721 -0.75445,1.59068 -0.0255,0.22331 -0.0448,0.44212 -0.0769,0.65919 -0.0447,0.30189 -0.18546,0.55101 -0.45676,0.70268 -0.11576,0.0647 -0.15776,0.15139 -0.183,0.27203 -0.093,0.44342 -0.31755,0.76562 -0.80085,0.84741 -0.0557,0.01 -0.11385,0.0701 -0.1492,0.12164 -0.21113,0.30915 -0.2091,0.3106 -0.5848,0.43226 -0.23011,0.56928 -0.45458,1.13856 -0.68963,1.70335 -0.44748,1.07519 -1.03691,2.07107 -1.71611,3.01432 -0.95368,1.32387 -2.05396,2.51115 -3.34375,3.51413 -1.31344,1.0214 -2.72099,1.89157 -4.25845,2.53668 -0.76836,0.32219 -1.54428,0.6299 -2.32932,0.90887 -1.44394,0.51317 -2.93079,0.86524 -4.44317,1.11116 -1.20338,0.19576 -2.41357,0.29697 -3.63305,0.29726 -1.61736,3.2e-4 -3.215,-0.17183 -4.79117,-0.53332 -0.54013,-0.12384 -1.07621,-0.26638 -1.63969,-0.40659 -0.0532,0.0734 -0.12022,0.15153 -0.17197,0.23853 -1.20411,2.02989 -2.7942,3.71772 -4.61747,5.19675 -0.14211,0.11529 -0.18822,0.25129 -0.22795,0.40891 -0.40107,1.59488 -0.77503,3.19745 -1.21439,4.7819 -0.4208,1.51702 -0.90786,3.01592 -1.37041,4.52134 -0.38789,1.26166 -0.81956,2.51144 -1.16453,3.78456 -0.42239,1.55936 -0.707318,3.14961 -0.56217,4.77582 0.0804,0.89872 0.23577,1.79077 0.36511,2.68487 0.13935,0.96281 0.30698,1.92201 0.42617,2.88728 0.0985,0.7981 0.0683,1.59866 -0.15023,2.38022 -0.18401,0.65802 -0.3828,1.3117 -0.57058,1.96871 -0.220689,0.77199 -0.341486,1.56053 -0.38571,2.3621 -0.08012,1.45786 0.131524,2.88962 0.3976,4.31441 0.20446,1.09521 0.3338,2.19635 0.40441,3.30838 0.0866,1.36361 0.12919,2.73301 0.39296,4.08051 0.11863,0.60496 0.31031,1.1815 0.56043,1.74744 0.26159,0.59146 0.49925,1.2012 0.66615,1.82441 0.11851,0.44212 0.36859,0.62846 0.77504,0.72342 0.51824,0.12109 1.03125,0.2658 1.54442,0.40747 0.58841,0.16254 1.11913,0.44399 1.60126,0.81462 0.55377,0.42573 0.90656,0.98355 1.06375,1.66405 0.068,0.29421 -0.0476,0.5207 -0.26812,0.70486 -0.22156,0.18503 -0.4917,0.2507 -0.76547,0.30842 -0.78809,0.16632 -1.58995,0.1695 -2.38833,0.1753 -0.91598,0.007 -1.83414,0.007 -2.74766,-0.05 -1.351855,-0.0844 -2.704587,-0.19154 -4.025268,-0.52707 -0.02165,-0.006 -0.0458,-7.7e-4 -0.104641,-7.7e-4 0,0.19097 0.0024,0.38093 -4.3e-4,0.57073 -0.0072,0.52955 -0.183139,0.74619 -0.700218,0.88582 -0.59785,0.16154 -1.21005,0.21258 -1.824283,0.21476 -1.113183,0.005 -2.22811,0.0219 -3.33926,-0.0304 -1.306474,-0.0612 -2.610485,-0.17081 -3.895792,-0.45139 -0.683392,-0.14921 -1.15712,-0.54984 -1.554275,-1.0865 -0.511578,-0.69152 -0.722844,-1.49657 -0.875679,-2.32077 -0.206769,-1.11666 -0.191259,-2.24217 -0.02272,-3.35782 0.198793,-1.31691 0.456902,-2.62485 0.678895,-3.93828 0.256949,-1.52021 0.464448,-3.0481 0.5368,-4.58875 0.04784,-1.01806 0.0763,-2.04019 0.04162,-3.05825 -0.05728,-1.68421 -0.342934,-3.33564 -0.793892,-4.96361 -0.392515,-1.41696 -0.770249,-2.83915 -1.019365,-4.2925 -0.207212,-1.20918 -0.234467,-2.4143 -0.111936,-3.63435 0.123835,-1.23296 0.220259,-2.47055 0.270439,-3.70844 0.05453,-1.34317 0.07367,-2.68966 0.04855,-4.03369 -0.02248,-1.2041 -0.125281,-2.40661 -0.195755,-3.60969 -0.0048,-0.0899 -0.03456,-0.17864 -0.05645,-0.28652 -0.101412,0.005 -0.192849,-5.5e-4 -0.28058,0.0155 -1.723936,0.31379 -3.464255,0.48938 -5.209215,0.62975 -1.423492,0.11444 -2.849592,0.14587 -4.27526,0.1044 -1.367525,-0.0397 -2.728664,-0.1698 -4.083129,-0.37642 -1.678552,-0.25593 -3.314614,-0.6718 -4.899503,-1.27545 -1.018779,-0.38788 -1.994793,-0.87205 -2.927313,-1.44104 -1.222224,-0.74575 -2.344543,-1.61969 -3.381308,-2.60541 -0.04963,-0.0471 -0.101651,-0.092 -0.175892,-0.15893 -0.04078,0.0893 -0.0806,0.15414 -0.100813,0.22446 -0.229827,0.80114 -0.639754,1.51094 -1.100136,2.1971 -0.717044,1.06823 -1.431325,2.13821 -2.142414,3.21036 -0.646857,0.97543 -1.308364,1.94202 -1.923757,2.93688 -0.389035,0.62902 -0.735592,1.28893 -1.047205,1.96 -0.403541,0.86944 -0.586094,1.80833 -0.669472,2.75694 -0.105597,1.19946 -0.155441,2.40386 -0.241294,3.6052 -0.08898,1.24789 -0.19285,2.49463 -0.289418,3.74194 -0.120928,1.56298 -0.145444,3.1248 0,4.68866 0.204593,2.20202 0.732411,4.33313 1.317489,6.45916 0.355693,1.29284 0.57276,2.62353 0.859139,3.93566 0.172699,0.79142 0.316397,1.59255 0.549129,2.36658 0.30494,1.01444 0.983405,1.76947 1.85198,2.36137 0.704858,0.48039 1.483658,0.80723 2.272766,1.11579 0.517366,0.20214 1.039229,0.39615 1.544134,0.62685 1.454226,0.66426 2.312218,1.81022 2.653118,3.35769 0.08778,0.39832 -0.09938,0.72878 -0.516074,0.85566 -0.285937,0.0868 -0.587111,0.13587 -0.884947,0.16704 -0.402094,0.0421 -0.807812,0.0505 -1.234841,0.0746 -0.07163,0.55768 -0.469088,0.73139 -0.939766,0.8284 -0.844203,0.17429 -1.700736,0.20518 -2.557699,0.24621 -1.659405,0.0793 -3.316359,0.0252 -4.969965,-0.10428 -0.715011,-0.0561 -1.426386,-0.16849 -2.135741,-0.27942 -0.211852,-0.033 -0.424134,-0.12383 -0.613802,-0.22881 -0.891907,-0.49359 -1.588502,-1.16524 -1.865171,-2.18287 -0.06912,-0.25492 -0.07666,-0.52622 -0.124994,-0.78736 -0.15616,-0.84276 -0.28522,-1.69219 -0.484886,-2.52465 -0.396868,-1.65535 -0.803029,-3.30954 -1.263841,-4.94778 -0.398172,-1.41537 -0.881766,-2.80378 -1.51499,-4.13954 -0.82361,-1.73698 -1.588501,-3.50166 -2.39892,-5.24503 -0.512583,-1.1029 -1.056342,-2.19144 -1.596622,-3.28098 -0.45256,-0.91309 -0.942086,-1.80863 -1.371435,-2.73215 -0.187778,-0.40412 -0.295959,-0.85291 -0.387157,-1.29241 -0.118154,-0.56971 0.01901,-1.12696 0.181679,-1.67507 0.238676,-0.80448 0.649034,-1.535 0.983991,-2.29814 0.674841,-1.53732 1.354466,-3.07262 2.017132,-4.61545 0.173285,-0.40324 0.305383,-0.82607 0.429361,-1.24788 0.07427,-0.25274 0.138616,-0.52158 0.133975,-0.782 -0.01626,-0.92541 -0.06398,-1.85024 -0.132241,-2.78609 -0.272603,0.24839 -0.468359,0.56741 -0.879302,0.60394 -0.03875,0.19488 -0.05968,0.37889 -0.11373,0.55261 -0.06817,0.21953 -0.137168,0.44603 -0.252153,0.64265 -0.293197,0.50112 -0.651497,0.60452 -1.264427,0.38367 -0.191546,0.41008 -0.56971,0.64281 -0.909451,0.92178 -0.543472,0.44618 -0.91787,1.00198 -1.001534,1.7254 -0.05537,0.47923 -0.315667,0.715 -0.714425,0.67354 -0.255215,-0.0267 -0.447478,-0.15428 -0.499248,-0.40993 -0.04066,-0.20011 -0.06817,-0.41732 -0.03432,-0.61554 0.12253,-0.71747 0.182708,-1.44858 0.433845,-2.14068 0.06362,-0.1753 0.03767,-0.35655 0.03205,-0.5426 -0.01076,-0.35553 0.01818,-0.7208 0.09388,-1.06837 0.09304,-0.42733 0.209962,-0.859 0.389621,-1.25572 0.314077,-0.69384 0.500695,-1.41494 0.636274,-2.15895 0.139058,-0.763 0.308276,-1.52064 0.475462,-2.27786 0.04425,-0.20069 0.06494,-0.36309 -0.08969,-0.54275 -0.180819,-0.20967 -0.206339,-0.48198 -0.156028,-0.75734 0.160082,-0.87727 0.319877,-1.75468 0.474159,-2.63296 0.0421,-0.2394 0.07116,-0.48156 0.09364,-0.7237 0.01818,-0.1949 0.0096,-0.38034 -0.08658,-0.57117 -0.138472,-0.27376 -0.135865,-0.58422 -0.111217,-0.88669 0.01698,-0.20765 0.03875,-0.41674 0.08419,-0.61945 0.04963,-0.22113 0.06087,-0.40877 -0.07307,-0.62366 -0.151088,-0.2423 -0.09603,-0.54042 -0.06195,-0.81752 0.01567,-0.12645 0.05525,-0.25058 0.06278,-0.37687 0.0048,-0.0712 -0.01244,-0.16632 -0.05812,-0.21373 -0.158491,-0.1643 -0.207212,-0.36846 -0.204605,-0.57581 0.0072,-0.55492 0.0012,-1.11347 0.06279,-1.66362 0.158634,-1.41638 0.379181,-2.82377 0.734587,-4.2071 0.03289,-0.12804 0.04532,-0.27696 0.01483,-0.4034 -0.222005,-0.91584 -0.341199,-1.84588 -0.389334,-2.78433 -0.08395,-1.63883 0.192849,-3.21095 0.940771,-4.68244 0.423417,-0.83305 1.019234,-1.54356 1.634328,-2.24073 1.126816,-1.27747 2.234784,-2.57177 3.361887,-3.84895 1.050255,-1.19019 2.09166,-2.38951 3.180782,-3.54343 0.93063,-0.98603 1.925204,-1.91447 3.067817,-2.65848 0.512726,-0.33394 1.048521,-0.64323 1.603725,-0.89858 0.92556,-0.42574 1.876926,-0.79462 2.813488,-1.19686 0.318717,-0.13674 0.668754,-0.25042 0.925559,-0.46792 0.271874,-0.23012 0.201843,-0.6412 0.283773,-0.97167 0.103206,-0.41557 0.177626,-0.8384 0.262737,-1.25861 0.06637,-0.32829 0.219386,-0.5484 0.567247,-0.67267 0.261876,-0.0936 0.531729,-0.26159 0.548986,-0.63018 0.01196,-0.25246 0.172268,-0.44429 0.35482,-0.618 0.08599,-0.0817 0.141665,-0.19953 0.195899,-0.30857 0.0409,-0.0818 0.06123,-0.17473 0.08407,-0.26434 0.09184,-0.35903 0.2362,-0.67978 0.585221,-0.82043"
       id="path7180" /><path
       style="fill:#502d16;fill-opacity:1;fill-rule:nonzero;stroke:#28170b;stroke-width:1.63128;stroke-dasharray:none;stroke-opacity:1"
       d="m 163.91852,132.44791 c 0.0668,-0.36961 0.11731,-0.71356 0.19329,-1.05156 0.10057,-0.44835 0.31393,-0.80274 0.79693,-0.83739 0.1266,-0.26854 0.19836,-0.54129 0.36164,-0.73821 0.23114,-0.27854 0.51984,-0.50649 0.60321,-0.88524 0.0108,-0.0507 0.0592,-0.11206 0.10596,-0.1334 0.27565,-0.12441 0.34076,-0.36919 0.41065,-0.63151 0.0662,-0.24926 0.21243,-0.45733 0.44863,-0.59639 0.0795,-0.0469 0.13094,-0.1463 0.18619,-0.22765 0.0648,-0.0953 0.10835,-0.20663 0.18096,-0.29435 0.23766,-0.28711 0.4962,-0.53912 0.65005,-0.90758 0.1785,-0.42718 0.60858,-0.49084 1.15871,-0.27449 0.25463,-0.22838 0.5516,-0.39426 0.93092,-0.3525 0.15226,-0.35714 0.37454,-0.62032 0.78113,-0.66977 0.0588,-0.007 0.1178,-0.0689 0.16371,-0.11756 0.1753,-0.18604 0.38774,-0.23302 0.6341,-0.2033 0.0942,0.0108 0.21402,0.0121 0.2871,-0.036 0.35671,-0.23388 0.69573,-0.20649 1.0359,0.025 0.0285,0.0194 0.0609,0.0329 0.11672,0.0628 0.0492,-0.1032 0.0997,-0.20212 0.14384,-0.30378 0.1972,-0.45559 0.58016,-0.58189 1.01676,-0.33321 0.0491,0.028 0.0977,0.0571 0.14457,0.0845 0.53173,-0.57682 0.89104,-0.51099 1.3449,-0.0868 0.31523,-0.23607 0.6602,-0.23534 1.01559,-0.0771 0.10991,-0.22722 0.16661,-0.49128 0.32916,-0.63699 0.15023,-0.13472 0.41412,-0.14299 0.65976,-0.14995 0.0191,-0.0395 0.0407,-0.0779 0.0568,-0.11851 0.18981,-0.47357 0.63135,-0.59364 1.02894,-0.27217 0.13369,0.10799 0.251,0.23636 0.37324,0.35309 0.031,-0.0204 0.0567,-0.0286 0.0676,-0.0459 0.34351,-0.54984 0.86842,-0.57884 1.26297,-0.0616 0.14661,0.19198 0.27276,0.39948 0.42037,0.61771 0.22548,-0.1624 0.45096,-0.34845 0.72834,-0.23129 0.22824,0.0963 0.43154,0.25203 0.6879,0.40688 0.54116,-0.25926 0.93353,0.0599 1.28603,0.50316 0.0703,-0.0176 0.13659,-0.0292 0.19952,-0.0506 0.28884,-0.0984 0.56537,-0.0526 0.78085,0.14688 0.32973,0.30539 0.63554,0.63715 0.94105,0.96747 0.11624,0.12571 0.20345,0.27826 0.32206,0.44414 0.50273,-0.25724 0.86813,-0.0108 1.19729,0.33756 0.0848,0.0898 0.16138,0.15095 0.2971,0.12616 0.27957,-0.0512 0.5023,0.067 0.6702,0.28015 0.15009,0.19038 0.2832,0.39454 0.41994,0.59523 0.0782,0.1148 0.14877,0.23476 0.23606,0.37382 0.48938,-0.15342 0.7862,0.11373 1.0169,0.49808 0.10548,0.17574 0.22722,0.29783 0.44415,0.34655 0.13398,0.0301 0.27318,0.13877 0.36134,0.25057 0.20693,0.26276 0.39035,0.54493 0.57117,0.82697 0.0701,0.1093 0.14095,0.18778 0.26188,0.25491 0.14195,0.0789 0.2423,0.23388 0.35671,0.35946 0.0216,0.0237 0.0317,0.0633 0.0358,0.0967 0.0775,0.65251 0.43284,1.18888 0.73503,1.74642 0.0517,0.0951 0.13092,0.19024 0.22142,0.24723 0.90045,0.56724 1.86531,0.65555 2.87293,0.35437 0.64395,-0.19256 1.28515,-0.39497 1.95478,-0.4801 0.19474,-0.0247 0.39208,-0.0445 0.58813,-0.0436 2.36949,0.01 4.66154,0.41093 6.81918,1.42102 1.21324,0.56783 2.31598,1.31489 3.32637,2.19679 0.74429,0.64962 1.39738,1.38637 2.06555,2.11023 1.01386,1.09854 2.03164,2.19403 3.07188,3.26749 0.80608,0.83188 1.63376,1.64433 2.47941,2.43605 1.38883,1.30037 2.84481,2.52245 4.43113,3.57895 1.06375,0.70848 2.17432,1.33475 3.40003,1.72001 0.75821,0.23811 1.53558,0.34788 2.3312,0.17474 0.52565,-0.11445 0.96659,-0.37774 1.35868,-0.73473 0.57885,-0.52708 0.96006,-1.1912 1.25659,-1.89939 0.22301,-0.53274 0.37629,-1.09434 0.57378,-1.63824 0.0725,-0.19996 -0.0146,-0.35526 -0.0738,-0.52969 -0.0594,-0.17429 -0.0743,-0.35991 -0.29798,-0.4253 -0.082,-0.0238 -0.19488,-0.10009 -0.20953,-0.17009 -0.0802,-0.3812 -0.50996,-0.50098 -0.61727,-0.8442 -0.0648,-0.20677 -0.0798,-0.43138 -0.0975,-0.64947 -0.012,-0.14094 -0.012,-0.26332 -0.14312,-0.36554 -0.15443,-0.11993 -0.20866,-0.30842 -0.20359,-0.49897 0.007,-0.26535 0.0281,-0.53085 0.0568,-0.79475 0.0166,-0.15356 -10e-4,-0.26043 -0.10787,-0.40209 -0.22069,-0.29306 -0.29131,-0.68442 -0.56914,-0.95093 0.004,-0.22911 -0.004,-0.45908 0.0151,-0.68688 0.0122,-0.14689 0.063,-0.29045 0.0957,-0.43138 -0.62438,-0.35845 -0.62729,-0.74938 -0.23824,-1.46192 -0.23911,-0.33322 -0.17952,-0.6934 -0.0144,-1.04069 0.1985,-0.41717 0.4163,-0.82535 0.63626,-1.23179 0.0674,-0.12471 0.11964,-0.21968 0.0715,-0.3815 -0.0454,-0.15328 -0.0173,-0.34453 0.0274,-0.50533 0.11373,-0.4079 0.33915,-0.75954 0.62003,-1.07476 0.11062,-0.12414 0.18473,-0.24158 0.14834,-0.4327 -0.0431,-0.22592 0.0662,-0.43008 0.22142,-0.59842 0.21155,-0.22997 0.42268,-0.46053 0.64366,-0.68123 0.10596,-0.10572 0.23433,-0.18908 0.35714,-0.28638 -0.29421,-0.49533 -0.11851,-0.86856 0.18734,-1.18698 0.40036,-0.41661 0.82971,-0.80551 1.27399,-1.23298 -0.11647,-0.51679 0.25927,-0.84145 0.61322,-1.15321 0.43415,-0.38251 0.90293,-0.72457 1.52645,-0.9022 -0.18473,-0.33685 -0.33046,-0.65107 -0.51954,-0.93643 -0.30698,-0.46343 -0.62844,-0.91887 -0.9692,-1.35794 -0.37063,-0.47707 -0.64281,-0.98689 -0.70718,-1.59663 -0.0427,-0.40296 -0.11098,-0.80361 -0.14428,-1.2073 -0.0336,-0.40484 0.16357,-0.6438 0.59249,-0.78359 1.10578,-0.36004 2.17996,-0.24302 3.20586,0.26261 0.4221,0.20807 0.79867,0.5091 1.19525,0.76851 0.0477,0.0312 0.092,0.0677 0.14907,0.11014 0.0878,-0.0621 0.17138,-0.11978 0.25346,-0.17966 0.93483,-0.68224 1.99901,-0.99632 3.13481,-1.1271 0.9576,-0.11026 1.89113,0.0397 2.8319,0.18298 0.73197,0.11158 1.47193,0.17836 2.21086,0.23158 0.54405,0.0391 1.03082,-0.1295 1.50441,-0.4295 1.59342,-1.00994 3.28329,-1.81341 5.13932,-2.22463 1.53109,-0.33916 3.02172,-0.24144 4.43839,0.46401 0.6905,0.34395 1.27675,0.83724 1.78512,1.42074 0.24332,0.27942 0.49186,0.55449 0.74662,0.82347 0.40993,0.43254 0.75329,0.90887 0.99878,1.45379 0.22897,0.50809 0.24448,1.03329 0.11373,1.56459 -0.0592,0.24069 -0.18719,0.45167 -0.39542,0.59682 -0.13993,0.0975 -0.18908,0.22171 -0.1753,0.38629 0.0183,0.21925 0.012,0.44153 0.0433,0.65845 0.0846,0.57914 -0.12905,1.01893 -0.59727,1.34853 -0.60713,0.42703 -1.28762,0.69282 -2.00814,0.83289 -0.50954,0.0989 -1.03271,0.13355 -1.55167,0.17213 -0.18372,0.0138 -0.3032,0.0685 -0.39209,0.22634 -0.0795,0.14095 -0.16603,0.28116 -0.26957,0.40499 -0.4044,0.48315 -0.74429,0.9956 -0.90945,1.61781 -0.0767,0.2887 -0.28145,0.49824 -0.59001,0.58988 -0.075,0.0224 -0.14268,0.10691 -0.18967,0.1785 -0.16023,0.24374 -0.31799,0.46429 -0.6238,0.57115 -0.17718,0.0619 -0.26709,0.24854 -0.32118,0.47939 -0.1308,0.55796 -0.0428,1.16306 -0.36018,1.68189 -0.0558,0.0909 -0.0506,0.22068 -0.0677,0.33349 -0.0503,0.33134 -0.0794,0.66717 -0.15399,0.99284 -0.037,0.16153 -0.12571,0.33655 -0.24505,0.44763 -0.14211,0.13224 -0.19604,0.27913 -0.22229,0.45226 -0.0572,0.37787 -0.17285,0.70195 -0.5339,0.92438 -0.18662,0.11517 -0.30131,0.34221 -0.52941,0.43401 -0.0547,0.022 -0.078,0.1331 -0.10655,0.20676 -0.16327,0.42298 -0.38832,0.56363 -0.82564,0.48446 -0.13442,-0.0243 -0.22157,0.006 -0.30277,0.10536 -0.0948,0.11576 -0.19561,0.22649 -0.30654,0.35395 0.0959,0.18154 0.19097,0.35119 0.27638,0.52564 0.1321,0.26969 0.18807,0.54215 0.0393,0.83057 -0.038,0.0737 -0.0435,0.17473 -0.0341,0.25984 0.0205,0.18401 0.0435,0.37063 0.0953,0.54753 0.12296,0.42065 0.0688,0.78027 -0.31886,1.04213 0.11277,0.68833 0.18328,1.35926 -0.47937,1.85937 0,0.26202 0.0183,0.53985 -0.005,0.8142 -0.0244,0.2871 -0.20967,0.48141 -0.47735,0.62307 0.0108,0.20605 0.0354,0.41355 0.0283,0.61989 -0.008,0.24143 -0.0312,0.48431 -0.0744,0.72167 -0.0194,0.10668 -0.0792,0.23853 -0.16342,0.29465 -0.2117,0.14109 -0.20227,0.33365 -0.21198,0.54695 -0.0108,0.25259 -0.048,0.50765 -0.10847,0.753 -0.0337,0.13776 -0.11469,0.28262 -0.21692,0.37961 -0.10512,0.0996 -0.14588,0.18184 -0.12789,0.32597 0.0818,0.66006 -0.0566,0.91048 -0.63237,1.18554 -0.0725,0.61583 0.0366,1.31721 -0.75445,1.59068 -0.0255,0.22331 -0.0448,0.44212 -0.0769,0.65919 -0.0447,0.30189 -0.18546,0.55101 -0.45676,0.70268 -0.11576,0.0647 -0.15776,0.15139 -0.183,0.27203 -0.093,0.44342 -0.31755,0.76562 -0.80085,0.84741 -0.0557,0.01 -0.11385,0.0701 -0.1492,0.12164 -0.21113,0.30915 -0.2091,0.3106 -0.5848,0.43226 -0.23011,0.56928 -0.45458,1.13856 -0.68963,1.70335 -0.44748,1.07519 -1.03691,2.07107 -1.71611,3.01432 -0.95368,1.32387 -2.05396,2.51115 -3.34375,3.51413 -1.31344,1.0214 -2.72099,1.89157 -4.25845,2.53668 -0.76836,0.32219 -1.54428,0.6299 -2.32932,0.90887 -1.44394,0.51317 -2.93079,0.86524 -4.44317,1.11116 -1.20338,0.19576 -2.41357,0.29697 -3.63305,0.29726 -1.61736,3.2e-4 -3.215,-0.17183 -4.79117,-0.53332 -0.54013,-0.12384 -1.07621,-0.26638 -1.63969,-0.40659 -0.0532,0.0734 -0.12022,0.15153 -0.17197,0.23853 -1.20411,2.02989 -2.7942,3.71772 -4.61747,5.19675 -0.14211,0.11529 -0.18822,0.25129 -0.22795,0.40891 -0.40107,1.59488 -0.77503,3.19745 -1.21439,4.7819 -0.4208,1.51702 -0.90786,3.01592 -1.37041,4.52134 -0.38789,1.26166 -0.81956,2.51144 -1.16453,3.78456 -0.42239,1.55936 -0.70732,3.14961 -0.56217,4.77582 0.0804,0.89872 0.23577,1.79077 0.36511,2.68487 0.13935,0.96281 0.30698,1.92201 0.42617,2.88728 0.0985,0.7981 0.0683,1.59866 -0.15023,2.38022 -0.18401,0.65802 -0.3828,1.3117 -0.57058,1.96871 -0.22069,0.77199 -0.34149,1.56053 -0.38571,2.3621 -0.0801,1.45786 0.13152,2.88962 0.3976,4.31441 0.20446,1.09521 0.3338,2.19635 0.40441,3.30838 0.0866,1.36361 0.12919,2.73301 0.39296,4.08051 0.11863,0.60496 0.31031,1.1815 0.56043,1.74744 0.26159,0.59146 0.49925,1.2012 0.66615,1.82441 0.11851,0.44212 0.36859,0.62846 0.77504,0.72342 0.51824,0.12109 1.03125,0.2658 1.54442,0.40747 0.58841,0.16254 1.11913,0.44399 1.60126,0.81462 0.55377,0.42573 0.90656,0.98355 1.06375,1.66405 0.068,0.29421 -0.0476,0.5207 -0.26812,0.70486 -0.22156,0.18503 -0.4917,0.2507 -0.76547,0.30842 -0.78809,0.16632 -1.58995,0.1695 -2.38833,0.1753 -0.91598,0.007 -1.83414,0.007 -2.74766,-0.05 -1.35185,-0.0844 -2.70459,-0.19154 -4.02527,-0.52707 -0.0217,-0.006 -0.0458,-7.7e-4 -0.10464,-7.7e-4 0,0.19097 0.002,0.38093 -4.3e-4,0.57073 -0.007,0.52955 -0.18314,0.74619 -0.70022,0.88582 -0.59785,0.16154 -1.21005,0.21258 -1.82428,0.21476 -1.11318,0.005 -2.22811,0.0219 -3.33926,-0.0304 -1.30647,-0.0612 -2.61048,-0.17081 -3.89579,-0.45139 -0.68339,-0.14921 -1.15712,-0.54984 -1.55428,-1.0865 -0.51157,-0.69152 -0.72284,-1.49657 -0.87568,-2.32077 -0.20676,-1.11666 -0.19125,-2.24217 -0.0227,-3.35782 0.1988,-1.31691 0.45691,-2.62485 0.6789,-3.93828 0.25695,-1.52021 0.46445,-3.0481 0.5368,-4.58875 0.0478,-1.01806 0.0763,-2.04019 0.0416,-3.05825 -0.0573,-1.68421 -0.34293,-3.33564 -0.79389,-4.96361 -0.39252,-1.41696 -0.77025,-2.83915 -1.01937,-4.2925 -0.20721,-1.20918 -0.23446,-2.4143 -0.11193,-3.63435 0.12383,-1.23296 0.22026,-2.47055 0.27044,-3.70844 0.0545,-1.34317 0.0737,-2.68966 0.0486,-4.03369 -0.0225,-1.2041 -0.12529,-2.40661 -0.19576,-3.60969 -0.005,-0.0899 -0.0346,-0.17864 -0.0565,-0.28652 -0.10141,0.005 -0.19285,-5.5e-4 -0.28058,0.0155 -1.72394,0.31379 -3.46425,0.48938 -5.20921,0.62975 -1.4235,0.11444 -2.8496,0.14587 -4.27526,0.1044 -1.36753,-0.0397 -2.72867,-0.1698 -4.08313,-0.37642 -1.67856,-0.25593 -3.31462,-0.6718 -4.89951,-1.27545 -1.01878,-0.38788 -1.99479,-0.87205 -2.92731,-1.44104 -1.22222,-0.74575 -2.34454,-1.61969 -3.38131,-2.60541 -0.0496,-0.0471 -0.10165,-0.092 -0.17589,-0.15893 -0.0408,0.0893 -0.0806,0.15414 -0.10081,0.22446 -0.22983,0.80114 -0.63976,1.51094 -1.10014,2.1971 -0.71704,1.06823 -1.43132,2.13821 -2.14241,3.21036 -0.64686,0.97543 -1.30837,1.94202 -1.92376,2.93688 -0.38903,0.62902 -0.73559,1.28893 -1.0472,1.96 -0.40355,0.86944 -0.5861,1.80833 -0.66948,2.75694 -0.10559,1.19946 -0.15544,2.40386 -0.24129,3.6052 -0.089,1.24789 -0.19285,2.49463 -0.28942,3.74194 -0.12093,1.56298 -0.14544,3.1248 0,4.68866 0.20459,2.20202 0.73241,4.33313 1.31749,6.45916 0.35569,1.29284 0.57276,2.62353 0.85914,3.93566 0.1727,0.79142 0.3164,1.59255 0.54913,2.36658 0.30494,1.01444 0.9834,1.76947 1.85198,2.36137 0.70486,0.48039 1.48366,0.80723 2.27276,1.11579 0.51737,0.20214 1.03923,0.39615 1.54414,0.62685 1.45422,0.66426 2.31222,1.81022 2.65312,3.35769 0.0878,0.39832 -0.0994,0.72878 -0.51608,0.85566 -0.28593,0.0868 -0.58711,0.13587 -0.88494,0.16704 -0.4021,0.0421 -0.80782,0.0505 -1.23485,0.0746 -0.0716,0.55768 -0.46908,0.73139 -0.93976,0.8284 -0.8442,0.17429 -1.70074,0.20518 -2.5577,0.24621 -1.65941,0.0793 -3.31636,0.0252 -4.96997,-0.10428 -0.71501,-0.0561 -1.42638,-0.16849 -2.13574,-0.27942 -0.21185,-0.033 -0.42413,-0.12383 -0.6138,-0.22881 -0.89191,-0.49359 -1.5885,-1.16524 -1.86517,-2.18287 -0.0691,-0.25492 -0.0767,-0.52622 -0.12499,-0.78736 -0.15616,-0.84276 -0.28522,-1.69219 -0.48489,-2.52465 -0.39687,-1.65535 -0.80303,-3.30954 -1.26384,-4.94778 -0.39817,-1.41537 -0.88177,-2.80378 -1.51499,-4.13954 -0.82361,-1.73698 -1.5885,-3.50166 -2.39892,-5.24503 -0.51258,-1.1029 -1.05634,-2.19144 -1.59662,-3.28098 -0.45256,-0.91309 -0.94209,-1.80863 -1.37144,-2.73215 -0.18778,-0.40412 -0.29596,-0.85291 -0.38715,-1.29241 -0.11816,-0.56971 0.019,-1.12696 0.18167,-1.67507 0.23868,-0.80448 0.64904,-1.535 0.984,-2.29814 0.67484,-1.53732 1.35446,-3.07262 2.01713,-4.61545 0.17328,-0.40324 0.30538,-0.82607 0.42936,-1.24788 0.0743,-0.25274 0.13861,-0.52158 0.13397,-0.782 -0.0163,-0.92541 -0.064,-1.85024 -0.13224,-2.78609 -0.2726,0.24839 -0.46836,0.56741 -0.8793,0.60394 -0.0387,0.19488 -0.0597,0.37889 -0.11373,0.55261 -0.0682,0.21953 -0.13717,0.44603 -0.25215,0.64265 -0.2932,0.50112 -0.6515,0.60452 -1.26443,0.38367 -0.19155,0.41008 -0.56971,0.64281 -0.90945,0.92178 -0.54347,0.44618 -0.91787,1.00198 -1.00153,1.7254 -0.0554,0.47923 -0.31567,0.715 -0.71443,0.67354 -0.25521,-0.0267 -0.44748,-0.15428 -0.49925,-0.40993 -0.0407,-0.20011 -0.0682,-0.41732 -0.0343,-0.61554 0.12253,-0.71747 0.18271,-1.44858 0.43385,-2.14068 0.0636,-0.1753 0.0377,-0.35655 0.032,-0.5426 -0.0108,-0.35553 0.0182,-0.7208 0.0939,-1.06837 0.093,-0.42733 0.20996,-0.859 0.38962,-1.25572 0.31408,-0.69384 0.50069,-1.41494 0.63627,-2.15895 0.13906,-0.763 0.30828,-1.52064 0.47546,-2.27786 0.0443,-0.20069 0.0649,-0.36309 -0.0897,-0.54275 -0.18081,-0.20967 -0.20633,-0.48198 -0.15602,-0.75734 0.16008,-0.87727 0.31987,-1.75468 0.47416,-2.63296 0.0421,-0.2394 0.0712,-0.48156 0.0936,-0.7237 0.0182,-0.1949 0.01,-0.38034 -0.0866,-0.57117 -0.13848,-0.27376 -0.13587,-0.58422 -0.11122,-0.88669 0.017,-0.20765 0.0387,-0.41674 0.0842,-0.61945 0.0496,-0.22113 0.0609,-0.40877 -0.0731,-0.62366 -0.15109,-0.2423 -0.096,-0.54042 -0.0619,-0.81752 0.0157,-0.12645 0.0553,-0.25058 0.0628,-0.37687 0.005,-0.0712 -0.0124,-0.16632 -0.0581,-0.21373 -0.15849,-0.1643 -0.20721,-0.36846 -0.20461,-0.57581 0.007,-0.55492 0.001,-1.11347 0.0628,-1.66362 0.15864,-1.41638 0.37918,-2.82377 0.73459,-4.2071 0.0329,-0.12804 0.0453,-0.27696 0.0148,-0.4034 -0.222,-0.91584 -0.3412,-1.84588 -0.38933,-2.78433 -0.0839,-1.63883 0.19285,-3.21095 0.94077,-4.68244 0.42341,-0.83305 1.01923,-1.54356 1.63433,-2.24073 1.12681,-1.27747 2.23478,-2.57177 3.36188,-3.84895 1.05026,-1.19019 2.09166,-2.38951 3.18078,-3.54343 0.93063,-0.98603 1.92521,-1.91447 3.06782,-2.65848 0.51273,-0.33394 1.04852,-0.64323 1.60373,-0.89858 0.92556,-0.42574 1.87692,-0.79462 2.81348,-1.19686 0.31872,-0.13674 0.66876,-0.25042 0.92556,-0.46792 0.27188,-0.23012 0.20185,-0.6412 0.28378,-0.97167 0.1032,-0.41557 0.17762,-0.8384 0.26273,-1.25861 0.0664,-0.32829 0.21939,-0.5484 0.56725,-0.67267 0.26188,-0.0936 0.53173,-0.26159 0.54899,-0.63018 0.012,-0.25246 0.17226,-0.44429 0.35482,-0.618 0.086,-0.0817 0.14166,-0.19953 0.1959,-0.30857 0.0409,-0.0818 0.0612,-0.17473 0.0841,-0.26434 0.0918,-0.35903 0.2362,-0.67978 0.58522,-0.82043"
       id="path7926" /><path
       style="fill:#502d16;fill-opacity:1;fill-rule:nonzero;stroke:#28170b;stroke-width:1.63128;stroke-dasharray:none;stroke-opacity:1"
       d="m 269.70262,132.44791 c 0.0668,-0.36961 0.11731,-0.71356 0.19329,-1.05156 0.10057,-0.44835 0.31393,-0.80274 0.79693,-0.83739 0.1266,-0.26854 0.19836,-0.54129 0.36164,-0.73821 0.23114,-0.27854 0.51984,-0.50649 0.60321,-0.88524 0.0108,-0.0507 0.0592,-0.11206 0.10596,-0.1334 0.27565,-0.12441 0.34076,-0.36919 0.41065,-0.63151 0.0662,-0.24926 0.21243,-0.45733 0.44863,-0.59639 0.0795,-0.0469 0.13094,-0.1463 0.18619,-0.22765 0.0648,-0.0953 0.10835,-0.20663 0.18096,-0.29435 0.23766,-0.28711 0.4962,-0.53912 0.65005,-0.90758 0.1785,-0.42718 0.60858,-0.49084 1.15871,-0.27449 0.25463,-0.22838 0.5516,-0.39426 0.93092,-0.3525 0.15226,-0.35714 0.37454,-0.62032 0.78113,-0.66977 0.0588,-0.007 0.1178,-0.0689 0.16371,-0.11756 0.1753,-0.18604 0.38774,-0.23302 0.6341,-0.2033 0.0942,0.0108 0.21402,0.0121 0.2871,-0.036 0.35671,-0.23388 0.69573,-0.20649 1.0359,0.025 0.0285,0.0194 0.0609,0.0329 0.11672,0.0628 0.0492,-0.1032 0.0997,-0.20212 0.14384,-0.30378 0.1972,-0.45559 0.58016,-0.58189 1.01676,-0.33321 0.0491,0.028 0.0977,0.0571 0.14457,0.0845 0.53173,-0.57682 0.89104,-0.51099 1.3449,-0.0868 0.31523,-0.23607 0.6602,-0.23534 1.01559,-0.0771 0.10991,-0.22722 0.16661,-0.49128 0.32916,-0.63699 0.15023,-0.13472 0.41412,-0.14299 0.65976,-0.14995 0.0191,-0.0395 0.0407,-0.0779 0.0568,-0.11851 0.18981,-0.47357 0.63135,-0.59364 1.02894,-0.27217 0.13369,0.10799 0.251,0.23636 0.37324,0.35309 0.031,-0.0204 0.0567,-0.0286 0.0676,-0.0459 0.34351,-0.54984 0.86842,-0.57884 1.26297,-0.0616 0.14661,0.19198 0.27276,0.39948 0.42037,0.61771 0.22548,-0.1624 0.45096,-0.34845 0.72834,-0.23129 0.22824,0.0963 0.43154,0.25203 0.6879,0.40688 0.54116,-0.25926 0.93353,0.0599 1.28603,0.50316 0.0703,-0.0176 0.13659,-0.0292 0.19952,-0.0506 0.28884,-0.0984 0.56537,-0.0526 0.78085,0.14688 0.32973,0.30539 0.63554,0.63715 0.94105,0.96747 0.11624,0.12571 0.20345,0.27826 0.32206,0.44414 0.50273,-0.25724 0.86813,-0.0108 1.19729,0.33756 0.0848,0.0898 0.16138,0.15095 0.2971,0.12616 0.27957,-0.0512 0.5023,0.067 0.6702,0.28015 0.15009,0.19038 0.2832,0.39454 0.41994,0.59523 0.0782,0.1148 0.14877,0.23476 0.23606,0.37382 0.48938,-0.15342 0.7862,0.11373 1.0169,0.49808 0.10548,0.17574 0.22722,0.29783 0.44415,0.34655 0.13398,0.0301 0.27318,0.13877 0.36134,0.25057 0.20693,0.26276 0.39035,0.54493 0.57117,0.82697 0.0701,0.1093 0.14095,0.18778 0.26188,0.25491 0.14195,0.0789 0.2423,0.23388 0.35671,0.35946 0.0216,0.0237 0.0317,0.0633 0.0358,0.0967 0.0775,0.65251 0.43284,1.18888 0.73503,1.74642 0.0517,0.0951 0.13092,0.19024 0.22142,0.24723 0.90045,0.56724 1.86531,0.65555 2.87293,0.35437 0.64395,-0.19256 1.28515,-0.39497 1.95478,-0.4801 0.19474,-0.0247 0.39208,-0.0445 0.58813,-0.0436 2.36949,0.01 4.66154,0.41093 6.81918,1.42102 1.21324,0.56783 2.31598,1.31489 3.32637,2.19679 0.74429,0.64962 1.39738,1.38637 2.06555,2.11023 1.01386,1.09854 2.03164,2.19403 3.07188,3.26749 0.80608,0.83188 1.63376,1.64433 2.47941,2.43605 1.38883,1.30037 2.84481,2.52245 4.43113,3.57895 1.06375,0.70848 2.17432,1.33475 3.40003,1.72001 0.75821,0.23811 1.53558,0.34788 2.3312,0.17474 0.52565,-0.11445 0.96659,-0.37774 1.35868,-0.73473 0.57885,-0.52708 0.96006,-1.1912 1.25659,-1.89939 0.22301,-0.53274 0.37629,-1.09434 0.57378,-1.63824 0.0725,-0.19996 -0.0146,-0.35526 -0.0738,-0.52969 -0.0594,-0.17429 -0.0743,-0.35991 -0.29798,-0.4253 -0.082,-0.0238 -0.19488,-0.10009 -0.20953,-0.17009 -0.0802,-0.3812 -0.50996,-0.50098 -0.61727,-0.8442 -0.0648,-0.20677 -0.0798,-0.43138 -0.0975,-0.64947 -0.012,-0.14094 -0.012,-0.26332 -0.14312,-0.36554 -0.15443,-0.11993 -0.20866,-0.30842 -0.20359,-0.49897 0.007,-0.26535 0.0281,-0.53085 0.0568,-0.79475 0.0166,-0.15356 -0.001,-0.26043 -0.10787,-0.40209 -0.22069,-0.29306 -0.29131,-0.68442 -0.56914,-0.95093 0.004,-0.22911 -0.004,-0.45908 0.0151,-0.68688 0.0122,-0.14689 0.063,-0.29045 0.0957,-0.43138 -0.62438,-0.35845 -0.62729,-0.74938 -0.23824,-1.46192 -0.23911,-0.33322 -0.17952,-0.6934 -0.0144,-1.04069 0.1985,-0.41717 0.4163,-0.82535 0.63626,-1.23179 0.0674,-0.12471 0.11964,-0.21968 0.0715,-0.3815 -0.0454,-0.15328 -0.0173,-0.34453 0.0274,-0.50533 0.11373,-0.4079 0.33915,-0.75954 0.62003,-1.07476 0.11062,-0.12414 0.18473,-0.24158 0.14834,-0.4327 -0.0431,-0.22592 0.0662,-0.43008 0.22142,-0.59842 0.21155,-0.22997 0.42268,-0.46053 0.64366,-0.68123 0.10596,-0.10572 0.23433,-0.18908 0.35714,-0.28638 -0.29421,-0.49533 -0.11851,-0.86856 0.18734,-1.18698 0.40036,-0.41661 0.82971,-0.80551 1.27399,-1.23298 -0.11647,-0.51679 0.25927,-0.84145 0.61322,-1.15321 0.43415,-0.38251 0.90293,-0.72457 1.52645,-0.9022 -0.18473,-0.33685 -0.33046,-0.65107 -0.51954,-0.93643 -0.30698,-0.46343 -0.62844,-0.91887 -0.9692,-1.35794 -0.37063,-0.47707 -0.64281,-0.98689 -0.70718,-1.59663 -0.0427,-0.40296 -0.11098,-0.80361 -0.14428,-1.2073 -0.0336,-0.40484 0.16357,-0.6438 0.59249,-0.78359 1.10578,-0.36004 2.17996,-0.24302 3.20586,0.26261 0.4221,0.20807 0.79867,0.5091 1.19525,0.76851 0.0477,0.0312 0.092,0.0677 0.14907,0.11014 0.0878,-0.0621 0.17138,-0.11978 0.25346,-0.17966 0.93483,-0.68224 1.99901,-0.99632 3.13481,-1.1271 0.9576,-0.11026 1.89113,0.0397 2.8319,0.18298 0.73197,0.11158 1.47193,0.17836 2.21086,0.23158 0.54405,0.0391 1.03082,-0.1295 1.50441,-0.4295 1.59342,-1.00994 3.28329,-1.81341 5.13932,-2.22463 1.53109,-0.33916 3.02172,-0.24144 4.43839,0.46401 0.6905,0.34395 1.27675,0.83724 1.78512,1.42074 0.24332,0.27942 0.49186,0.55449 0.74662,0.82347 0.40993,0.43254 0.75329,0.90887 0.99878,1.45379 0.22897,0.50809 0.24448,1.03329 0.11373,1.56459 -0.0592,0.24069 -0.18719,0.45167 -0.39542,0.59682 -0.13993,0.0975 -0.18908,0.22171 -0.1753,0.38629 0.0183,0.21925 0.012,0.44153 0.0433,0.65845 0.0846,0.57914 -0.12905,1.01893 -0.59727,1.34853 -0.60713,0.42703 -1.28762,0.69282 -2.00814,0.83289 -0.50954,0.0989 -1.03271,0.13355 -1.55167,0.17213 -0.18372,0.0138 -0.3032,0.0685 -0.39209,0.22634 -0.0795,0.14095 -0.16603,0.28116 -0.26957,0.40499 -0.4044,0.48315 -0.74429,0.9956 -0.90945,1.61781 -0.0767,0.2887 -0.28145,0.49824 -0.59001,0.58988 -0.075,0.0224 -0.14268,0.10691 -0.18967,0.1785 -0.16023,0.24374 -0.31799,0.46429 -0.6238,0.57115 -0.17718,0.0619 -0.26709,0.24854 -0.32118,0.47939 -0.1308,0.55796 -0.0428,1.16306 -0.36018,1.68189 -0.0558,0.0909 -0.0506,0.22068 -0.0677,0.33349 -0.0503,0.33134 -0.0794,0.66717 -0.15399,0.99284 -0.037,0.16153 -0.12571,0.33655 -0.24505,0.44763 -0.14211,0.13224 -0.19604,0.27913 -0.22229,0.45226 -0.0572,0.37787 -0.17285,0.70195 -0.5339,0.92438 -0.18662,0.11517 -0.30131,0.34221 -0.52941,0.43401 -0.0547,0.022 -0.078,0.1331 -0.10655,0.20676 -0.16327,0.42298 -0.38832,0.56363 -0.82564,0.48446 -0.13442,-0.0243 -0.22157,0.006 -0.30277,0.10536 -0.0948,0.11576 -0.19561,0.22649 -0.30654,0.35395 0.0959,0.18154 0.19097,0.35119 0.27638,0.52564 0.1321,0.26969 0.18807,0.54215 0.0393,0.83057 -0.038,0.0737 -0.0435,0.17473 -0.0341,0.25984 0.0205,0.18401 0.0435,0.37063 0.0953,0.54753 0.12296,0.42065 0.0688,0.78027 -0.31886,1.04213 0.11277,0.68833 0.18328,1.35926 -0.47937,1.85937 0,0.26202 0.0183,0.53985 -0.005,0.8142 -0.0244,0.2871 -0.20967,0.48141 -0.47735,0.62307 0.0108,0.20605 0.0354,0.41355 0.0283,0.61989 -0.008,0.24143 -0.0312,0.48431 -0.0744,0.72167 -0.0194,0.10668 -0.0792,0.23853 -0.16342,0.29465 -0.2117,0.14109 -0.20227,0.33365 -0.21198,0.54695 -0.0108,0.25259 -0.048,0.50765 -0.10847,0.753 -0.0337,0.13776 -0.11469,0.28262 -0.21692,0.37961 -0.10512,0.0996 -0.14588,0.18184 -0.12789,0.32597 0.0818,0.66006 -0.0566,0.91048 -0.63237,1.18554 -0.0725,0.61583 0.0366,1.31721 -0.75445,1.59068 -0.0255,0.22331 -0.0448,0.44212 -0.0769,0.65919 -0.0447,0.30189 -0.18546,0.55101 -0.45676,0.70268 -0.11576,0.0647 -0.15776,0.15139 -0.183,0.27203 -0.093,0.44342 -0.31755,0.76562 -0.80085,0.84741 -0.0557,0.01 -0.11385,0.0701 -0.1492,0.12164 -0.21113,0.30915 -0.2091,0.3106 -0.5848,0.43226 -0.23011,0.56928 -0.45458,1.13856 -0.68963,1.70335 -0.44748,1.07519 -1.03691,2.07107 -1.71611,3.01432 -0.95368,1.32387 -2.05396,2.51115 -3.34375,3.51413 -1.31344,1.0214 -2.72099,1.89157 -4.25845,2.53668 -0.76836,0.32219 -1.54428,0.6299 -2.32932,0.90887 -1.44394,0.51317 -2.93079,0.86524 -4.44317,1.11116 -1.20338,0.19576 -2.41357,0.29697 -3.63305,0.29726 -1.61736,3.2e-4 -3.215,-0.17183 -4.79117,-0.53332 -0.54013,-0.12384 -1.07621,-0.26638 -1.63969,-0.40659 -0.0532,0.0734 -0.12022,0.15153 -0.17197,0.23853 -1.20411,2.02989 -2.7942,3.71772 -4.61747,5.19675 -0.14211,0.11529 -0.18822,0.25129 -0.22795,0.40891 -0.40107,1.59488 -0.77503,3.19745 -1.21439,4.7819 -0.4208,1.51702 -0.90786,3.01592 -1.37041,4.52134 -0.38789,1.26166 -0.81956,2.51144 -1.16453,3.78456 -0.42239,1.55936 -0.70732,3.14961 -0.56217,4.77582 0.0804,0.89872 0.23577,1.79077 0.36511,2.68487 0.13935,0.96281 0.30698,1.92201 0.42617,2.88728 0.0985,0.7981 0.0683,1.59866 -0.15023,2.38022 -0.18401,0.65802 -0.3828,1.3117 -0.57058,1.96871 -0.22069,0.77199 -0.34149,1.56053 -0.38571,2.3621 -0.0801,1.45786 0.13152,2.88962 0.3976,4.31441 0.20446,1.09521 0.3338,2.19635 0.40441,3.30838 0.0866,1.36361 0.12919,2.73301 0.39296,4.08051 0.11863,0.60496 0.31031,1.1815 0.56043,1.74744 0.26159,0.59146 0.49925,1.2012 0.66615,1.82441 0.11851,0.44212 0.36859,0.62846 0.77504,0.72342 0.51824,0.12109 1.03125,0.2658 1.54442,0.40747 0.58841,0.16254 1.11913,0.44399 1.60126,0.81462 0.55377,0.42573 0.90656,0.98355 1.06375,1.66405 0.068,0.29421 -0.0476,0.5207 -0.26812,0.70486 -0.22156,0.18503 -0.4917,0.2507 -0.76547,0.30842 -0.78809,0.16632 -1.58995,0.1695 -2.38833,0.1753 -0.91598,0.007 -1.83414,0.007 -2.74766,-0.05 -1.35185,-0.0844 -2.70459,-0.19154 -4.02527,-0.52707 -0.0217,-0.006 -0.0458,-7.7e-4 -0.10464,-7.7e-4 0,0.19097 0.002,0.38093 -4.3e-4,0.57073 -0.007,0.52955 -0.18314,0.74619 -0.70022,0.88582 -0.59785,0.16154 -1.21005,0.21258 -1.82428,0.21476 -1.11318,0.005 -2.22811,0.0219 -3.33926,-0.0304 -1.30647,-0.0612 -2.61048,-0.17081 -3.89579,-0.45139 -0.68339,-0.14921 -1.15712,-0.54984 -1.55428,-1.0865 -0.51157,-0.69152 -0.72284,-1.49657 -0.87568,-2.32077 -0.20676,-1.11666 -0.19125,-2.24217 -0.0227,-3.35782 0.1988,-1.31691 0.45691,-2.62485 0.6789,-3.93828 0.25695,-1.52021 0.46445,-3.0481 0.5368,-4.58875 0.0478,-1.01806 0.0763,-2.04019 0.0416,-3.05825 -0.0573,-1.68421 -0.34293,-3.33564 -0.79389,-4.96361 -0.39252,-1.41696 -0.77025,-2.83915 -1.01937,-4.2925 -0.20721,-1.20918 -0.23446,-2.4143 -0.11193,-3.63435 0.12383,-1.23296 0.22026,-2.47055 0.27044,-3.70844 0.0545,-1.34317 0.0737,-2.68966 0.0486,-4.03369 -0.0225,-1.2041 -0.12529,-2.40661 -0.19576,-3.60969 -0.005,-0.0899 -0.0346,-0.17864 -0.0565,-0.28652 -0.10141,0.005 -0.19285,-5.5e-4 -0.28058,0.0155 -1.72394,0.31379 -3.46425,0.48938 -5.20921,0.62975 -1.4235,0.11444 -2.8496,0.14587 -4.27526,0.1044 -1.36753,-0.0397 -2.72867,-0.1698 -4.08313,-0.37642 -1.67856,-0.25593 -3.31462,-0.6718 -4.89951,-1.27545 -1.01878,-0.38788 -1.99479,-0.87205 -2.92731,-1.44104 -1.22222,-0.74575 -2.34454,-1.61969 -3.38131,-2.60541 -0.0496,-0.0471 -0.10165,-0.092 -0.17589,-0.15893 -0.0408,0.0893 -0.0806,0.15414 -0.10081,0.22446 -0.22983,0.80114 -0.63976,1.51094 -1.10014,2.1971 -0.71704,1.06823 -1.43132,2.13821 -2.14241,3.21036 -0.64686,0.97543 -1.30837,1.94202 -1.92376,2.93688 -0.38903,0.62902 -0.73559,1.28893 -1.0472,1.96 -0.40355,0.86944 -0.5861,1.80833 -0.66948,2.75694 -0.10559,1.19946 -0.15544,2.40386 -0.24129,3.6052 -0.089,1.24789 -0.19285,2.49463 -0.28942,3.74194 -0.12093,1.56298 -0.14544,3.1248 0,4.68866 0.20459,2.20202 0.73241,4.33313 1.31749,6.45916 0.35569,1.29284 0.57276,2.62353 0.85914,3.93566 0.1727,0.79142 0.3164,1.59255 0.54913,2.36658 0.30494,1.01444 0.9834,1.76947 1.85198,2.36137 0.70486,0.48039 1.48366,0.80723 2.27276,1.11579 0.51737,0.20214 1.03923,0.39615 1.54414,0.62685 1.45422,0.66426 2.31222,1.81022 2.65312,3.35769 0.0878,0.39832 -0.0994,0.72878 -0.51608,0.85566 -0.28593,0.0868 -0.58711,0.13587 -0.88494,0.16704 -0.4021,0.0421 -0.80782,0.0505 -1.23485,0.0746 -0.0716,0.55768 -0.46908,0.73139 -0.93976,0.8284 -0.8442,0.17429 -1.70074,0.20518 -2.5577,0.24621 -1.65941,0.0793 -3.31636,0.0252 -4.96997,-0.10428 -0.71501,-0.0561 -1.42638,-0.16849 -2.13574,-0.27942 -0.21185,-0.033 -0.42413,-0.12383 -0.6138,-0.22881 -0.89191,-0.49359 -1.5885,-1.16524 -1.86517,-2.18287 -0.0691,-0.25492 -0.0767,-0.52622 -0.12499,-0.78736 -0.15616,-0.84276 -0.28522,-1.69219 -0.48489,-2.52465 -0.39687,-1.65535 -0.80303,-3.30954 -1.26384,-4.94778 -0.39817,-1.41537 -0.88177,-2.80378 -1.51499,-4.13954 -0.82361,-1.73698 -1.5885,-3.50166 -2.39892,-5.24503 -0.51258,-1.1029 -1.05634,-2.19144 -1.59662,-3.28098 -0.45256,-0.91309 -0.94209,-1.80863 -1.37144,-2.73215 -0.18778,-0.40412 -0.29596,-0.85291 -0.38715,-1.29241 -0.11816,-0.56971 0.019,-1.12696 0.18167,-1.67507 0.23868,-0.80448 0.64904,-1.535 0.984,-2.29814 0.67484,-1.53732 1.35446,-3.07262 2.01713,-4.61545 0.17328,-0.40324 0.30538,-0.82607 0.42936,-1.24788 0.0743,-0.25274 0.13861,-0.52158 0.13397,-0.782 -0.0163,-0.92541 -0.064,-1.85024 -0.13224,-2.78609 -0.2726,0.24839 -0.46836,0.56741 -0.8793,0.60394 -0.0387,0.19488 -0.0597,0.37889 -0.11373,0.55261 -0.0682,0.21953 -0.13717,0.44603 -0.25215,0.64265 -0.2932,0.50112 -0.6515,0.60452 -1.26443,0.38367 -0.19155,0.41008 -0.56971,0.64281 -0.90945,0.92178 -0.54347,0.44618 -0.91787,1.00198 -1.00153,1.7254 -0.0554,0.47923 -0.31567,0.715 -0.71443,0.67354 -0.25521,-0.0267 -0.44748,-0.15428 -0.49925,-0.40993 -0.0407,-0.20011 -0.0682,-0.41732 -0.0343,-0.61554 0.12253,-0.71747 0.18271,-1.44858 0.43385,-2.14068 0.0636,-0.1753 0.0377,-0.35655 0.032,-0.5426 -0.0108,-0.35553 0.0182,-0.7208 0.0939,-1.06837 0.093,-0.42733 0.20996,-0.859 0.38962,-1.25572 0.31408,-0.69384 0.50069,-1.41494 0.63627,-2.15895 0.13906,-0.763 0.30828,-1.52064 0.47546,-2.27786 0.0443,-0.20069 0.0649,-0.36309 -0.0897,-0.54275 -0.18081,-0.20967 -0.20633,-0.48198 -0.15602,-0.75734 0.16008,-0.87727 0.31987,-1.75468 0.47416,-2.63296 0.0421,-0.2394 0.0712,-0.48156 0.0936,-0.7237 0.0182,-0.1949 0.01,-0.38034 -0.0866,-0.57117 -0.13848,-0.27376 -0.13587,-0.58422 -0.11122,-0.88669 0.017,-0.20765 0.0387,-0.41674 0.0842,-0.61945 0.0496,-0.22113 0.0609,-0.40877 -0.0731,-0.62366 -0.15109,-0.2423 -0.096,-0.54042 -0.0619,-0.81752 0.0157,-0.12645 0.0553,-0.25058 0.0628,-0.37687 0.005,-0.0712 -0.0124,-0.16632 -0.0581,-0.21373 -0.15849,-0.1643 -0.20721,-0.36846 -0.20461,-0.57581 0.007,-0.55492 0.001,-1.11347 0.0628,-1.66362 0.15864,-1.41638 0.37918,-2.82377 0.73459,-4.2071 0.0329,-0.12804 0.0453,-0.27696 0.0148,-0.4034 -0.222,-0.91584 -0.3412,-1.84588 -0.38933,-2.78433 -0.0839,-1.63883 0.19285,-3.21095 0.94077,-4.68244 0.42341,-0.83305 1.01923,-1.54356 1.63433,-2.24073 1.12681,-1.27747 2.23478,-2.57177 3.36188,-3.84895 1.05026,-1.19019 2.09166,-2.38951 3.18078,-3.54343 0.93063,-0.98603 1.92521,-1.91447 3.06782,-2.65848 0.51273,-0.33394 1.04852,-0.64323 1.60373,-0.89858 0.92556,-0.42574 1.87692,-0.79462 2.81348,-1.19686 0.31872,-0.13674 0.66876,-0.25042 0.92556,-0.46792 0.27188,-0.23012 0.20185,-0.6412 0.28378,-0.97167 0.1032,-0.41557 0.17762,-0.8384 0.26273,-1.25861 0.0664,-0.32829 0.21939,-0.5484 0.56725,-0.67267 0.26188,-0.0936 0.53173,-0.26159 0.54899,-0.63018 0.012,-0.25246 0.17226,-0.44429 0.35482,-0.618 0.086,-0.0817 0.14166,-0.19953 0.1959,-0.30857 0.0409,-0.0818 0.0612,-0.17473 0.0841,-0.26434 0.0918,-0.35903 0.2362,-0.67978 0.58522,-0.82043"
       id="path7928" /></g></g></svg>
