<?xml version="1.0" encoding="UTF-8" standalone="no"?>
<!-- Generator: Adobe Illustrator 15.0.0, SVG Export Plug-In  -->

<svg
   version="1.1"
   x="0px"
   y="0px"
   width="342.405"
   height="162.384"
   viewBox="-36.073 -17.643 342.405 162.384"
   enable-background="new -36.073 -17.643 425 227"
   xml:space="preserve"
   id="svg56757"
   sodipodi:docname="CAMELS_Logo.svg"
   inkscape:version="1.2.1 (9c6d41e410, 2022-07-14)"
   xmlns:inkscape="http://www.inkscape.org/namespaces/inkscape"
   xmlns:sodipodi="http://sodipodi.sourceforge.net/DTD/sodipodi-0.dtd"
   xmlns="http://www.w3.org/2000/svg"
   xmlns:svg="http://www.w3.org/2000/svg"><sodipodi:namedview
   id="namedview56759"
   pagecolor="#ffffff"
   bordercolor="#000000"
   borderopacity="0.25"
   inkscape:showpageshadow="2"
   inkscape:pageopacity="0.0"
   inkscape:pagecheckerboard="0"
   inkscape:deskcolor="#d1d1d1"
   showgrid="false"
   showguides="false"
   inkscape:zoom="1.4702837"
   inkscape:cx="-62.232886"
   inkscape:cy="-31.966619"
   inkscape:window-width="1920"
   inkscape:window-height="1137"
   inkscape:window-x="-8"
   inkscape:window-y="-8"
   inkscape:window-maximized="1"
   inkscape:current-layer="svg56757" />
<defs
   id="defs56305">
</defs>





























































































































































































































<g
   id="g60552"><g
     id="g58080"
     style="fill:#f7b117;fill-opacity:1"><polygon
       fill="#17a5f7"
       points="109.873,49.391 98.234,37.752 93.973,53.652 105.613,65.293 "
       id="polygon56307"
       transform="translate(-36.073,-17.643)"
       style="fill:#f7b117;fill-opacity:1" /><polygon
       fill="#17a5f7"
       points="89.711,69.549 78.072,57.91 73.811,73.811 85.451,85.451 "
       id="polygon56309"
       transform="translate(-36.073,-17.643)"
       style="fill:#f7b117;fill-opacity:1" /><polygon
       fill="#17a5f7"
       points="137.412,56.77 125.773,45.131 121.512,61.031 133.152,72.67 "
       id="polygon56311"
       transform="translate(-36.073,-17.643)"
       style="fill:#f7b117;fill-opacity:1" /><polygon
       fill="#17a5f7"
       points="117.25,76.928 105.611,65.289 101.35,81.189 112.99,92.828 "
       id="polygon56313"
       transform="translate(-36.073,-17.643)"
       style="fill:#f7b117;fill-opacity:1" /><polygon
       fill="#17a5f7"
       points="164.951,64.146 153.313,52.508 149.051,68.408 160.691,80.049 "
       id="polygon56315"
       transform="translate(-36.073,-17.643)"
       style="fill:#f7b117;fill-opacity:1" /><polygon
       fill="#17a5f7"
       points="144.789,84.305 133.15,72.666 128.889,88.566 140.529,100.207 "
       id="polygon56317"
       transform="translate(-36.073,-17.643)"
       style="fill:#f7b117;fill-opacity:1" /><polygon
       fill="#17a5f7"
       points="192.491,71.525 180.852,59.887 176.59,75.787 188.231,87.426 "
       id="polygon56319"
       transform="translate(-36.073,-17.643)"
       style="fill:#f7b117;fill-opacity:1" /><polygon
       fill="#17a5f7"
       points="172.328,91.684 160.689,80.045 156.428,95.945 168.068,107.584 "
       id="polygon56321"
       transform="translate(-36.073,-17.643)"
       style="fill:#f7b117;fill-opacity:1" /><polygon
       fill="#17a5f7"
       points="220.03,78.902 208.392,67.264 204.13,83.164 215.771,94.805 "
       id="polygon56323"
       transform="translate(-36.073,-17.643)"
       style="fill:#f7b117;fill-opacity:1" /><polygon
       fill="#17a5f7"
       points="199.868,99.061 188.229,87.422 183.968,103.322 195.608,114.963 "
       id="polygon56325"
       transform="translate(-36.073,-17.643)"
       style="fill:#f7b117;fill-opacity:1" /><polygon
       fill="#17a5f7"
       points="247.569,86.281 235.931,74.643 231.669,90.543 243.31,102.182 "
       id="polygon56327"
       transform="translate(-36.073,-17.643)"
       style="fill:#f7b117;fill-opacity:1" /><polygon
       fill="#17a5f7"
       points="227.407,106.439 215.769,94.801 211.507,110.701 223.147,122.341 "
       id="polygon56329"
       transform="translate(-36.073,-17.643)"
       style="fill:#f7b117;fill-opacity:1" /><polygon
       fill="#17a5f7"
       points="97.09,97.09 85.451,85.451 81.189,101.352 92.83,112.99 "
       id="polygon56331"
       transform="translate(-36.073,-17.643)"
       style="fill:#f7b117;fill-opacity:1" /><polygon
       fill="#17a5f7"
       points="124.629,104.467 112.99,92.828 108.729,108.729 120.369,120.37 "
       id="polygon56333"
       transform="translate(-36.073,-17.643)"
       style="fill:#f7b117;fill-opacity:1" /><polygon
       fill="#17a5f7"
       points="152.168,111.846 140.529,100.207 136.268,116.108 147.908,127.747 "
       id="polygon56335"
       transform="translate(-36.073,-17.643)"
       style="fill:#f7b117;fill-opacity:1" /><polygon
       fill="#17a5f7"
       points="179.707,119.224 168.068,107.584 163.807,123.485 175.447,135.126 "
       id="polygon56337"
       transform="translate(-36.073,-17.643)"
       style="fill:#f7b117;fill-opacity:1" /><polygon
       fill="#17a5f7"
       points="207.247,126.603 195.608,114.963 191.347,130.864 202.987,142.503 "
       id="polygon56339"
       transform="translate(-36.073,-17.643)"
       style="fill:#f7b117;fill-opacity:1" /><polygon
       fill="#17a5f7"
       points="226.837,136.11 221.017,130.292 218.886,138.241 224.706,144.062 "
       id="polygon56341"
       transform="translate(-36.073,-17.643)"
       style="fill:#f7b117;fill-opacity:1" /><polygon
       fill="#17a5f7"
       points="254.382,143.499 248.562,137.679 246.431,145.63 252.251,151.448 "
       id="polygon56343"
       transform="translate(-36.073,-17.643)"
       style="fill:#f7b117;fill-opacity:1" /><polygon
       fill="#17a5f7"
       points="342.405,90.396 336.585,84.576 334.454,92.527 340.274,98.346 "
       id="polygon56345"
       transform="translate(-36.073,-17.643)"
       style="fill:#f7b117;fill-opacity:1" /><polygon
       fill="#17a5f7"
       points="300.106,27.936 294.288,22.115 292.157,30.066 297.978,35.885 "
       id="polygon56347"
       transform="translate(-36.073,-17.643)"
       style="fill:#f7b117;fill-opacity:1" /><polygon
       fill="#17a5f7"
       points="275.108,93.658 263.47,82.02 259.208,97.92 270.849,109.561 "
       id="polygon56349"
       transform="translate(-36.073,-17.643)"
       style="fill:#f7b117;fill-opacity:1" /><polygon
       fill="#17a5f7"
       points="254.946,113.816 243.308,102.178 239.046,118.079 250.687,129.72 "
       id="polygon56351"
       transform="translate(-36.073,-17.643)"
       style="fill:#f7b117;fill-opacity:1" /><polygon
       fill="#17a5f7"
       points="302.647,101.037 291.009,89.398 286.747,105.299 298.388,116.938 "
       id="polygon56353"
       transform="translate(-36.073,-17.643)"
       style="fill:#f7b117;fill-opacity:1" /><polygon
       fill="#17a5f7"
       points="282.485,121.196 270.847,109.557 266.585,125.458 278.226,137.097 "
       id="polygon56355"
       transform="translate(-36.073,-17.643)"
       style="fill:#f7b117;fill-opacity:1" /><polygon
       fill="#17a5f7"
       points="169.785,18.58 163.965,12.762 161.834,20.711 167.654,26.531 "
       id="polygon56357"
       transform="translate(-36.073,-17.643)"
       style="fill:#f7b117;fill-opacity:1" /><polygon
       fill="#17a5f7"
       points="122.084,31.359 116.266,25.541 114.135,33.49 119.955,39.311 "
       id="polygon56359"
       transform="translate(-36.073,-17.643)"
       style="fill:#f7b117;fill-opacity:1" /><polygon
       fill="#17a5f7"
       points="138.271,12.266 135.361,9.355 134.295,13.33 137.205,16.24 "
       id="polygon56361"
       transform="translate(-36.073,-17.643)"
       style="fill:#f7b117;fill-opacity:1" /><polygon
       fill="#17a5f7"
       points="90.57,25.047 87.66,22.137 86.596,26.111 89.506,29.021 "
       id="polygon56363"
       transform="translate(-36.073,-17.643)"
       style="fill:#f7b117;fill-opacity:1" /><polygon
       fill="#17a5f7"
       points="63.031,17.67 60.121,14.76 59.055,18.734 61.965,21.645 "
       id="polygon56365"
       transform="translate(-36.073,-17.643)"
       style="fill:#f7b117;fill-opacity:1" /><polygon
       fill="#17a5f7"
       points="7.951,2.91 5.041,0 3.977,3.975 6.887,6.885 "
       id="polygon56367"
       transform="translate(-36.073,-17.643)"
       style="fill:#f7b117;fill-opacity:1" /><polygon
       fill="#17a5f7"
       points="15.328,30.449 12.418,27.539 11.354,31.514 14.264,34.424 "
       id="polygon56369"
       transform="translate(-36.073,-17.643)"
       style="fill:#f7b117;fill-opacity:1" /><polygon
       fill="#17a5f7"
       points="30.086,85.525 27.176,82.615 26.111,86.59 29.021,89.5 "
       id="polygon56371"
       transform="translate(-36.073,-17.643)"
       style="fill:#f7b117;fill-opacity:1" /><polygon
       fill="#17a5f7"
       points="37.465,113.064 34.555,110.154 33.49,114.129 36.4,117.04 "
       id="polygon56373"
       transform="translate(-36.073,-17.643)"
       style="fill:#f7b117;fill-opacity:1" /><polygon
       fill="#17a5f7"
       points="65.006,120.448 62.096,117.538 61.029,121.513 63.939,124.423 "
       id="polygon56375"
       transform="translate(-36.073,-17.643)"
       style="fill:#f7b117;fill-opacity:1" /><polygon
       fill="#17a5f7"
       points="92.545,127.669 89.635,124.759 88.57,128.733 91.48,131.644 "
       id="polygon56377"
       transform="translate(-36.073,-17.643)"
       style="fill:#f7b117;fill-opacity:1" /><polygon
       fill="#17a5f7"
       points="120.086,135.208 117.176,132.298 116.109,136.272 119.02,139.183 "
       id="polygon56379"
       transform="translate(-36.073,-17.643)"
       style="fill:#f7b117;fill-opacity:1" /><polygon
       fill="#17a5f7"
       points="202.704,157.345 199.794,154.435 198.729,158.409 201.64,161.319 "
       id="polygon56381"
       transform="translate(-36.073,-17.643)"
       style="fill:#f7b117;fill-opacity:1" /><polygon
       fill="#17a5f7"
       points="241.052,14.242 238.142,11.332 237.077,15.307 239.987,18.217 "
       id="polygon56383"
       transform="translate(-36.073,-17.643)"
       style="fill:#f7b117;fill-opacity:1" /><polygon
       fill="#17a5f7"
       points="268.593,21.623 265.683,18.713 264.618,22.688 267.528,25.598 "
       id="polygon56385"
       transform="translate(-36.073,-17.643)"
       style="fill:#f7b117;fill-opacity:1" /><polygon
       fill="#17a5f7"
       points="331.052,63.922 328.142,61.012 327.077,64.986 329.987,67.896 "
       id="polygon56387"
       transform="translate(-36.073,-17.643)"
       style="fill:#f7b117;fill-opacity:1" /><polygon
       fill="#17a5f7"
       points="318.269,111.621 315.358,108.711 314.294,112.686 317.204,115.597 "
       id="polygon56389"
       transform="translate(-36.073,-17.643)"
       style="fill:#f7b117;fill-opacity:1" /><polygon
       fill="#17a5f7"
       points="46.842,36.762 41.023,30.943 38.893,38.893 44.713,44.713 "
       id="polygon56391"
       transform="translate(-36.073,-17.643)"
       style="fill:#f7b117;fill-opacity:1" /><polygon
       fill="#17a5f7"
       points="74.383,43.986 68.564,38.168 66.434,46.117 72.254,51.938 "
       id="polygon56393"
       transform="translate(-36.073,-17.643)"
       style="fill:#f7b117;fill-opacity:1" /><polygon
       fill="#17a5f7"
       points="34.061,58.9 28.242,53.08 26.111,61.031 31.932,66.85 "
       id="polygon56395"
       transform="translate(-36.073,-17.643)"
       style="fill:#f7b117;fill-opacity:1" /><polygon
       fill="#17a5f7"
       points="54.221,64.299 48.402,58.48 46.271,66.43 52.092,72.25 "
       id="polygon56397"
       transform="translate(-36.073,-17.643)"
       style="fill:#f7b117;fill-opacity:1" /><polygon
       fill="#17a5f7"
       points="151.6,141.521 145.779,135.7 143.648,143.651 149.469,149.47 "
       id="polygon56399"
       transform="translate(-36.073,-17.643)"
       style="fill:#f7b117;fill-opacity:1" /><polygon
       fill="#17a5f7"
       points="61.6,91.84 55.781,86.021 53.65,93.971 59.471,99.791 "
       id="polygon56401"
       transform="translate(-36.073,-17.643)"
       style="fill:#f7b117;fill-opacity:1" /><polygon
       fill="#17a5f7"
       points="157.572,36.607 145.934,24.969 141.672,40.869 153.313,52.51 "
       id="polygon56403"
       transform="translate(-36.073,-17.643)"
       style="fill:#f7b117;fill-opacity:1" /><polygon
       fill="#17a5f7"
       points="197.325,25.959 191.505,20.139 189.374,28.09 195.194,33.908 "
       id="polygon56405"
       transform="translate(-36.073,-17.643)"
       style="fill:#f7b117;fill-opacity:1" /><polygon
       fill="#17a5f7"
       points="185.112,43.986 173.473,32.348 169.211,48.248 180.852,59.887 "
       id="polygon56407"
       transform="translate(-36.073,-17.643)"
       style="fill:#f7b117;fill-opacity:1" /><polygon
       fill="#17a5f7"
       points="224.864,33.336 219.044,27.518 216.913,35.467 222.733,41.287 "
       id="polygon56409"
       transform="translate(-36.073,-17.643)"
       style="fill:#f7b117;fill-opacity:1" /><polygon
       fill="#17a5f7"
       points="212.651,51.363 201.013,39.725 196.751,55.625 208.392,67.266 "
       id="polygon56411"
       transform="translate(-36.073,-17.643)"
       style="fill:#f7b117;fill-opacity:1" /><polygon
       fill="#17a5f7"
       points="260.353,38.584 248.714,26.945 244.452,42.846 256.093,54.484 "
       id="polygon56413"
       transform="translate(-36.073,-17.643)"
       style="fill:#f7b117;fill-opacity:1" /><polygon
       fill="#17a5f7"
       points="240.19,58.742 228.552,47.104 224.29,63.004 235.931,74.643 "
       id="polygon56415"
       transform="translate(-36.073,-17.643)"
       style="fill:#f7b117;fill-opacity:1" /><polygon
       fill="#17a5f7"
       points="287.892,45.961 276.253,34.322 271.991,50.223 283.632,61.863 "
       id="polygon56417"
       transform="translate(-36.073,-17.643)"
       style="fill:#f7b117;fill-opacity:1" /><polygon
       fill="#17a5f7"
       points="267.729,66.119 256.091,54.48 251.829,70.381 263.47,82.021 "
       id="polygon56419"
       transform="translate(-36.073,-17.643)"
       style="fill:#f7b117;fill-opacity:1" /><polygon
       fill="#17a5f7"
       points="315.431,53.34 303.792,41.701 299.53,57.602 311.171,69.24 "
       id="polygon56421"
       transform="translate(-36.073,-17.643)"
       style="fill:#f7b117;fill-opacity:1" /><polygon
       fill="#17a5f7"
       points="295.269,73.498 283.63,61.859 279.368,77.76 291.009,89.398 "
       id="polygon56423"
       transform="translate(-36.073,-17.643)"
       style="fill:#f7b117;fill-opacity:1" /><polygon
       fill="#17a5f7"
       points="322.808,80.875 311.169,69.236 306.907,85.137 318.548,96.777 "
       id="polygon56425"
       transform="translate(-36.073,-17.643)"
       style="fill:#f7b117;fill-opacity:1" /></g><g
     id="g58144"
     style="fill:#ffcf00;fill-opacity:1"><polygon
       fill="#00c8c9"
       points="137.412,56.77 153.313,52.508 149.051,68.408 133.15,72.668 "
       id="polygon56427"
       transform="translate(-36.073,-17.643)"
       style="fill:#ffcf00;fill-opacity:1" /><polygon
       fill="#00c8c9"
       points="117.25,76.928 133.15,72.666 128.889,88.566 112.988,92.826 "
       id="polygon56429"
       transform="translate(-36.073,-17.643)"
       style="fill:#ffcf00;fill-opacity:1" /><polygon
       fill="#00c8c9"
       points="164.951,64.146 180.852,59.887 176.59,75.787 160.689,80.045 "
       id="polygon56431"
       transform="translate(-36.073,-17.643)"
       style="fill:#ffcf00;fill-opacity:1" /><polygon
       fill="#00c8c9"
       points="144.789,84.305 160.689,80.045 156.428,95.945 140.527,100.203 "
       id="polygon56433"
       transform="translate(-36.073,-17.643)"
       style="fill:#ffcf00;fill-opacity:1" /><polygon
       fill="#00c8c9"
       points="192.491,71.525 208.392,67.264 204.13,83.164 188.229,87.424 "
       id="polygon56435"
       transform="translate(-36.073,-17.643)"
       style="fill:#ffcf00;fill-opacity:1" /><polygon
       fill="#00c8c9"
       points="172.328,91.684 188.229,87.422 183.968,103.322 168.066,107.582 "
       id="polygon56437"
       transform="translate(-36.073,-17.643)"
       style="fill:#ffcf00;fill-opacity:1" /><polygon
       fill="#00c8c9"
       points="220.03,78.902 235.931,74.643 231.669,90.543 215.769,94.801 "
       id="polygon56439"
       transform="translate(-36.073,-17.643)"
       style="fill:#ffcf00;fill-opacity:1" /><polygon
       fill="#00c8c9"
       points="247.569,86.281 263.47,82.02 259.208,97.92 243.308,102.18 "
       id="polygon56441"
       transform="translate(-36.073,-17.643)"
       style="fill:#ffcf00;fill-opacity:1" /><polygon
       fill="#00c8c9"
       points="240.19,58.742 256.091,54.48 251.829,70.381 235.929,74.641 "
       id="polygon56443"
       transform="translate(-36.073,-17.643)"
       style="fill:#ffcf00;fill-opacity:1" /></g><g
     id="g58133"
     style="fill:#ffe000;fill-opacity:1"><polygon
       fill="#00dfe0"
       points="82.334,42.014 98.234,37.752 93.973,53.652 78.072,57.912 "
       id="polygon56467"
       transform="translate(-36.073,-17.643)"
       style="fill:#ffe000;fill-opacity:1" /><polygon
       fill="#00dfe0"
       points="62.172,62.172 78.072,57.91 73.811,73.811 57.91,78.07 "
       id="polygon56469"
       transform="translate(-36.073,-17.643)"
       style="fill:#ffe000;fill-opacity:1" /><polygon
       fill="#00dfe0"
       points="109.873,49.391 125.773,45.131 121.512,61.031 105.611,65.289 "
       id="polygon56471"
       transform="translate(-36.073,-17.643)"
       style="fill:#ffe000;fill-opacity:1" /><polygon
       fill="#00dfe0"
       points="89.711,69.549 105.611,65.289 101.35,81.189 85.449,85.447 "
       id="polygon56473"
       transform="translate(-36.073,-17.643)"
       style="fill:#ffe000;fill-opacity:1" /><polygon
       fill="#00dfe0"
       points="199.868,99.061 215.769,94.801 211.507,110.701 195.606,114.959 "
       id="polygon56475"
       transform="translate(-36.073,-17.643)"
       style="fill:#ffe000;fill-opacity:1" /><polygon
       fill="#00dfe0"
       points="69.551,89.711 85.451,85.451 81.189,101.352 65.289,105.609 "
       id="polygon56477"
       transform="translate(-36.073,-17.643)"
       style="fill:#ffe000;fill-opacity:1" /><polygon
       fill="#00dfe0"
       points="97.09,97.09 112.99,92.828 108.729,108.729 92.828,112.988 "
       id="polygon56479"
       transform="translate(-36.073,-17.643)"
       style="fill:#ffe000;fill-opacity:1" /><polygon
       fill="#00dfe0"
       points="124.629,104.467 140.529,100.207 136.268,116.108 120.367,120.366 "
       id="polygon56481"
       transform="translate(-36.073,-17.643)"
       style="fill:#ffe000;fill-opacity:1" /><polygon
       fill="#00dfe0"
       points="152.168,111.846 168.068,107.584 163.807,123.485 147.906,127.745 "
       id="polygon56483"
       transform="translate(-36.073,-17.643)"
       style="fill:#ffe000;fill-opacity:1" /><polygon
       fill="#00dfe0"
       points="179.707,119.224 195.608,114.963 191.347,130.864 175.445,135.122 "
       id="polygon56485"
       transform="translate(-36.073,-17.643)"
       style="fill:#ffe000;fill-opacity:1" /><polygon
       fill="#00dfe0"
       points="213.067,132.421 221.017,130.292 218.886,138.241 210.937,140.37 "
       id="polygon56487"
       transform="translate(-36.073,-17.643)"
       style="fill:#ffe000;fill-opacity:1" /><polygon
       fill="#00dfe0"
       points="240.612,139.81 248.562,137.679 246.431,145.63 238.481,147.759 "
       id="polygon56489"
       transform="translate(-36.073,-17.643)"
       style="fill:#ffe000;fill-opacity:1" /><polygon
       fill="#00dfe0"
       points="328.636,86.707 336.585,84.576 334.454,92.527 326.505,94.656 "
       id="polygon56491"
       transform="translate(-36.073,-17.643)"
       style="fill:#ffe000;fill-opacity:1" /><polygon
       fill="#00dfe0"
       points="286.337,24.246 294.288,22.115 292.157,30.066 284.206,32.195 "
       id="polygon56493"
       transform="translate(-36.073,-17.643)"
       style="fill:#ffe000;fill-opacity:1" /><polygon
       fill="#00dfe0"
       points="227.407,106.439 243.308,102.178 239.046,118.079 223.146,122.339 "
       id="polygon56495"
       transform="translate(-36.073,-17.643)"
       style="fill:#ffe000;fill-opacity:1" /><polygon
       fill="#00dfe0"
       points="275.108,93.658 291.009,89.398 286.747,105.299 270.847,109.557 "
       id="polygon56497"
       transform="translate(-36.073,-17.643)"
       style="fill:#ffe000;fill-opacity:1" /><polygon
       fill="#00dfe0"
       points="254.946,113.816 270.847,109.557 266.585,125.458 250.685,129.716 "
       id="polygon56499"
       transform="translate(-36.073,-17.643)"
       style="fill:#ffe000;fill-opacity:1" /><polygon
       fill="#00dfe0"
       points="156.016,14.891 163.965,12.762 161.834,20.711 153.885,22.84 "
       id="polygon56501"
       transform="translate(-36.073,-17.643)"
       style="fill:#ffe000;fill-opacity:1" /><polygon
       fill="#00dfe0"
       points="108.314,27.67 116.266,25.541 114.135,33.49 106.184,35.619 "
       id="polygon56503"
       transform="translate(-36.073,-17.643)"
       style="fill:#ffe000;fill-opacity:1" /><polygon
       fill="#00dfe0"
       points="131.387,10.42 135.361,9.355 134.295,13.33 130.32,14.395 "
       id="polygon56505"
       transform="translate(-36.073,-17.643)"
       style="fill:#ffe000;fill-opacity:1" /><polygon
       fill="#00dfe0"
       points="83.686,23.201 87.66,22.137 86.596,26.111 82.619,27.176 "
       id="polygon56507"
       transform="translate(-36.073,-17.643)"
       style="fill:#ffe000;fill-opacity:1" /><polygon
       fill="#00dfe0"
       points="56.146,15.824 60.121,14.76 59.055,18.734 55.08,19.799 "
       id="polygon56509"
       transform="translate(-36.073,-17.643)"
       style="fill:#ffe000;fill-opacity:1" /><polygon
       fill="#00dfe0"
       points="1.066,1.064 5.041,0 3.977,3.975 0,5.039 "
       id="polygon56511"
       transform="translate(-36.073,-17.643)"
       style="fill:#ffe000;fill-opacity:1" /><polygon
       fill="#00dfe0"
       points="8.443,28.604 12.418,27.539 11.354,31.514 7.377,32.578 "
       id="polygon56513"
       transform="translate(-36.073,-17.643)"
       style="fill:#ffe000;fill-opacity:1" /><polygon
       fill="#00dfe0"
       points="23.201,83.68 27.176,82.615 26.111,86.59 22.135,87.654 "
       id="polygon56515"
       transform="translate(-36.073,-17.643)"
       style="fill:#ffe000;fill-opacity:1" /><polygon
       fill="#00dfe0"
       points="30.58,111.219 34.555,110.154 33.49,114.129 29.514,115.194 "
       id="polygon56517"
       transform="translate(-36.073,-17.643)"
       style="fill:#ffe000;fill-opacity:1" /><polygon
       fill="#00dfe0"
       points="58.121,118.603 62.096,117.538 61.029,121.513 57.055,122.577 "
       id="polygon56519"
       transform="translate(-36.073,-17.643)"
       style="fill:#ffe000;fill-opacity:1" /><polygon
       fill="#00dfe0"
       points="85.66,125.823 89.635,124.759 88.57,128.733 84.594,129.798 "
       id="polygon56521"
       transform="translate(-36.073,-17.643)"
       style="fill:#ffe000;fill-opacity:1" /><polygon
       fill="#00dfe0"
       points="113.201,133.362 117.176,132.298 116.109,136.272 112.135,137.337 "
       id="polygon56523"
       transform="translate(-36.073,-17.643)"
       style="fill:#ffe000;fill-opacity:1" /><polygon
       fill="#00dfe0"
       points="195.819,155.499 199.794,154.435 198.729,158.409 194.753,159.474 "
       id="polygon56525"
       transform="translate(-36.073,-17.643)"
       style="fill:#ffe000;fill-opacity:1" /><polygon
       fill="#00dfe0"
       points="234.167,12.396 238.142,11.332 237.077,15.307 233.101,16.371 "
       id="polygon56527"
       transform="translate(-36.073,-17.643)"
       style="fill:#ffe000;fill-opacity:1" /><polygon
       fill="#00dfe0"
       points="261.708,19.777 265.683,18.713 264.618,22.688 260.642,23.752 "
       id="polygon56529"
       transform="translate(-36.073,-17.643)"
       style="fill:#ffe000;fill-opacity:1" /><polygon
       fill="#00dfe0"
       points="324.167,62.076 328.142,61.012 327.077,64.986 323.101,66.051 "
       id="polygon56531"
       transform="translate(-36.073,-17.643)"
       style="fill:#ffe000;fill-opacity:1" /><polygon
       fill="#00dfe0"
       points="311.384,109.775 315.358,108.711 314.294,112.686 310.317,113.75 "
       id="polygon56533"
       transform="translate(-36.073,-17.643)"
       style="fill:#ffe000;fill-opacity:1" /><polygon
       fill="#00dfe0"
       points="33.072,33.072 41.023,30.943 38.893,38.893 30.941,41.021 "
       id="polygon56535"
       transform="translate(-36.073,-17.643)"
       style="fill:#ffe000;fill-opacity:1" /><polygon
       fill="#00dfe0"
       points="60.613,40.297 68.564,38.168 66.434,46.117 58.482,48.246 "
       id="polygon56537"
       transform="translate(-36.073,-17.643)"
       style="fill:#ffe000;fill-opacity:1" /><polygon
       fill="#00dfe0"
       points="20.291,55.211 28.242,53.08 26.111,61.031 18.16,63.16 "
       id="polygon56539"
       transform="translate(-36.073,-17.643)"
       style="fill:#ffe000;fill-opacity:1" /><polygon
       fill="#00dfe0"
       points="40.451,60.609 48.402,58.48 46.271,66.43 38.32,68.559 "
       id="polygon56541"
       transform="translate(-36.073,-17.643)"
       style="fill:#ffe000;fill-opacity:1" /><polygon
       fill="#00dfe0"
       points="137.83,137.831 145.779,135.7 143.648,143.651 135.699,145.78 "
       id="polygon56543"
       transform="translate(-36.073,-17.643)"
       style="fill:#ffe000;fill-opacity:1" /><polygon
       fill="#00dfe0"
       points="47.83,88.15 55.781,86.021 53.65,93.971 45.699,96.1 "
       id="polygon56545"
       transform="translate(-36.073,-17.643)"
       style="fill:#ffe000;fill-opacity:1" /><polygon
       fill="#00dfe0"
       points="130.033,29.23 145.934,24.969 141.672,40.869 125.771,45.129 "
       id="polygon56547"
       transform="translate(-36.073,-17.643)"
       style="fill:#ffe000;fill-opacity:1" /><polygon
       fill="#00dfe0"
       points="183.556,22.27 191.505,20.139 189.374,28.09 181.424,30.219 "
       id="polygon56549"
       transform="translate(-36.073,-17.643)"
       style="fill:#ffe000;fill-opacity:1" /><polygon
       fill="#00dfe0"
       points="157.572,36.607 173.473,32.348 169.211,48.248 153.311,52.506 "
       id="polygon56551"
       transform="translate(-36.073,-17.643)"
       style="fill:#ffe000;fill-opacity:1" /><polygon
       fill="#00dfe0"
       points="211.095,29.646 219.044,27.518 216.913,35.467 208.964,37.596 "
       id="polygon56553"
       transform="translate(-36.073,-17.643)"
       style="fill:#ffe000;fill-opacity:1" /><polygon
       fill="#00dfe0"
       points="185.112,43.986 201.013,39.725 196.751,55.625 180.85,59.885 "
       id="polygon56555"
       transform="translate(-36.073,-17.643)"
       style="fill:#ffe000;fill-opacity:1" /><polygon
       fill="#00dfe0"
       points="232.813,31.205 248.714,26.945 244.452,42.846 228.552,47.104 "
       id="polygon56557"
       transform="translate(-36.073,-17.643)"
       style="fill:#ffe000;fill-opacity:1" /><polygon
       fill="#00dfe0"
       points="212.651,51.363 228.552,47.104 224.29,63.004 208.39,67.262 "
       id="polygon56559"
       transform="translate(-36.073,-17.643)"
       style="fill:#ffe000;fill-opacity:1" /><polygon
       fill="#00dfe0"
       points="260.353,38.584 276.253,34.322 271.991,50.223 256.091,54.482 "
       id="polygon56561"
       transform="translate(-36.073,-17.643)"
       style="fill:#ffe000;fill-opacity:1" /><polygon
       fill="#00dfe0"
       points="287.892,45.961 303.792,41.701 299.53,57.602 283.63,61.859 "
       id="polygon56563"
       transform="translate(-36.073,-17.643)"
       style="fill:#ffe000;fill-opacity:1" /><polygon
       fill="#00dfe0"
       points="267.729,66.119 283.63,61.859 279.368,77.76 263.468,82.018 "
       id="polygon56565"
       transform="translate(-36.073,-17.643)"
       style="fill:#ffe000;fill-opacity:1" /><polygon
       fill="#00dfe0"
       points="295.269,73.498 311.169,69.236 306.907,85.137 291.007,89.396 "
       id="polygon56567"
       transform="translate(-36.073,-17.643)"
       style="fill:#ffe000;fill-opacity:1" /></g><g
     id="g57464"
     style="fill:#c37c1a;fill-opacity:1"><polygon
       fill="#527de3"
       points="117.252,76.93 105.611,65.289 121.512,61.031 133.152,72.67 "
       id="polygon56445"
       transform="translate(-36.073,-17.643)"
       style="fill:#c37c1a;fill-opacity:1" /><polygon
       fill="#527de3"
       points="97.09,97.088 85.449,85.447 101.35,81.189 112.99,92.828 "
       id="polygon56447"
       transform="translate(-36.073,-17.643)"
       style="fill:#c37c1a;fill-opacity:1" /><polygon
       fill="#527de3"
       points="144.791,84.309 133.15,72.668 149.051,68.408 160.691,80.049 "
       id="polygon56449"
       transform="translate(-36.073,-17.643)"
       style="fill:#c37c1a;fill-opacity:1" /><polygon
       fill="#527de3"
       points="124.629,104.467 112.988,92.826 128.889,88.566 140.529,100.207 "
       id="polygon56451"
       transform="translate(-36.073,-17.643)"
       style="fill:#c37c1a;fill-opacity:1" /><polygon
       fill="#527de3"
       points="172.33,91.686 160.689,80.045 176.59,75.787 188.231,87.426 "
       id="polygon56453"
       transform="translate(-36.073,-17.643)"
       style="fill:#c37c1a;fill-opacity:1" /><polygon
       fill="#527de3"
       points="199.87,99.064 188.229,87.424 204.13,83.164 215.771,94.805 "
       id="polygon56455"
       transform="translate(-36.073,-17.643)"
       style="fill:#c37c1a;fill-opacity:1" /><polygon
       fill="#527de3"
       points="227.409,106.441 215.769,94.801 231.669,90.543 243.31,102.182 "
       id="polygon56457"
       transform="translate(-36.073,-17.643)"
       style="fill:#c37c1a;fill-opacity:1" /><polygon
       fill="#527de3"
       points="254.948,113.82 243.308,102.18 259.208,97.92 270.849,109.561 "
       id="polygon56459"
       transform="translate(-36.073,-17.643)"
       style="fill:#c37c1a;fill-opacity:1" /><polygon
       fill="#527de3"
       points="220.03,78.902 208.39,67.262 224.29,63.004 235.931,74.643 "
       id="polygon56461"
       transform="translate(-36.073,-17.643)"
       style="fill:#c37c1a;fill-opacity:1" /><polygon
       fill="#527de3"
       points="247.569,86.281 235.929,74.641 251.829,70.381 263.47,82.021 "
       id="polygon56463"
       transform="translate(-36.073,-17.643)"
       style="fill:#c37c1a;fill-opacity:1" /><polygon
       fill="#527de3"
       points="275.108,93.658 263.468,82.018 279.368,77.76 291.009,89.398 "
       id="polygon56465"
       transform="translate(-36.073,-17.643)"
       style="fill:#c37c1a;fill-opacity:1" /><polygon
       fill="#4472db"
       points="89.713,69.553 78.072,57.912 93.973,53.652 105.613,65.293 "
       id="polygon56569"
       transform="translate(-36.073,-17.643)"
       style="fill:#c37c1a;fill-opacity:1" /><polygon
       fill="#4472db"
       points="69.551,89.711 57.91,78.07 73.811,73.811 85.451,85.451 "
       id="polygon56571"
       transform="translate(-36.073,-17.643)"
       style="fill:#c37c1a;fill-opacity:1" /><polygon
       fill="#4472db"
       points="152.168,111.844 140.527,100.203 156.428,95.945 168.068,107.584 "
       id="polygon56573"
       transform="translate(-36.073,-17.643)"
       style="fill:#c37c1a;fill-opacity:1" /><polygon
       fill="#4472db"
       points="179.707,119.224 168.066,107.582 183.968,103.322 195.608,114.963 "
       id="polygon56575"
       transform="translate(-36.073,-17.643)"
       style="fill:#c37c1a;fill-opacity:1" /><polygon
       fill="#4472db"
       points="207.247,126.601 195.606,114.959 211.507,110.701 223.147,122.341 "
       id="polygon56577"
       transform="translate(-36.073,-17.643)"
       style="fill:#c37c1a;fill-opacity:1" /><polygon
       fill="#4472db"
       points="76.93,117.251 65.289,105.609 81.189,101.352 92.83,112.99 "
       id="polygon56579"
       transform="translate(-36.073,-17.643)"
       style="fill:#c37c1a;fill-opacity:1" /><polygon
       fill="#4472db"
       points="104.469,124.63 92.828,112.988 108.729,108.729 120.369,120.37 "
       id="polygon56581"
       transform="translate(-36.073,-17.643)"
       style="fill:#c37c1a;fill-opacity:1" /><polygon
       fill="#4472db"
       points="132.008,132.007 120.367,120.366 136.268,116.108 147.908,127.747 "
       id="polygon56583"
       transform="translate(-36.073,-17.643)"
       style="fill:#c37c1a;fill-opacity:1" /><polygon
       fill="#4472db"
       points="159.547,139.386 147.906,127.745 163.807,123.485 175.447,135.126 "
       id="polygon56585"
       transform="translate(-36.073,-17.643)"
       style="fill:#c37c1a;fill-opacity:1" /><polygon
       fill="#4472db"
       points="187.087,146.763 175.445,135.122 191.347,130.864 202.987,142.503 "
       id="polygon56587"
       transform="translate(-36.073,-17.643)"
       style="fill:#c37c1a;fill-opacity:1" /><polygon
       fill="#4472db"
       points="216.757,146.19 210.937,140.37 218.886,138.241 224.706,144.062 "
       id="polygon56589"
       transform="translate(-36.073,-17.643)"
       style="fill:#c37c1a;fill-opacity:1" /><polygon
       fill="#4472db"
       points="244.302,153.579 238.481,147.759 246.431,145.63 252.251,151.448 "
       id="polygon56591"
       transform="translate(-36.073,-17.643)"
       style="fill:#c37c1a;fill-opacity:1" /><polygon
       fill="#4472db"
       points="332.325,100.477 326.505,94.656 334.454,92.527 340.274,98.346 "
       id="polygon56593"
       transform="translate(-36.073,-17.643)"
       style="fill:#c37c1a;fill-opacity:1" /><polygon
       fill="#4472db"
       points="290.026,38.016 284.206,32.195 292.157,30.066 297.978,35.885 "
       id="polygon56595"
       transform="translate(-36.073,-17.643)"
       style="fill:#c37c1a;fill-opacity:1" /><polygon
       fill="#4472db"
       points="234.786,133.979 223.146,122.339 239.046,118.079 250.687,129.72 "
       id="polygon56597"
       transform="translate(-36.073,-17.643)"
       style="fill:#c37c1a;fill-opacity:1" /><polygon
       fill="#4472db"
       points="282.487,121.198 270.847,109.557 286.747,105.299 298.388,116.938 "
       id="polygon56599"
       transform="translate(-36.073,-17.643)"
       style="fill:#c37c1a;fill-opacity:1" /><polygon
       fill="#4472db"
       points="262.325,141.356 250.685,129.716 266.585,125.458 278.226,137.097 "
       id="polygon56601"
       transform="translate(-36.073,-17.643)"
       style="fill:#c37c1a;fill-opacity:1" /><polygon
       fill="#4472db"
       points="159.705,28.66 153.885,22.84 161.834,20.711 167.654,26.531 "
       id="polygon56603"
       transform="translate(-36.073,-17.643)"
       style="fill:#c37c1a;fill-opacity:1" /><polygon
       fill="#4472db"
       points="112.004,41.439 106.184,35.619 114.135,33.49 119.955,39.311 "
       id="polygon56605"
       transform="translate(-36.073,-17.643)"
       style="fill:#c37c1a;fill-opacity:1" /><polygon
       fill="#4472db"
       points="133.23,17.305 130.32,14.395 134.295,13.33 137.205,16.24 "
       id="polygon56607"
       transform="translate(-36.073,-17.643)"
       style="fill:#c37c1a;fill-opacity:1" /><polygon
       fill="#4472db"
       points="85.529,30.086 82.619,27.176 86.596,26.111 89.506,29.021 "
       id="polygon56609"
       transform="translate(-36.073,-17.643)"
       style="fill:#c37c1a;fill-opacity:1" /><polygon
       fill="#4472db"
       points="57.99,22.709 55.08,19.799 59.055,18.734 61.965,21.645 "
       id="polygon56611"
       transform="translate(-36.073,-17.643)"
       style="fill:#c37c1a;fill-opacity:1" /><polygon
       fill="#4472db"
       points="2.91,7.949 0,5.039 3.977,3.975 6.887,6.885 "
       id="polygon56613"
       transform="translate(-36.073,-17.643)"
       style="fill:#c37c1a;fill-opacity:1" /><polygon
       fill="#4472db"
       points="10.287,35.488 7.377,32.578 11.354,31.514 14.264,34.424 "
       id="polygon56615"
       transform="translate(-36.073,-17.643)"
       style="fill:#c37c1a;fill-opacity:1" /><polygon
       fill="#4472db"
       points="25.045,90.564 22.135,87.654 26.111,86.59 29.021,89.5 "
       id="polygon56617"
       transform="translate(-36.073,-17.643)"
       style="fill:#c37c1a;fill-opacity:1" /><polygon
       fill="#4472db"
       points="32.424,118.104 29.514,115.194 33.49,114.129 36.4,117.04 "
       id="polygon56619"
       transform="translate(-36.073,-17.643)"
       style="fill:#c37c1a;fill-opacity:1" /><polygon
       fill="#4472db"
       points="59.965,125.487 57.055,122.577 61.029,121.513 63.939,124.423 "
       id="polygon56621"
       transform="translate(-36.073,-17.643)"
       style="fill:#c37c1a;fill-opacity:1" /><polygon
       fill="#4472db"
       points="87.504,132.708 84.594,129.798 88.57,128.733 91.48,131.644 "
       id="polygon56623"
       transform="translate(-36.073,-17.643)"
       style="fill:#c37c1a;fill-opacity:1" /><polygon
       fill="#4472db"
       points="115.045,140.247 112.135,137.337 116.109,136.272 119.02,139.183 "
       id="polygon56625"
       transform="translate(-36.073,-17.643)"
       style="fill:#c37c1a;fill-opacity:1" /><polygon
       fill="#4472db"
       points="197.663,162.384 194.753,159.474 198.729,158.409 201.64,161.319 "
       id="polygon56627"
       transform="translate(-36.073,-17.643)"
       style="fill:#c37c1a;fill-opacity:1" /><polygon
       fill="#4472db"
       points="236.011,19.281 233.101,16.371 237.077,15.307 239.987,18.217 "
       id="polygon56629"
       transform="translate(-36.073,-17.643)"
       style="fill:#c37c1a;fill-opacity:1" /><polygon
       fill="#4472db"
       points="263.552,26.662 260.642,23.752 264.618,22.688 267.528,25.598 "
       id="polygon56631"
       transform="translate(-36.073,-17.643)"
       style="fill:#c37c1a;fill-opacity:1" /><polygon
       fill="#4472db"
       points="326.011,68.961 323.101,66.051 327.077,64.986 329.987,67.896 "
       id="polygon56633"
       transform="translate(-36.073,-17.643)"
       style="fill:#c37c1a;fill-opacity:1" /><polygon
       fill="#4472db"
       points="313.228,116.661 310.317,113.75 314.294,112.686 317.204,115.597 "
       id="polygon56635"
       transform="translate(-36.073,-17.643)"
       style="fill:#c37c1a;fill-opacity:1" /><polygon
       fill="#4472db"
       points="36.762,46.842 30.941,41.021 38.893,38.893 44.713,44.713 "
       id="polygon56637"
       transform="translate(-36.073,-17.643)"
       style="fill:#c37c1a;fill-opacity:1" /><polygon
       fill="#4472db"
       points="64.303,54.066 58.482,48.246 66.434,46.117 72.254,51.938 "
       id="polygon56639"
       transform="translate(-36.073,-17.643)"
       style="fill:#c37c1a;fill-opacity:1" /><polygon
       fill="#4472db"
       points="23.98,68.98 18.16,63.16 26.111,61.031 31.932,66.85 "
       id="polygon56641"
       transform="translate(-36.073,-17.643)"
       style="fill:#c37c1a;fill-opacity:1" /><polygon
       fill="#4472db"
       points="44.141,74.379 38.32,68.559 46.271,66.43 52.092,72.25 "
       id="polygon56643"
       transform="translate(-36.073,-17.643)"
       style="fill:#c37c1a;fill-opacity:1" /><polygon
       fill="#4472db"
       points="141.52,151.601 135.699,145.78 143.648,143.651 149.469,149.47 "
       id="polygon56645"
       transform="translate(-36.073,-17.643)"
       style="fill:#c37c1a;fill-opacity:1" /><polygon
       fill="#4472db"
       points="51.52,101.92 45.699,96.1 53.65,93.971 59.471,99.791 "
       id="polygon56647"
       transform="translate(-36.073,-17.643)"
       style="fill:#c37c1a;fill-opacity:1" /><polygon
       fill="#4472db"
       points="137.412,56.77 125.771,45.129 141.672,40.869 153.313,52.51 "
       id="polygon56649"
       transform="translate(-36.073,-17.643)"
       style="fill:#c37c1a;fill-opacity:1" /><polygon
       fill="#4472db"
       points="187.245,36.039 181.424,30.219 189.374,28.09 195.194,33.908 "
       id="polygon56651"
       transform="translate(-36.073,-17.643)"
       style="fill:#c37c1a;fill-opacity:1" /><polygon
       fill="#4472db"
       points="164.951,64.146 153.311,52.506 169.211,48.248 180.852,59.887 "
       id="polygon56653"
       transform="translate(-36.073,-17.643)"
       style="fill:#c37c1a;fill-opacity:1" /><polygon
       fill="#4472db"
       points="214.784,43.416 208.964,37.596 216.913,35.467 222.733,41.287 "
       id="polygon56655"
       transform="translate(-36.073,-17.643)"
       style="fill:#c37c1a;fill-opacity:1" /><polygon
       fill="#4472db"
       points="192.491,71.525 180.85,59.885 196.751,55.625 208.392,67.266 "
       id="polygon56657"
       transform="translate(-36.073,-17.643)"
       style="fill:#c37c1a;fill-opacity:1" /><polygon
       fill="#4472db"
       points="240.192,58.744 228.552,47.104 244.452,42.846 256.093,54.484 "
       id="polygon56659"
       transform="translate(-36.073,-17.643)"
       style="fill:#c37c1a;fill-opacity:1" /><polygon
       fill="#4472db"
       points="267.731,66.123 256.091,54.482 271.991,50.223 283.632,61.863 "
       id="polygon56661"
       transform="translate(-36.073,-17.643)"
       style="fill:#c37c1a;fill-opacity:1" /><polygon
       fill="#4472db"
       points="295.271,73.5 283.63,61.859 299.53,57.602 311.171,69.24 "
       id="polygon56663"
       transform="translate(-36.073,-17.643)"
       style="fill:#c37c1a;fill-opacity:1" /><polygon
       fill="#4472db"
       points="302.647,101.037 291.007,89.396 306.907,85.137 318.548,96.777 "
       id="polygon56665"
       transform="translate(-36.073,-17.643)"
       style="fill:#c37c1a;fill-opacity:1" /></g><path
     fill="none"
     d="m 106.017,56.926 c -2.035,2.417 -3.051,5.416 -3.051,8.997 0,3.58 1.016,6.58 3.051,8.996 0.207,0.246 0.425,0.471 0.645,0.692 1.544,0.914 3.319,1.375 5.33,1.375 3.238,0 5.875,-1.209 7.91,-3.625 2.035,-2.418 3.053,-5.416 3.053,-8.997 0,-3.581 -1.018,-6.579 -3.053,-8.997 -0.207,-0.246 -0.425,-0.471 -0.645,-0.692 -1.543,-0.914 -3.318,-1.375 -5.33,-1.375 -3.238,0 -5.875,1.209 -7.91,3.626 z"
     id="path56721" /><polygon
     fill="none"
     points="229.072,86.745 237.677,86.745 233.432,74.755 "
     id="polygon56739"
     transform="translate(-36.073,-17.643)" /><path
     fill="none"
     d="m 227.89,52.337 v 23.092 h 4.899 c 6.624,-0.018 9.944,-4.136 9.961,-12.354 -0.008,-4.358 -0.956,-7.548 -2.823,-9.596 -1.401,-0.757 -3.104,-1.142 -5.114,-1.142 z"
     id="path56749" /></g>



<text
   xml:space="preserve"
   style="font-style:normal;font-variant:normal;font-weight:normal;font-stretch:normal;font-size:59.895px;font-family:'Humnst777 BlkCn BT';-inkscape-font-specification:'Humnst777 BlkCn BT, Normal';font-variant-ligatures:normal;font-variant-caps:normal;font-variant-numeric:normal;font-variant-east-asian:normal;fill:#ffffff;fill-opacity:1;fill-rule:evenodd;stroke:#c38b24;stroke-width:0.834;stroke-dasharray:none;stroke-opacity:1"
   x="45.596733"
   y="84.357246"
   id="text56932"><tspan
     sodipodi:role="line"
     id="tspan56930"
     x="45.596733"
     y="84.357246"
     style="font-style:normal;font-variant:normal;font-weight:normal;font-stretch:normal;font-size:59.895px;font-family:'Humnst777 BlkCn BT';-inkscape-font-specification:'Humnst777 BlkCn BT, Normal';font-variant-ligatures:normal;font-variant-caps:normal;font-variant-numeric:normal;font-variant-east-asian:normal;fill:#ffffff;fill-opacity:1;stroke:#c38b24;stroke-width:0.834;stroke-dasharray:none;stroke-opacity:1">CAMELS</tspan></text></svg>
