<svg width="564" height="149" viewBox="0 0 564 149" fill="none" xmlns="http://www.w3.org/2000/svg">
<path d="M114.162 62.8008C129.902 62.8008 142.662 50.0409 142.662 34.3008C142.662 18.5607 129.902 5.80078 114.162 5.80078C98.422 5.80078 85.6621 18.5607 85.6621 34.3008C85.6621 50.0409 98.422 62.8008 114.162 62.8008Z" fill="#BF8A36" stroke="#BF8A36" stroke-width="10" stroke-miterlimit="10"/>
<path d="M134.263 95.2008C123.163 84.1008 105.163 84.1008 93.9625 95.2008C83.5625 105.601 66.9625 106.301 55.8625 97.1008C55.1625 96.3008 54.4625 95.4008 53.6625 94.6008C42.5625 83.5008 42.5625 65.5008 53.6625 54.3008C64.7625 43.2008 64.7625 25.2008 53.6625 14.0008C42.5625 2.90078 24.5625 2.90078 13.3625 14.0008C2.16254 25.1008 2.26254 43.1008 13.3625 54.3008C24.4625 65.4008 24.4625 83.4008 13.3625 94.6008C6.76254 101.201 4.06254 110.301 5.36254 118.901C6.16254 124.901 8.86255 130.801 13.4625 135.401C24.5625 146.501 42.5626 146.501 53.7626 135.401C64.9626 124.301 82.8625 124.301 94.0625 135.401C105.263 146.501 123.163 146.501 134.363 135.401C145.463 124.301 145.463 106.301 134.263 95.2008Z" fill="#2A4CDF" stroke="#2A4CDF" stroke-width="10" stroke-miterlimit="10"/>
<path d="M161.662 106C161.662 100.3 162.562 95.0001 164.362 90.3001C166.162 85.6001 168.762 81.4001 172.162 77.9001C175.562 74.4001 179.562 71.7001 184.262 69.7001C188.962 67.8001 194.162 66.7001 199.862 66.6001C205.562 66.5001 211.662 67.3001 218.162 69.3001C218.162 72.4001 218.162 75.6001 218.162 78.8001C218.162 82.0001 218.162 85.1001 218.162 88.3001C213.762 86.2001 209.362 85.0001 205.062 84.7001C200.762 84.4001 196.762 85.0001 193.262 86.5001C189.762 88.0001 186.962 90.4001 184.862 93.6001C182.762 96.8001 181.762 101 181.762 106.1C181.762 111.2 182.762 115.3 184.862 118.6C186.962 121.8 189.762 124.2 193.262 125.7C196.762 127.2 200.662 127.8 205.062 127.5C209.362 127.2 213.762 126 218.162 123.9C218.162 127 218.162 130.2 218.162 133.4C218.162 136.6 218.162 139.7 218.162 142.9C211.662 144.8 205.562 145.7 199.862 145.6C194.162 145.4 188.962 144.4 184.262 142.5C179.562 140.6 175.562 137.8 172.162 134.3C168.762 130.8 166.162 126.7 164.362 121.9C162.562 117 161.662 111.7 161.662 106Z" fill="#BF8A36"/>
<path d="M224.963 144.1C228.863 131.6 232.763 118.9 236.663 106C240.563 93.2004 244.463 80.5004 248.363 67.9004C252.763 67.9004 257.263 67.9004 261.763 67.9004C266.263 67.9004 270.763 67.9004 275.163 67.9004C279.063 80.4004 282.963 93.1004 286.863 106C290.763 118.8 294.663 131.5 298.563 144.1C295.363 144.1 292.063 144.1 288.763 144.1C285.463 144.1 282.163 144.1 278.863 144.1C278.163 141.7 277.363 139.3 276.763 136.9C276.063 134.5 275.363 132.1 274.663 129.7C270.363 129.7 266.163 129.7 261.863 129.7C257.563 129.7 253.263 129.7 249.063 129.7C248.363 132.1 247.563 134.5 246.963 136.9C246.263 139.3 245.563 141.7 244.863 144.1C241.663 144.1 238.363 144.1 235.063 144.1C231.563 144.1 228.263 144.1 224.963 144.1ZM253.863 112.9C256.463 112.9 259.063 112.9 261.763 112.9C264.363 112.9 267.063 112.9 269.663 112.9C268.363 108.5 267.063 104.1 265.763 99.6004C264.463 95.1004 263.063 90.7004 261.863 86.3004C260.563 90.7004 259.263 95.1004 257.863 99.6004C256.463 104.1 255.163 108.5 253.863 112.9Z" fill="#BF8A36"/>
<path d="M306.963 144.1C306.963 131.6 306.963 118.9 306.963 106C306.963 93.2004 306.963 80.5004 306.963 67.9004C311.563 67.9004 316.263 67.9004 320.963 67.9004C325.663 67.9004 330.363 67.9004 334.963 67.9004C337.163 75.5004 339.263 83.2004 341.363 91.0004C343.463 98.8004 345.563 106.5 347.663 114.1C349.763 106.5 351.863 98.8004 353.963 91.0004C356.063 83.2004 358.163 75.5004 360.263 67.9004C364.863 67.9004 369.563 67.9004 374.163 67.9004C378.763 67.9004 383.363 67.9004 387.963 67.9004C388.063 80.4004 388.063 93.1004 388.163 106C388.263 118.8 388.263 131.5 388.363 144.1C385.263 144.1 382.063 144.1 378.863 144.1C375.663 144.1 372.563 144.1 369.363 144.1C369.363 135.6 369.363 127 369.363 118.3C369.363 109.6 369.363 101 369.363 92.5004C367.163 101 364.863 109.6 362.563 118.3C360.263 127 357.963 135.6 355.763 144.1C352.963 144.1 350.163 144.1 347.263 144.1C344.363 144.1 341.563 144.1 338.663 144.1C336.463 135.7 334.163 127.3 331.963 118.7C329.763 110.2 327.463 101.7 325.263 93.3004C325.263 101.7 325.263 110.1 325.263 118.7C325.263 127.3 325.263 135.7 325.263 144.1C322.263 144.1 319.263 144.1 316.063 144.1C312.863 144.1 309.963 144.1 306.963 144.1Z" fill="#BF8A36"/>
<path d="M401.963 144.1C401.963 131.6 401.963 118.9 401.963 106C401.963 93.2004 401.963 80.5004 401.963 67.9004C409.463 67.9004 417.163 67.9004 424.763 67.9004C432.463 67.9004 440.063 67.9004 447.563 67.9004C447.563 70.7004 447.563 73.7004 447.563 76.6004C447.563 79.6004 447.563 82.5004 447.563 85.3004C443.263 85.3004 438.863 85.3004 434.563 85.3004C430.263 85.3004 425.863 85.3004 421.563 85.3004C421.563 87.2004 421.563 89.0004 421.563 90.8004C421.563 92.6004 421.563 94.5004 421.563 96.3004C425.563 96.3004 429.563 96.3004 433.563 96.3004C437.563 96.3004 441.563 96.3004 445.463 96.3004C445.463 99.1004 445.463 101.9 445.463 104.7C445.463 107.5 445.463 110.4 445.463 113.2C441.563 113.2 437.663 113.2 433.563 113.2C429.463 113.2 425.563 113.2 421.563 113.2C421.563 115.4 421.563 117.6 421.563 119.8C421.563 122 421.563 124.2 421.563 126.4C425.863 126.4 430.263 126.4 434.563 126.4C438.863 126.4 443.263 126.4 447.563 126.4C447.563 129.2 447.563 132.2 447.563 135.1C447.563 138 447.563 141 447.563 143.8C440.063 143.8 432.363 143.8 424.763 143.8C417.063 144.1 409.463 144.1 401.963 144.1Z" fill="#BF8A36"/>
<path d="M459.963 144.1C459.963 131.6 459.963 118.9 459.963 106C459.963 93.2004 459.963 80.5004 459.963 67.9004C463.263 67.9004 466.563 67.9004 469.863 67.9004C473.163 67.9004 476.363 67.9004 479.563 67.9004C479.563 77.5004 479.563 87.3004 479.563 97.1004C479.563 106.9 479.563 116.6 479.563 126.3C483.563 126.3 487.563 126.3 491.563 126.3C495.563 126.3 499.563 126.3 503.463 126.3C503.463 129.2 503.463 132.2 503.463 135.2C503.463 138.2 503.463 141.2 503.463 144.1C496.263 144.1 489.063 144.1 481.763 144.1C474.363 144.1 467.063 144.1 459.963 144.1Z" fill="#BF8A36"/>
<path d="M563.862 121.1C563.862 126.8 562.362 131.4 559.462 134.9C556.462 138.4 552.562 141 547.562 142.6C542.562 144.2 537.062 144.9 530.962 144.7C524.862 144.5 518.562 143.6 512.262 141.8C512.262 138.6 512.262 135.4 512.262 132.2C512.262 129 512.262 125.8 512.262 122.6C518.062 124.7 523.362 126 528.162 126.5C532.962 127 536.763 126.8 539.562 125.9C542.362 125 543.862 123.4 543.862 121.1C543.862 119.5 543.062 118.2 541.462 117.2C539.862 116.2 537.862 115.3 535.362 114.5C532.862 113.7 530.262 112.7 527.462 111.6C524.662 110.5 522.062 109.1 519.562 107.5C517.062 105.8 515.062 103.6 513.462 100.9C511.862 98.1996 511.062 94.7996 511.062 90.6996C511.062 85.5996 512.362 81.2996 515.062 77.7996C517.763 74.2996 521.362 71.5996 525.962 69.7996C530.562 67.9996 535.762 67.0996 541.662 67.0996C547.562 67.0996 553.562 67.9996 559.862 69.7996C559.862 72.9996 559.862 76.1996 559.862 79.3996C559.862 82.5996 559.862 85.7996 559.862 88.9996C554.662 86.7996 549.862 85.3996 545.462 84.8996C541.062 84.3996 537.562 84.5996 534.962 85.5996C532.362 86.4996 531.062 87.9996 531.062 90.0996C531.062 91.5996 531.862 92.7996 533.462 93.7996C535.062 94.7996 537.062 95.5996 539.562 96.3996C542.062 97.1996 544.662 98.0996 547.462 99.1996C550.262 100.3 552.862 101.7 555.362 103.5C557.862 105.3 559.862 107.5 561.462 110.3C563.062 113.2 563.862 116.8 563.862 121.1Z" fill="#BF8A36"/>
<path d="M163.463 56.7008C163.463 47.7008 163.463 38.7008 163.463 29.5008C163.463 20.3008 163.463 11.3008 163.463 2.30078C165.763 2.30078 168.163 2.30078 170.563 2.30078C172.963 2.30078 175.263 2.30078 177.563 2.30078C180.363 7.40078 183.263 12.5008 186.163 17.7008C189.063 22.9008 191.963 28.0008 194.763 33.1008C194.763 28.0008 194.763 22.9008 194.763 17.7008C194.763 12.5008 194.763 7.40078 194.763 2.30078C197.063 2.30078 199.363 2.30078 201.663 2.30078C203.963 2.30078 206.263 2.30078 208.563 2.30078C208.563 11.3008 208.563 20.3008 208.563 29.5008C208.563 38.7008 208.563 47.7008 208.563 56.7008C206.263 56.7008 203.963 56.7008 201.563 56.7008C199.163 56.7008 196.863 56.7008 194.463 56.7008C191.663 51.6008 188.763 46.5008 185.863 41.3008C182.963 36.1008 180.063 31.0008 177.263 25.9008C177.263 31.0008 177.263 36.1008 177.263 41.3008C177.263 46.5008 177.263 51.6008 177.263 56.7008C174.963 56.7008 172.663 56.7008 170.363 56.7008C168.063 56.7008 165.763 56.7008 163.463 56.7008Z" fill="#2A4CDF"/>
<path d="M240.562 58C236.662 58 233.063 57.3 229.763 55.9C226.463 54.5 223.563 52.5 221.163 49.9C218.763 47.3 216.862 44.3 215.562 40.8C214.263 37.3 213.562 33.5 213.562 29.4C213.562 25.3 214.263 21.5 215.562 18C216.862 14.5 218.763 11.5 221.163 9C223.563 6.5 226.463 4.49998 229.763 3.09998C233.063 1.69998 236.662 1 240.562 1C244.463 1 248.063 1.69998 251.363 3.09998C254.663 4.49998 257.462 6.5 259.962 9C262.362 11.5 264.263 14.5 265.562 18C266.862 21.5 267.562 25.3 267.562 29.4C267.562 33.5 266.862 37.3 265.562 40.8C264.263 44.3 262.362 47.3 259.962 49.9C257.562 52.5 254.663 54.4 251.363 55.9C248.063 57.3 244.463 58 240.562 58ZM240.562 45C243.162 45 245.463 44.3 247.263 43C249.163 41.7 250.563 39.9 251.663 37.5C252.663 35.2 253.263 32.4 253.263 29.3C253.263 26.2 252.763 23.5 251.663 21.2C250.663 18.9 249.163 17.1 247.263 15.8C245.363 14.5 243.162 13.8 240.562 13.8C237.963 13.8 235.763 14.4 233.863 15.7C231.963 17 230.462 18.8 229.462 21.1C228.462 23.4 227.863 26.1 227.863 29.2C227.863 32.3 228.362 35 229.462 37.4C230.462 39.7 231.963 41.6 233.863 42.9C235.763 44.4 238.062 45 240.562 45Z" fill="#2A4CDF"/>
<path d="M272.662 56.7008C272.662 47.7008 272.662 38.7008 272.662 29.5008C272.662 20.3008 272.662 11.3008 272.662 2.30078C275.962 2.30078 279.262 2.30078 282.662 2.30078C286.062 2.30078 289.362 2.30078 292.662 2.30078C294.162 7.70078 295.762 13.2008 297.262 18.8008C298.762 24.4008 300.262 29.9008 301.762 35.3008C303.262 29.9008 304.762 24.4008 306.262 18.8008C307.762 13.2008 309.262 7.70078 310.762 2.30078C314.062 2.30078 317.362 2.30078 320.662 2.30078C323.962 2.30078 327.262 2.30078 330.462 2.30078C330.562 11.3008 330.562 20.3008 330.662 29.5008C330.762 38.7008 330.762 47.7008 330.862 56.7008C328.662 56.7008 326.362 56.7008 324.062 56.7008C321.762 56.7008 319.562 56.7008 317.262 56.7008C317.262 50.6008 317.262 44.5008 317.262 38.3008C317.262 32.1008 317.262 25.9008 317.262 19.9008C315.662 26.0008 314.062 32.1008 312.362 38.3008C310.662 44.5008 309.062 50.7008 307.462 56.7008C305.462 56.7008 303.462 56.7008 301.462 56.7008C299.362 56.7008 297.362 56.7008 295.362 56.7008C293.762 50.7008 292.162 44.7008 290.562 38.6008C288.962 32.5008 287.362 26.5008 285.762 20.5008C285.762 26.5008 285.762 32.5008 285.762 38.6008C285.762 44.7008 285.762 50.7008 285.762 56.7008C283.662 56.7008 281.462 56.7008 279.162 56.7008C277.062 56.7008 274.862 56.7008 272.662 56.7008Z" fill="#2A4CDF"/>
<path d="M336.062 56.7008C338.862 47.7008 341.662 38.7008 344.462 29.5008C347.262 20.3008 350.063 11.3008 352.863 2.30078C355.963 2.30078 359.162 2.30078 362.462 2.30078C365.662 2.30078 368.862 2.30078 372.062 2.30078C374.862 11.3008 377.662 20.3008 380.462 29.5008C383.262 38.7008 386.063 47.7008 388.863 56.7008C386.563 56.7008 384.263 56.7008 381.863 56.7008C379.463 56.7008 377.163 56.7008 374.763 56.7008C374.263 55.0008 373.763 53.3008 373.263 51.5008C372.763 49.8008 372.263 48.0008 371.763 46.3008C368.763 46.3008 365.662 46.3008 362.562 46.3008C359.463 46.3008 356.463 46.3008 353.363 46.3008C352.863 48.0008 352.363 49.7008 351.863 51.5008C351.363 53.2008 350.863 55.0008 350.363 56.7008C348.063 56.7008 345.763 56.7008 343.363 56.7008C340.763 56.7008 338.463 56.7008 336.062 56.7008ZM356.763 34.5008C358.663 34.5008 360.463 34.5008 362.363 34.5008C364.263 34.5008 366.162 34.5008 367.962 34.5008C367.062 31.4008 366.163 28.2008 365.163 25.0008C364.163 21.8008 363.263 18.6008 362.363 15.5008C361.463 18.6008 360.462 21.8008 359.562 25.0008C358.562 28.1008 357.663 31.3008 356.763 34.5008Z" fill="#2A4CDF"/>
<path d="M394.662 56.7008C394.662 47.7008 394.662 38.7008 394.662 29.5008C394.662 20.3008 394.662 11.3008 394.662 2.30078C397.862 2.30078 401.062 2.30078 404.362 2.30078C407.662 2.30078 410.862 2.30078 414.062 2.30078C417.962 2.30078 421.662 3.00078 424.962 4.30078C428.262 5.70078 431.162 7.60079 433.562 10.0008C436.062 12.5008 437.962 15.3008 439.262 18.6008C440.662 21.9008 441.262 25.5008 441.262 29.4008C441.262 33.3008 440.562 36.9008 439.262 40.2008C437.862 43.5008 435.962 46.4008 433.562 48.9008C431.062 51.4008 428.262 53.3008 424.962 54.7008C421.662 56.1008 418.062 56.7008 414.062 56.7008C410.862 56.7008 407.662 56.7008 404.362 56.7008C401.062 56.7008 397.862 56.7008 394.662 56.7008ZM413.962 14.9008C413.062 14.9008 412.262 14.9008 411.362 14.9008C410.462 14.9008 409.562 14.9008 408.662 14.9008C408.662 19.7008 408.662 24.6008 408.662 29.5008C408.662 34.4008 408.662 39.3008 408.662 44.1008C409.562 44.1008 410.462 44.1008 411.362 44.1008C412.262 44.1008 413.162 44.1008 413.962 44.1008C416.662 44.1008 418.962 43.5008 420.962 42.2008C422.962 40.9008 424.462 39.2008 425.562 37.0008C426.662 34.8008 427.162 32.3008 427.162 29.5008C427.162 26.7008 426.662 24.2008 425.562 22.1008C424.462 19.9008 422.962 18.2008 420.962 16.9008C418.962 15.6008 416.662 14.9008 413.962 14.9008Z" fill="#2A4CDF"/>
</svg>
