<?xml version="1.0" encoding="utf-8"?>
<!-- Generator: Adobe Illustrator 27.5.0, SVG Export Plug-In . SVG Version: 6.00 Build 0)  -->
<svg version="1.1" id="Layer_1" xmlns="http://www.w3.org/2000/svg" xmlns:xlink="http://www.w3.org/1999/xlink" x="0px" y="0px"
	 viewBox="0 0 2000 680" style="enable-background:new 0 0 2000 680;" xml:space="preserve">
<style type="text/css">
	.st0{fill:#008A67;stroke:#008A67;stroke-width:40.6431;stroke-miterlimit:10;}
	.st1{fill:#2A4CDF;stroke:#2A4CDF;stroke-width:40.6431;stroke-miterlimit:10;}
	.st2{fill:#008A67;}
	.st3{fill:#2A4CDF;}
</style>
<g>
	<path class="st0" d="M506.1,296.7c64,0,115.8-51.9,115.8-115.8S570.1,65,506.1,65s-115.8,51.9-115.8,115.8S442.1,296.7,506.1,296.7
		z"/>
	<path class="st1" d="M587.8,428.4c-45.1-45.1-118.3-45.1-163.8,0c-42.3,42.3-109.7,45.1-154.9,7.7c-2.8-3.3-5.7-6.9-8.9-10.2
		c-45.1-45.1-45.1-118.3,0-163.8c45.1-45.1,45.1-118.3,0-163.8s-118.3-45.1-163.8,0c-45.5,45.1-45.1,118.3,0,163.8
		c45.1,45.1,45.1,118.3,0,163.8c-26.8,26.8-37.8,63.8-32.5,98.8c3.3,24.4,14.2,48.4,32.9,67.1c45.1,45.1,118.3,45.1,163.8,0
		s118.3-45.1,163.8,0c45.1,45.1,118.3,45.1,163.8,0C632.9,546.7,632.9,473.5,587.8,428.4z"/>
	<path class="st2" d="M852.4,634.5c-22.4,0-42.7-4.1-61.4-12.2c-18.7-8.1-35-19.5-48.8-33.7c-13.8-14.6-24.4-31.7-31.7-51.6
		c-7.7-19.9-11.4-41.5-11.4-65c0-23.2,3.7-44.7,11.4-64.6c7.7-19.9,18.3-37,31.7-51.2c13.8-14.2,30.1-25.6,48.8-33.7
		c18.7-8.1,39.4-12.2,61.4-12.2s42.7,4.1,61.4,12.2c18.7,8.1,35,19.1,48.8,33.7c13.8,14.2,24.4,31.3,32.1,51.2s11.4,41.5,11.4,64.6
		c0,23.6-3.7,45.1-11.4,65s-18.3,37-32.1,51.6c-13.8,14.6-30.1,26-48.8,33.7C895.1,630.4,874.7,634.5,852.4,634.5z M852.4,560.5
		c15,0,27.6-3.7,38.2-11c10.6-7.3,18.7-17.9,24.8-31.3c6.1-13.4,8.9-28.9,8.9-46.3c0-17.5-2.8-32.9-8.9-45.9
		c-6.1-13-14.2-23.2-24.8-30.9c-10.6-7.3-23.6-11-38.2-11s-27.2,3.7-38.2,11c-11,7.3-19.1,17.5-25.2,30.9
		c-6.1,13.4-8.9,28.5-8.9,46.3c0,17.5,2.8,32.9,8.9,46.3c6.1,13.4,14.2,23.6,25.2,31.3C825.2,556.8,837.8,560.5,852.4,560.5z"/>
	<path class="st2" d="M1021.9,627.1c15.9-50.8,31.7-102.4,47.6-154.9c15.9-52,31.7-103.6,47.5-154.8c17.9,0,36.2,0,54.5,0
		s36.6,0,54.5,0c15.9,50.8,31.7,102.4,47.5,154.8c15.9,52,31.7,103.6,47.6,154.9c-13,0-26.4,0-39.8,0c-13.4,0-26.8,0-40.2,0
		c-2.8-9.8-6.1-19.5-8.5-29.3c-2.8-9.8-5.7-19.5-8.5-29.3c-17.5,0-34.6,0-52,0s-34.9,0-52,0c-2.8,9.8-6.1,19.5-8.5,29.3
		c-2.8,9.8-5.7,19.5-8.5,29.3c-13,0-26.4,0-39.8,0C1048.7,627.1,1035.3,627.1,1021.9,627.1z M1139.3,500.3c10.6,0,21.1,0,32.1,0
		c10.6,0,21.5,0,32.1,0c-5.3-17.9-10.6-35.8-15.9-54.1c-5.3-18.3-11-36.2-15.9-54.1c-5.3,17.9-10.6,35.8-16.3,54.1
		C1149.9,464.6,1144.2,482.5,1139.3,500.3z"/>
	<path class="st2" d="M1558.4,533.7c0,23.2-6.1,41.9-17.9,56.1c-12.2,14.2-28,24.8-48.4,31.3c-20.3,6.5-42.7,9.3-67.5,8.5
		c-24.8-0.8-50.4-4.5-76-11.8c0-13,0-26,0-39s0-26,0-39c23.6,8.5,45.1,13.8,64.6,15.9c19.5,2,35,1.2,46.3-2.4
		c11.4-3.7,17.5-10.2,17.5-19.5c0-6.5-3.3-11.8-9.8-15.9c-6.5-4.1-14.6-7.7-24.8-11c-10.2-3.3-20.7-7.3-32.1-11.8
		c-11.4-4.5-21.9-10.2-32.1-16.7c-10.2-6.9-18.3-15.9-24.8-26.8c-6.5-11-9.8-24.8-9.8-41.5c0-20.7,5.3-38.2,16.3-52.4
		c11-14.2,25.6-25.2,44.3-32.5c18.7-7.3,39.8-11,63.8-11c24,0,48.4,3.7,74,11c0,13,0,26,0,39s0,26,0,39
		c-21.1-8.9-40.6-14.6-58.5-16.7s-32.1-1.2-42.7,2.8c-10.6,3.7-15.9,9.8-15.9,18.3c0,6.1,3.3,11,9.8,15c6.5,4.1,14.6,7.3,24.8,10.6
		c10.2,3.3,20.7,6.9,32.1,11.4c11.4,4.5,21.9,10.2,32.1,17.5c10.2,7.3,18.3,16.3,24.8,27.6C1555.1,501.6,1558.4,516.2,1558.4,533.7z
		"/>
	<path class="st2" d="M1597.8,627.1c0-50.8,0-102.4,0-154.9c0-52,0-103.6,0-154.8c13.4,0,26.8,0,40.2,0c13.4,0,26.4,0,39.4,0
		c0,50.8,0,102.4,0,154.8c0,52,0,103.6,0,154.9c-13,0-26.4,0-39.4,0C1624.2,627.1,1610.8,627.1,1597.8,627.1z"/>
	<path class="st2" d="M1937.6,533.7c0,23.2-6.1,41.9-17.9,56.1c-12.2,14.2-28,24.8-48.4,31.3c-20.3,6.5-42.7,9.3-67.5,8.5
		c-24.8-0.8-50.4-4.5-76-11.8c0-13,0-26,0-39s0-26,0-39c23.6,8.5,45.1,13.8,64.6,15.9c19.5,2,35,1.2,46.3-2.4
		c11.4-3.7,17.5-10.2,17.5-19.5c0-6.5-3.3-11.8-9.8-15.9c-6.5-4.1-14.6-7.7-24.8-11c-10.2-3.3-20.7-7.3-32.1-11.8
		c-11.4-4.5-21.9-10.2-32.1-16.7c-10.2-6.9-18.3-15.9-24.8-26.8c-6.5-11-9.8-24.8-9.8-41.5c0-20.7,5.3-38.2,16.3-52.4
		c11-14.2,25.6-25.2,44.3-32.5c18.7-7.3,39.8-11,63.8-11c24,0,48.4,3.7,74,11c0,13,0,26,0,39s0,26,0,39
		c-21.1-8.9-40.6-14.6-58.5-16.7s-32.1-1.2-42.7,2.8c-10.6,3.7-15.9,9.8-15.9,18.3c0,6.1,3.3,11,9.8,15s14.6,7.3,24.8,10.6
		c10.2,3.3,20.7,6.9,32.1,11.4c11.4,4.5,21.9,10.2,32.1,17.5s18.3,16.3,24.8,27.6C1934.3,501.6,1937.6,516.2,1937.6,533.7z"/>
	<path class="st3" d="M706.1,271.9c0-36.6,0-73.2,0-110.5s0-74,0-110.5c9.3,0,19.1,0,28.9,0s19.1,0,28.5,0
		c11.4,20.7,23.2,41.5,35,62.6c11.8,21.1,23.6,41.9,35,62.6c0-20.7,0-41.5,0-62.6s0-41.9,0-62.6c9.3,0,18.7,0,28,0
		c9.3,0,18.7,0,28,0c0,36.6,0,73.2,0,110.5s0,74,0,110.5c-9.3,0-18.7,0-28.5,0c-9.8,0-19.1,0-28.9,0c-11.4-20.7-23.2-41.5-35-62.6
		s-23.6-41.9-35-62.6c0,20.7,0,41.5,0,62.6s0,41.9,0,62.6c-9.3,0-18.7,0-28,0S715.4,271.9,706.1,271.9z"/>
	<path class="st3" d="M1019.8,277.2c-15.9,0-30.5-2.8-43.9-8.5c-13.4-5.7-25.2-13.8-35-24.4c-9.8-10.6-17.5-22.8-22.8-37
		c-5.3-14.2-8.1-29.7-8.1-46.3s2.8-32.1,8.1-46.3c5.3-14.2,13-26.4,22.8-36.6s21.5-18.3,35-24c13.4-5.7,28-8.5,43.9-8.5
		s30.5,2.8,43.9,8.5c13.4,5.7,24.8,13.8,35,24c9.8,10.2,17.5,22.4,22.8,36.6c5.3,14.2,8.1,29.7,8.1,46.3s-2.8,32.1-8.1,46.3
		c-5.3,14.2-13,26.4-22.8,37c-9.8,10.6-21.5,18.3-35,24.4C1049.9,274.4,1035.7,277.2,1019.8,277.2z M1019.8,224.4
		c10.6,0,19.9-2.8,27.2-8.1c7.7-5.3,13.4-12.6,17.9-22.4c4.1-9.3,6.5-20.7,6.5-33.3c0-12.6-2-23.6-6.5-32.9
		c-4.1-9.3-10.2-16.7-17.9-21.9c-7.7-5.3-16.7-8.1-27.2-8.1c-10.6,0-19.5,2.4-27.2,7.7c-7.7,5.3-13.8,12.6-17.9,21.9
		c-4.1,9.3-6.5,20.3-6.5,32.9s2,23.6,6.5,33.3c4.1,9.3,10.2,17.1,17.9,22.4C1000.3,221.9,1009.3,224.4,1019.8,224.4z"/>
	<path class="st3" d="M1149.9,271.9c0-36.6,0-73.2,0-110.5s0-74,0-110.5c13.4,0,26.8,0,40.6,0s27.2,0,40.6,0
		c6.1,21.9,12.6,44.3,18.7,67.1s12.2,45.1,18.3,67.1c6.1-21.9,12.2-44.3,18.3-67.1c6.1-22.8,12.2-45.1,18.3-67.1
		c13.4,0,26.8,0,40.2,0s26.8,0,39.8,0c0.4,36.6,0.4,73.2,0.8,110.5s0.4,74,0.8,110.5c-8.9,0-18.3,0-27.6,0s-18.3,0-27.6,0
		c0-24.8,0-49.6,0-74.8s0-50.4,0-74.8c-6.5,24.8-13,49.6-19.9,74.8s-13.4,50.4-19.9,74.8c-8.1,0-16.3,0-24.4,0c-8.5,0-16.7,0-24.8,0
		c-6.5-24.4-13-48.8-19.5-73.6s-13-49.2-19.5-73.6c0,24.4,0,48.8,0,73.6s0,49.2,0,73.6c-8.5,0-17.5,0-26.8,0
		C1167,271.9,1158.8,271.9,1149.9,271.9z"/>
	<path class="st3" d="M1408,271.9c11.4-36.6,22.8-73.2,34.1-110.5s22.8-74,34.1-110.5c12.6,0,25.6,0,39,0c13.4,0,26,0,39,0
		c11.4,36.6,22.8,73.2,34.1,110.5s22.8,74,34.1,110.5c-9.3,0-18.7,0-28.5,0c-9.8,0-19.1,0-28.9,0c-2-6.9-4.1-13.8-6.1-21.1
		c-2-6.9-4.1-14.2-6.1-21.1c-12.2,0-24.8,0-37.4,0c-12.6,0-24.8,0-37.4,0c-2,6.9-4.1,13.8-6.1,21.1c-2,6.9-4.1,14.2-6.1,21.1
		c-9.3,0-18.7,0-28.5,0C1427.1,271.9,1417.3,271.9,1408,271.9z M1491.7,181.7c7.7,0,15,0,22.8,0c7.7,0,15.4,0,22.8,0
		c-3.7-12.6-7.3-25.6-11.4-38.6c-4.1-13-7.7-26-11.4-38.6c-3.7,12.6-7.7,25.6-11.4,38.6C1499.4,155.7,1495.4,168.7,1491.7,181.7z"/>
	<path class="st3" d="M1645.7,271.9c0-36.6,0-73.2,0-110.5s0-74,0-110.5c13,0,26,0,39.4,0s26.4,0,39.4,0c15.9,0,30.9,2.8,44.3,8.1
		c13.4,5.7,25.2,13.4,35,23.2c10.2,10.2,17.9,21.5,23.2,35c5.7,13.4,8.1,28,8.1,43.9s-2.8,30.5-8.1,43.9
		c-5.7,13.4-13.4,25.2-23.2,35.4c-10.2,10.2-21.5,17.9-35,23.6c-13.4,5.7-28,8.1-44.3,8.1c-13,0-26,0-39.4,0
		C1672.2,271.9,1658.7,271.9,1645.7,271.9z M1724.6,102c-3.7,0-6.9,0-10.6,0c-3.7,0-7.3,0-11,0c0,19.5,0,39.4,0,59.3s0,39.8,0,59.3
		c3.7,0,7.3,0,11,0c3.7,0,7.3,0,10.6,0c11,0,20.3-2.4,28.5-7.7c8.1-5.3,14.2-12.2,18.7-21.1s6.5-19.1,6.5-30.5
		c0-11.4-2-21.5-6.5-30.1c-4.5-8.9-10.6-15.9-18.7-21.1C1744.9,104.9,1735.6,102,1724.6,102z"/>
</g>
</svg>
