<?xml version="1.0" encoding="UTF-8" standalone="no"?>
<!-- Generator: Adobe Illustrator 15.0.0, SVG Export Plug-In  -->

<svg
   version="1.1"
   x="0px"
   y="0px"
   width="84.075996"
   height="84.076279"
   viewBox="-36.073 -17.643 84.075997 84.076279"
   enable-background="new -36.073 -17.643 425 227"
   xml:space="preserve"
   id="svg56757"
   sodipodi:docname="CAMELS_Icon.svg"
   inkscape:version="1.2.1 (9c6d41e410, 2022-07-14)"
   inkscape:export-filename="CAMELS_Icon.png"
   inkscape:export-xdpi="600"
   inkscape:export-ydpi="600"
   xmlns:inkscape="http://www.inkscape.org/namespaces/inkscape"
   xmlns:sodipodi="http://sodipodi.sourceforge.net/DTD/sodipodi-0.dtd"
   xmlns="http://www.w3.org/2000/svg"
   xmlns:svg="http://www.w3.org/2000/svg"><sodipodi:namedview
   id="namedview56759"
   pagecolor="#ffffff"
   bordercolor="#000000"
   borderopacity="0.25"
   inkscape:showpageshadow="2"
   inkscape:pageopacity="0.0"
   inkscape:pagecheckerboard="0"
   inkscape:deskcolor="#d1d1d1"
   showgrid="false"
   showguides="true"
   inkscape:zoom="2.0792952"
   inkscape:cx="-131.53495"
   inkscape:cy="8.1758473"
   inkscape:window-width="1920"
   inkscape:window-height="1137"
   inkscape:window-x="1912"
   inkscape:window-y="-8"
   inkscape:window-maximized="1"
   inkscape:current-layer="svg56757" />
<defs
   id="defs56305">
<clipPath
   clipPathUnits="userSpaceOnUse"
   id="clipPath841"><rect
     style="fill:#000000;fill-rule:evenodd;stroke:none;stroke-width:0.744502"
     id="rect843"
     width="78.757027"
     height="78.757027"
     x="91.126053"
     y="30.363083" /></clipPath></defs>





























































































































































































































<g
   id="g60552"
   transform="matrix(1.0675364,0,0,1.0675364,-133.35324,-50.056557)"
   clip-path="url(#clipPath841)"><g
     id="g58080"
     style="fill:#f7b117;fill-opacity:1"><polygon
       fill="#17a5f7"
       points="93.973,53.652 105.613,65.293 109.873,49.391 98.234,37.752 "
       id="polygon56307"
       transform="translate(-36.073,-17.643)"
       style="fill:#f7b117;fill-opacity:1" /><polygon
       fill="#17a5f7"
       points="73.811,73.811 85.451,85.451 89.711,69.549 78.072,57.91 "
       id="polygon56309"
       transform="translate(-36.073,-17.643)"
       style="fill:#f7b117;fill-opacity:1" /><polygon
       fill="#17a5f7"
       points="121.512,61.031 133.152,72.67 137.412,56.77 125.773,45.131 "
       id="polygon56311"
       transform="translate(-36.073,-17.643)"
       style="fill:#f7b117;fill-opacity:1" /><polygon
       fill="#17a5f7"
       points="101.35,81.189 112.99,92.828 117.25,76.928 105.611,65.289 "
       id="polygon56313"
       transform="translate(-36.073,-17.643)"
       style="fill:#f7b117;fill-opacity:1" /><polygon
       fill="#17a5f7"
       points="149.051,68.408 160.691,80.049 164.951,64.146 153.313,52.508 "
       id="polygon56315-4"
       transform="translate(-36.073,-17.643)"
       style="fill:#f7b117;fill-opacity:1" /><polygon
       fill="#17a5f7"
       points="128.889,88.566 140.529,100.207 144.789,84.305 133.15,72.666 "
       id="polygon56317"
       transform="translate(-36.073,-17.643)"
       style="fill:#f7b117;fill-opacity:1" /><polygon
       fill="#17a5f7"
       points="176.59,75.787 188.231,87.426 192.491,71.525 180.852,59.887 "
       id="polygon56319-0"
       transform="translate(-36.073,-17.643)"
       style="fill:#f7b117;fill-opacity:1" /><polygon
       fill="#17a5f7"
       points="156.428,95.945 168.068,107.584 172.328,91.684 160.689,80.045 "
       id="polygon56321-0"
       transform="translate(-36.073,-17.643)"
       style="fill:#f7b117;fill-opacity:1" /><polygon
       fill="#17a5f7"
       points="204.13,83.164 215.771,94.805 220.03,78.902 208.392,67.264 "
       id="polygon56323-0"
       transform="translate(-36.073,-17.643)"
       style="fill:#f7b117;fill-opacity:1" /><polygon
       fill="#17a5f7"
       points="183.968,103.322 195.608,114.963 199.868,99.061 188.229,87.422 "
       id="polygon56325-3"
       transform="translate(-36.073,-17.643)"
       style="fill:#f7b117;fill-opacity:1" /><polygon
       fill="#17a5f7"
       points="231.669,90.543 243.31,102.182 247.569,86.281 235.931,74.643 "
       id="polygon56327"
       transform="translate(-36.073,-17.643)"
       style="fill:#f7b117;fill-opacity:1" /><polygon
       fill="#17a5f7"
       points="211.507,110.701 223.147,122.341 227.407,106.439 215.769,94.801 "
       id="polygon56329-7"
       transform="translate(-36.073,-17.643)"
       style="fill:#f7b117;fill-opacity:1" /><polygon
       fill="#17a5f7"
       points="81.189,101.352 92.83,112.99 97.09,97.09 85.451,85.451 "
       id="polygon56331"
       transform="translate(-36.073,-17.643)"
       style="fill:#f7b117;fill-opacity:1" /><polygon
       fill="#17a5f7"
       points="108.729,108.729 120.369,120.37 124.629,104.467 112.99,92.828 "
       id="polygon56333"
       transform="translate(-36.073,-17.643)"
       style="fill:#f7b117;fill-opacity:1" /><polygon
       fill="#17a5f7"
       points="136.268,116.108 147.908,127.747 152.168,111.846 140.529,100.207 "
       id="polygon56335"
       transform="translate(-36.073,-17.643)"
       style="fill:#f7b117;fill-opacity:1" /><polygon
       fill="#17a5f7"
       points="163.807,123.485 175.447,135.126 179.707,119.224 168.068,107.584 "
       id="polygon56337-5"
       transform="translate(-36.073,-17.643)"
       style="fill:#f7b117;fill-opacity:1" /><polygon
       fill="#17a5f7"
       points="191.347,130.864 202.987,142.503 207.247,126.603 195.608,114.963 "
       id="polygon56339"
       transform="translate(-36.073,-17.643)"
       style="fill:#f7b117;fill-opacity:1" /><polygon
       fill="#17a5f7"
       points="218.886,138.241 224.706,144.062 226.837,136.11 221.017,130.292 "
       id="polygon56341"
       transform="translate(-36.073,-17.643)"
       style="fill:#f7b117;fill-opacity:1" /><polygon
       fill="#17a5f7"
       points="246.431,145.63 252.251,151.448 254.382,143.499 248.562,137.679 "
       id="polygon56343"
       transform="translate(-36.073,-17.643)"
       style="fill:#f7b117;fill-opacity:1" /><polygon
       fill="#17a5f7"
       points="334.454,92.527 340.274,98.346 342.405,90.396 336.585,84.576 "
       id="polygon56345"
       transform="translate(-36.073,-17.643)"
       style="fill:#f7b117;fill-opacity:1" /><polygon
       fill="#17a5f7"
       points="292.157,30.066 297.978,35.885 300.106,27.936 294.288,22.115 "
       id="polygon56347"
       transform="translate(-36.073,-17.643)"
       style="fill:#f7b117;fill-opacity:1" /><polygon
       fill="#17a5f7"
       points="259.208,97.92 270.849,109.561 275.108,93.658 263.47,82.02 "
       id="polygon56349"
       transform="translate(-36.073,-17.643)"
       style="fill:#f7b117;fill-opacity:1" /><polygon
       fill="#17a5f7"
       points="239.046,118.079 250.687,129.72 254.946,113.816 243.308,102.178 "
       id="polygon56351"
       transform="translate(-36.073,-17.643)"
       style="fill:#f7b117;fill-opacity:1" /><polygon
       fill="#17a5f7"
       points="286.747,105.299 298.388,116.938 302.647,101.037 291.009,89.398 "
       id="polygon56353"
       transform="translate(-36.073,-17.643)"
       style="fill:#f7b117;fill-opacity:1" /><polygon
       fill="#17a5f7"
       points="266.585,125.458 278.226,137.097 282.485,121.196 270.847,109.557 "
       id="polygon56355"
       transform="translate(-36.073,-17.643)"
       style="fill:#f7b117;fill-opacity:1" /><polygon
       fill="#17a5f7"
       points="161.834,20.711 167.654,26.531 169.785,18.58 163.965,12.762 "
       id="polygon56357"
       transform="translate(-36.073,-17.643)"
       style="fill:#f7b117;fill-opacity:1" /><polygon
       fill="#17a5f7"
       points="114.135,33.49 119.955,39.311 122.084,31.359 116.266,25.541 "
       id="polygon56359"
       transform="translate(-36.073,-17.643)"
       style="fill:#f7b117;fill-opacity:1" /><polygon
       fill="#17a5f7"
       points="134.295,13.33 137.205,16.24 138.271,12.266 135.361,9.355 "
       id="polygon56361"
       transform="translate(-36.073,-17.643)"
       style="fill:#f7b117;fill-opacity:1" /><polygon
       fill="#17a5f7"
       points="86.596,26.111 89.506,29.021 90.57,25.047 87.66,22.137 "
       id="polygon56363"
       transform="translate(-36.073,-17.643)"
       style="fill:#f7b117;fill-opacity:1" /><polygon
       fill="#17a5f7"
       points="59.055,18.734 61.965,21.645 63.031,17.67 60.121,14.76 "
       id="polygon56365"
       transform="translate(-36.073,-17.643)"
       style="fill:#f7b117;fill-opacity:1" /><polygon
       fill="#17a5f7"
       points="3.977,3.975 6.887,6.885 7.951,2.91 5.041,0 "
       id="polygon56367"
       transform="translate(-36.073,-17.643)"
       style="fill:#f7b117;fill-opacity:1" /><polygon
       fill="#17a5f7"
       points="11.354,31.514 14.264,34.424 15.328,30.449 12.418,27.539 "
       id="polygon56369"
       transform="translate(-36.073,-17.643)"
       style="fill:#f7b117;fill-opacity:1" /><polygon
       fill="#17a5f7"
       points="26.111,86.59 29.021,89.5 30.086,85.525 27.176,82.615 "
       id="polygon56371"
       transform="translate(-36.073,-17.643)"
       style="fill:#f7b117;fill-opacity:1" /><polygon
       fill="#17a5f7"
       points="33.49,114.129 36.4,117.04 37.465,113.064 34.555,110.154 "
       id="polygon56373"
       transform="translate(-36.073,-17.643)"
       style="fill:#f7b117;fill-opacity:1" /><polygon
       fill="#17a5f7"
       points="61.029,121.513 63.939,124.423 65.006,120.448 62.096,117.538 "
       id="polygon56375"
       transform="translate(-36.073,-17.643)"
       style="fill:#f7b117;fill-opacity:1" /><polygon
       fill="#17a5f7"
       points="88.57,128.733 91.48,131.644 92.545,127.669 89.635,124.759 "
       id="polygon56377"
       transform="translate(-36.073,-17.643)"
       style="fill:#f7b117;fill-opacity:1" /><polygon
       fill="#17a5f7"
       points="116.109,136.272 119.02,139.183 120.086,135.208 117.176,132.298 "
       id="polygon56379"
       transform="translate(-36.073,-17.643)"
       style="fill:#f7b117;fill-opacity:1" /><polygon
       fill="#17a5f7"
       points="198.729,158.409 201.64,161.319 202.704,157.345 199.794,154.435 "
       id="polygon56381"
       transform="translate(-36.073,-17.643)"
       style="fill:#f7b117;fill-opacity:1" /><polygon
       fill="#17a5f7"
       points="237.077,15.307 239.987,18.217 241.052,14.242 238.142,11.332 "
       id="polygon56383"
       transform="translate(-36.073,-17.643)"
       style="fill:#f7b117;fill-opacity:1" /><polygon
       fill="#17a5f7"
       points="264.618,22.688 267.528,25.598 268.593,21.623 265.683,18.713 "
       id="polygon56385"
       transform="translate(-36.073,-17.643)"
       style="fill:#f7b117;fill-opacity:1" /><polygon
       fill="#17a5f7"
       points="327.077,64.986 329.987,67.896 331.052,63.922 328.142,61.012 "
       id="polygon56387"
       transform="translate(-36.073,-17.643)"
       style="fill:#f7b117;fill-opacity:1" /><polygon
       fill="#17a5f7"
       points="314.294,112.686 317.204,115.597 318.269,111.621 315.358,108.711 "
       id="polygon56389"
       transform="translate(-36.073,-17.643)"
       style="fill:#f7b117;fill-opacity:1" /><polygon
       fill="#17a5f7"
       points="38.893,38.893 44.713,44.713 46.842,36.762 41.023,30.943 "
       id="polygon56391"
       transform="translate(-36.073,-17.643)"
       style="fill:#f7b117;fill-opacity:1" /><polygon
       fill="#17a5f7"
       points="66.434,46.117 72.254,51.938 74.383,43.986 68.564,38.168 "
       id="polygon56393"
       transform="translate(-36.073,-17.643)"
       style="fill:#f7b117;fill-opacity:1" /><polygon
       fill="#17a5f7"
       points="26.111,61.031 31.932,66.85 34.061,58.9 28.242,53.08 "
       id="polygon56395"
       transform="translate(-36.073,-17.643)"
       style="fill:#f7b117;fill-opacity:1" /><polygon
       fill="#17a5f7"
       points="46.271,66.43 52.092,72.25 54.221,64.299 48.402,58.48 "
       id="polygon56397"
       transform="translate(-36.073,-17.643)"
       style="fill:#f7b117;fill-opacity:1" /><polygon
       fill="#17a5f7"
       points="143.648,143.651 149.469,149.47 151.6,141.521 145.779,135.7 "
       id="polygon56399"
       transform="translate(-36.073,-17.643)"
       style="fill:#f7b117;fill-opacity:1" /><polygon
       fill="#17a5f7"
       points="53.65,93.971 59.471,99.791 61.6,91.84 55.781,86.021 "
       id="polygon56401"
       transform="translate(-36.073,-17.643)"
       style="fill:#f7b117;fill-opacity:1" /><polygon
       fill="#17a5f7"
       points="141.672,40.869 153.313,52.51 157.572,36.607 145.934,24.969 "
       id="polygon56403"
       transform="translate(-36.073,-17.643)"
       style="fill:#f7b117;fill-opacity:1" /><polygon
       fill="#17a5f7"
       points="189.374,28.09 195.194,33.908 197.325,25.959 191.505,20.139 "
       id="polygon56405"
       transform="translate(-36.073,-17.643)"
       style="fill:#f7b117;fill-opacity:1" /><polygon
       fill="#17a5f7"
       points="169.211,48.248 180.852,59.887 185.112,43.986 173.473,32.348 "
       id="polygon56407"
       transform="translate(-36.073,-17.643)"
       style="fill:#f7b117;fill-opacity:1" /><polygon
       fill="#17a5f7"
       points="216.913,35.467 222.733,41.287 224.864,33.336 219.044,27.518 "
       id="polygon56409"
       transform="translate(-36.073,-17.643)"
       style="fill:#f7b117;fill-opacity:1" /><polygon
       fill="#17a5f7"
       points="196.751,55.625 208.392,67.266 212.651,51.363 201.013,39.725 "
       id="polygon56411-6"
       transform="translate(-36.073,-17.643)"
       style="fill:#f7b117;fill-opacity:1" /><polygon
       fill="#17a5f7"
       points="244.452,42.846 256.093,54.484 260.353,38.584 248.714,26.945 "
       id="polygon56413"
       transform="translate(-36.073,-17.643)"
       style="fill:#f7b117;fill-opacity:1" /><polygon
       fill="#17a5f7"
       points="224.29,63.004 235.931,74.643 240.19,58.742 228.552,47.104 "
       id="polygon56415"
       transform="translate(-36.073,-17.643)"
       style="fill:#f7b117;fill-opacity:1" /><polygon
       fill="#17a5f7"
       points="271.991,50.223 283.632,61.863 287.892,45.961 276.253,34.322 "
       id="polygon56417"
       transform="translate(-36.073,-17.643)"
       style="fill:#f7b117;fill-opacity:1" /><polygon
       fill="#17a5f7"
       points="251.829,70.381 263.47,82.021 267.729,66.119 256.091,54.48 "
       id="polygon56419"
       transform="translate(-36.073,-17.643)"
       style="fill:#f7b117;fill-opacity:1" /><polygon
       fill="#17a5f7"
       points="299.53,57.602 311.171,69.24 315.431,53.34 303.792,41.701 "
       id="polygon56421"
       transform="translate(-36.073,-17.643)"
       style="fill:#f7b117;fill-opacity:1" /><polygon
       fill="#17a5f7"
       points="279.368,77.76 291.009,89.398 295.269,73.498 283.63,61.859 "
       id="polygon56423"
       transform="translate(-36.073,-17.643)"
       style="fill:#f7b117;fill-opacity:1" /><polygon
       fill="#17a5f7"
       points="306.907,85.137 318.548,96.777 322.808,80.875 311.169,69.236 "
       id="polygon56425"
       transform="translate(-36.073,-17.643)"
       style="fill:#f7b117;fill-opacity:1" /></g><g
     id="g58144"
     style="fill:#ffcf00;fill-opacity:1"><polygon
       fill="#00c8c9"
       points="149.051,68.408 133.15,72.668 137.412,56.77 153.313,52.508 "
       id="polygon56427-6"
       transform="translate(-36.073,-17.643)"
       style="fill:#ffcf00;fill-opacity:1" /><polygon
       fill="#00c8c9"
       points="128.889,88.566 112.988,92.826 117.25,76.928 133.15,72.666 "
       id="polygon56429"
       transform="translate(-36.073,-17.643)"
       style="fill:#ffcf00;fill-opacity:1" /><polygon
       fill="#00c8c9"
       points="176.59,75.787 160.689,80.045 164.951,64.146 180.852,59.887 "
       id="polygon56431-4"
       transform="translate(-36.073,-17.643)"
       style="fill:#ffcf00;fill-opacity:1" /><polygon
       fill="#00c8c9"
       points="156.428,95.945 140.527,100.203 144.789,84.305 160.689,80.045 "
       id="polygon56433-4"
       transform="translate(-36.073,-17.643)"
       style="fill:#ffcf00;fill-opacity:1" /><polygon
       fill="#00c8c9"
       points="204.13,83.164 188.229,87.424 192.491,71.525 208.392,67.264 "
       id="polygon56435-4"
       transform="translate(-36.073,-17.643)"
       style="fill:#ffcf00;fill-opacity:1" /><polygon
       fill="#00c8c9"
       points="183.968,103.322 168.066,107.582 172.328,91.684 188.229,87.422 "
       id="polygon56437-3"
       transform="translate(-36.073,-17.643)"
       style="fill:#ffcf00;fill-opacity:1" /><polygon
       fill="#00c8c9"
       points="231.669,90.543 215.769,94.801 220.03,78.902 235.931,74.643 "
       id="polygon56439"
       transform="translate(-36.073,-17.643)"
       style="fill:#ffcf00;fill-opacity:1" /><polygon
       fill="#00c8c9"
       points="259.208,97.92 243.308,102.18 247.569,86.281 263.47,82.02 "
       id="polygon56441"
       transform="translate(-36.073,-17.643)"
       style="fill:#ffcf00;fill-opacity:1" /><polygon
       fill="#00c8c9"
       points="251.829,70.381 235.929,74.641 240.19,58.742 256.091,54.48 "
       id="polygon56443"
       transform="translate(-36.073,-17.643)"
       style="fill:#ffcf00;fill-opacity:1" /></g><g
     id="g58133"
     style="fill:#ffe000;fill-opacity:1"><polygon
       fill="#00dfe0"
       points="93.973,53.652 78.072,57.912 82.334,42.014 98.234,37.752 "
       id="polygon56467"
       transform="translate(-36.073,-17.643)"
       style="fill:#ffe000;fill-opacity:1" /><polygon
       fill="#00dfe0"
       points="73.811,73.811 57.91,78.07 62.172,62.172 78.072,57.91 "
       id="polygon56469"
       transform="translate(-36.073,-17.643)"
       style="fill:#ffe000;fill-opacity:1" /><polygon
       fill="#00dfe0"
       points="121.512,61.031 105.611,65.289 109.873,49.391 125.773,45.131 "
       id="polygon56471"
       transform="translate(-36.073,-17.643)"
       style="fill:#ffe000;fill-opacity:1" /><polygon
       fill="#00dfe0"
       points="101.35,81.189 85.449,85.447 89.711,69.549 105.611,65.289 "
       id="polygon56473"
       transform="translate(-36.073,-17.643)"
       style="fill:#ffe000;fill-opacity:1" /><polygon
       fill="#00dfe0"
       points="211.507,110.701 195.606,114.959 199.868,99.061 215.769,94.801 "
       id="polygon56475-3"
       transform="translate(-36.073,-17.643)"
       style="fill:#ffe000;fill-opacity:1" /><polygon
       fill="#00dfe0"
       points="81.189,101.352 65.289,105.609 69.551,89.711 85.451,85.451 "
       id="polygon56477"
       transform="translate(-36.073,-17.643)"
       style="fill:#ffe000;fill-opacity:1" /><polygon
       fill="#00dfe0"
       points="108.729,108.729 92.828,112.988 97.09,97.09 112.99,92.828 "
       id="polygon56479"
       transform="translate(-36.073,-17.643)"
       style="fill:#ffe000;fill-opacity:1" /><polygon
       fill="#00dfe0"
       points="136.268,116.108 120.367,120.366 124.629,104.467 140.529,100.207 "
       id="polygon56481"
       transform="translate(-36.073,-17.643)"
       style="fill:#ffe000;fill-opacity:1" /><polygon
       fill="#00dfe0"
       points="163.807,123.485 147.906,127.745 152.168,111.846 168.068,107.584 "
       id="polygon56483-3"
       transform="translate(-36.073,-17.643)"
       style="fill:#ffe000;fill-opacity:1" /><polygon
       fill="#00dfe0"
       points="191.347,130.864 175.445,135.122 179.707,119.224 195.608,114.963 "
       id="polygon56485"
       transform="translate(-36.073,-17.643)"
       style="fill:#ffe000;fill-opacity:1" /><polygon
       fill="#00dfe0"
       points="218.886,138.241 210.937,140.37 213.067,132.421 221.017,130.292 "
       id="polygon56487"
       transform="translate(-36.073,-17.643)"
       style="fill:#ffe000;fill-opacity:1" /><polygon
       fill="#00dfe0"
       points="246.431,145.63 238.481,147.759 240.612,139.81 248.562,137.679 "
       id="polygon56489"
       transform="translate(-36.073,-17.643)"
       style="fill:#ffe000;fill-opacity:1" /><polygon
       fill="#00dfe0"
       points="334.454,92.527 326.505,94.656 328.636,86.707 336.585,84.576 "
       id="polygon56491"
       transform="translate(-36.073,-17.643)"
       style="fill:#ffe000;fill-opacity:1" /><polygon
       fill="#00dfe0"
       points="292.157,30.066 284.206,32.195 286.337,24.246 294.288,22.115 "
       id="polygon56493"
       transform="translate(-36.073,-17.643)"
       style="fill:#ffe000;fill-opacity:1" /><polygon
       fill="#00dfe0"
       points="239.046,118.079 223.146,122.339 227.407,106.439 243.308,102.178 "
       id="polygon56495"
       transform="translate(-36.073,-17.643)"
       style="fill:#ffe000;fill-opacity:1" /><polygon
       fill="#00dfe0"
       points="286.747,105.299 270.847,109.557 275.108,93.658 291.009,89.398 "
       id="polygon56497"
       transform="translate(-36.073,-17.643)"
       style="fill:#ffe000;fill-opacity:1" /><polygon
       fill="#00dfe0"
       points="266.585,125.458 250.685,129.716 254.946,113.816 270.847,109.557 "
       id="polygon56499"
       transform="translate(-36.073,-17.643)"
       style="fill:#ffe000;fill-opacity:1" /><polygon
       fill="#00dfe0"
       points="161.834,20.711 153.885,22.84 156.016,14.891 163.965,12.762 "
       id="polygon56501"
       transform="translate(-36.073,-17.643)"
       style="fill:#ffe000;fill-opacity:1" /><polygon
       fill="#00dfe0"
       points="114.135,33.49 106.184,35.619 108.314,27.67 116.266,25.541 "
       id="polygon56503"
       transform="translate(-36.073,-17.643)"
       style="fill:#ffe000;fill-opacity:1" /><polygon
       fill="#00dfe0"
       points="134.295,13.33 130.32,14.395 131.387,10.42 135.361,9.355 "
       id="polygon56505"
       transform="translate(-36.073,-17.643)"
       style="fill:#ffe000;fill-opacity:1" /><polygon
       fill="#00dfe0"
       points="86.596,26.111 82.619,27.176 83.686,23.201 87.66,22.137 "
       id="polygon56507"
       transform="translate(-36.073,-17.643)"
       style="fill:#ffe000;fill-opacity:1" /><polygon
       fill="#00dfe0"
       points="59.055,18.734 55.08,19.799 56.146,15.824 60.121,14.76 "
       id="polygon56509"
       transform="translate(-36.073,-17.643)"
       style="fill:#ffe000;fill-opacity:1" /><polygon
       fill="#00dfe0"
       points="3.977,3.975 0,5.039 1.066,1.064 5.041,0 "
       id="polygon56511"
       transform="translate(-36.073,-17.643)"
       style="fill:#ffe000;fill-opacity:1" /><polygon
       fill="#00dfe0"
       points="11.354,31.514 7.377,32.578 8.443,28.604 12.418,27.539 "
       id="polygon56513"
       transform="translate(-36.073,-17.643)"
       style="fill:#ffe000;fill-opacity:1" /><polygon
       fill="#00dfe0"
       points="26.111,86.59 22.135,87.654 23.201,83.68 27.176,82.615 "
       id="polygon56515"
       transform="translate(-36.073,-17.643)"
       style="fill:#ffe000;fill-opacity:1" /><polygon
       fill="#00dfe0"
       points="33.49,114.129 29.514,115.194 30.58,111.219 34.555,110.154 "
       id="polygon56517"
       transform="translate(-36.073,-17.643)"
       style="fill:#ffe000;fill-opacity:1" /><polygon
       fill="#00dfe0"
       points="61.029,121.513 57.055,122.577 58.121,118.603 62.096,117.538 "
       id="polygon56519"
       transform="translate(-36.073,-17.643)"
       style="fill:#ffe000;fill-opacity:1" /><polygon
       fill="#00dfe0"
       points="88.57,128.733 84.594,129.798 85.66,125.823 89.635,124.759 "
       id="polygon56521"
       transform="translate(-36.073,-17.643)"
       style="fill:#ffe000;fill-opacity:1" /><polygon
       fill="#00dfe0"
       points="116.109,136.272 112.135,137.337 113.201,133.362 117.176,132.298 "
       id="polygon56523"
       transform="translate(-36.073,-17.643)"
       style="fill:#ffe000;fill-opacity:1" /><polygon
       fill="#00dfe0"
       points="198.729,158.409 194.753,159.474 195.819,155.499 199.794,154.435 "
       id="polygon56525"
       transform="translate(-36.073,-17.643)"
       style="fill:#ffe000;fill-opacity:1" /><polygon
       fill="#00dfe0"
       points="237.077,15.307 233.101,16.371 234.167,12.396 238.142,11.332 "
       id="polygon56527"
       transform="translate(-36.073,-17.643)"
       style="fill:#ffe000;fill-opacity:1" /><polygon
       fill="#00dfe0"
       points="264.618,22.688 260.642,23.752 261.708,19.777 265.683,18.713 "
       id="polygon56529"
       transform="translate(-36.073,-17.643)"
       style="fill:#ffe000;fill-opacity:1" /><polygon
       fill="#00dfe0"
       points="327.077,64.986 323.101,66.051 324.167,62.076 328.142,61.012 "
       id="polygon56531"
       transform="translate(-36.073,-17.643)"
       style="fill:#ffe000;fill-opacity:1" /><polygon
       fill="#00dfe0"
       points="314.294,112.686 310.317,113.75 311.384,109.775 315.358,108.711 "
       id="polygon56533"
       transform="translate(-36.073,-17.643)"
       style="fill:#ffe000;fill-opacity:1" /><polygon
       fill="#00dfe0"
       points="38.893,38.893 30.941,41.021 33.072,33.072 41.023,30.943 "
       id="polygon56535"
       transform="translate(-36.073,-17.643)"
       style="fill:#ffe000;fill-opacity:1" /><polygon
       fill="#00dfe0"
       points="66.434,46.117 58.482,48.246 60.613,40.297 68.564,38.168 "
       id="polygon56537"
       transform="translate(-36.073,-17.643)"
       style="fill:#ffe000;fill-opacity:1" /><polygon
       fill="#00dfe0"
       points="26.111,61.031 18.16,63.16 20.291,55.211 28.242,53.08 "
       id="polygon56539"
       transform="translate(-36.073,-17.643)"
       style="fill:#ffe000;fill-opacity:1" /><polygon
       fill="#00dfe0"
       points="46.271,66.43 38.32,68.559 40.451,60.609 48.402,58.48 "
       id="polygon56541"
       transform="translate(-36.073,-17.643)"
       style="fill:#ffe000;fill-opacity:1" /><polygon
       fill="#00dfe0"
       points="143.648,143.651 135.699,145.78 137.83,137.831 145.779,135.7 "
       id="polygon56543"
       transform="translate(-36.073,-17.643)"
       style="fill:#ffe000;fill-opacity:1" /><polygon
       fill="#00dfe0"
       points="53.65,93.971 45.699,96.1 47.83,88.15 55.781,86.021 "
       id="polygon56545"
       transform="translate(-36.073,-17.643)"
       style="fill:#ffe000;fill-opacity:1" /><polygon
       fill="#00dfe0"
       points="141.672,40.869 125.771,45.129 130.033,29.23 145.934,24.969 "
       id="polygon56547"
       transform="translate(-36.073,-17.643)"
       style="fill:#ffe000;fill-opacity:1" /><polygon
       fill="#00dfe0"
       points="189.374,28.09 181.424,30.219 183.556,22.27 191.505,20.139 "
       id="polygon56549"
       transform="translate(-36.073,-17.643)"
       style="fill:#ffe000;fill-opacity:1" /><polygon
       fill="#00dfe0"
       points="169.211,48.248 153.311,52.506 157.572,36.607 173.473,32.348 "
       id="polygon56551"
       transform="translate(-36.073,-17.643)"
       style="fill:#ffe000;fill-opacity:1" /><polygon
       fill="#00dfe0"
       points="216.913,35.467 208.964,37.596 211.095,29.646 219.044,27.518 "
       id="polygon56553"
       transform="translate(-36.073,-17.643)"
       style="fill:#ffe000;fill-opacity:1" /><polygon
       fill="#00dfe0"
       points="196.751,55.625 180.85,59.885 185.112,43.986 201.013,39.725 "
       id="polygon56555-8"
       transform="translate(-36.073,-17.643)"
       style="fill:#ffe000;fill-opacity:1" /><polygon
       fill="#00dfe0"
       points="244.452,42.846 228.552,47.104 232.813,31.205 248.714,26.945 "
       id="polygon56557"
       transform="translate(-36.073,-17.643)"
       style="fill:#ffe000;fill-opacity:1" /><polygon
       fill="#00dfe0"
       points="224.29,63.004 208.39,67.262 212.651,51.363 228.552,47.104 "
       id="polygon56559"
       transform="translate(-36.073,-17.643)"
       style="fill:#ffe000;fill-opacity:1" /><polygon
       fill="#00dfe0"
       points="271.991,50.223 256.091,54.482 260.353,38.584 276.253,34.322 "
       id="polygon56561"
       transform="translate(-36.073,-17.643)"
       style="fill:#ffe000;fill-opacity:1" /><polygon
       fill="#00dfe0"
       points="299.53,57.602 283.63,61.859 287.892,45.961 303.792,41.701 "
       id="polygon56563"
       transform="translate(-36.073,-17.643)"
       style="fill:#ffe000;fill-opacity:1" /><polygon
       fill="#00dfe0"
       points="279.368,77.76 263.468,82.018 267.729,66.119 283.63,61.859 "
       id="polygon56565"
       transform="translate(-36.073,-17.643)"
       style="fill:#ffe000;fill-opacity:1" /><polygon
       fill="#00dfe0"
       points="306.907,85.137 291.007,89.396 295.269,73.498 311.169,69.236 "
       id="polygon56567"
       transform="translate(-36.073,-17.643)"
       style="fill:#ffe000;fill-opacity:1" /></g><g
     id="g57464"
     style="fill:#c37c1a;fill-opacity:1"><polygon
       fill="#527de3"
       points="121.512,61.031 133.152,72.67 117.252,76.93 105.611,65.289 "
       id="polygon56445"
       transform="translate(-36.073,-17.643)"
       style="fill:#c37c1a;fill-opacity:1" /><polygon
       fill="#527de3"
       points="101.35,81.189 112.99,92.828 97.09,97.088 85.449,85.447 "
       id="polygon56447"
       transform="translate(-36.073,-17.643)"
       style="fill:#c37c1a;fill-opacity:1" /><polygon
       fill="#527de3"
       points="149.051,68.408 160.691,80.049 144.791,84.309 133.15,72.668 "
       id="polygon56449-3"
       transform="translate(-36.073,-17.643)"
       style="fill:#c37c1a;fill-opacity:1" /><polygon
       fill="#527de3"
       points="128.889,88.566 140.529,100.207 124.629,104.467 112.988,92.826 "
       id="polygon56451"
       transform="translate(-36.073,-17.643)"
       style="fill:#c37c1a;fill-opacity:1" /><polygon
       fill="#527de3"
       points="176.59,75.787 188.231,87.426 172.33,91.686 160.689,80.045 "
       id="polygon56453-7"
       transform="translate(-36.073,-17.643)"
       style="fill:#c37c1a;fill-opacity:1" /><polygon
       fill="#527de3"
       points="204.13,83.164 215.771,94.805 199.87,99.064 188.229,87.424 "
       id="polygon56455-6"
       transform="translate(-36.073,-17.643)"
       style="fill:#c37c1a;fill-opacity:1" /><polygon
       fill="#527de3"
       points="231.669,90.543 243.31,102.182 227.409,106.441 215.769,94.801 "
       id="polygon56457"
       transform="translate(-36.073,-17.643)"
       style="fill:#c37c1a;fill-opacity:1" /><polygon
       fill="#527de3"
       points="259.208,97.92 270.849,109.561 254.948,113.82 243.308,102.18 "
       id="polygon56459"
       transform="translate(-36.073,-17.643)"
       style="fill:#c37c1a;fill-opacity:1" /><polygon
       fill="#527de3"
       points="224.29,63.004 235.931,74.643 220.03,78.902 208.39,67.262 "
       id="polygon56461"
       transform="translate(-36.073,-17.643)"
       style="fill:#c37c1a;fill-opacity:1" /><polygon
       fill="#527de3"
       points="251.829,70.381 263.47,82.021 247.569,86.281 235.929,74.641 "
       id="polygon56463"
       transform="translate(-36.073,-17.643)"
       style="fill:#c37c1a;fill-opacity:1" /><polygon
       fill="#527de3"
       points="279.368,77.76 291.009,89.398 275.108,93.658 263.468,82.018 "
       id="polygon56465"
       transform="translate(-36.073,-17.643)"
       style="fill:#c37c1a;fill-opacity:1" /><polygon
       fill="#4472db"
       points="93.973,53.652 105.613,65.293 89.713,69.553 78.072,57.912 "
       id="polygon56569"
       transform="translate(-36.073,-17.643)"
       style="fill:#c37c1a;fill-opacity:1" /><polygon
       fill="#4472db"
       points="73.811,73.811 85.451,85.451 69.551,89.711 57.91,78.07 "
       id="polygon56571"
       transform="translate(-36.073,-17.643)"
       style="fill:#c37c1a;fill-opacity:1" /><polygon
       fill="#4472db"
       points="156.428,95.945 168.068,107.584 152.168,111.844 140.527,100.203 "
       id="polygon56573-5"
       transform="translate(-36.073,-17.643)"
       style="fill:#c37c1a;fill-opacity:1" /><polygon
       fill="#4472db"
       points="183.968,103.322 195.608,114.963 179.707,119.224 168.066,107.582 "
       id="polygon56575-7"
       transform="translate(-36.073,-17.643)"
       style="fill:#c37c1a;fill-opacity:1" /><polygon
       fill="#4472db"
       points="211.507,110.701 223.147,122.341 207.247,126.601 195.606,114.959 "
       id="polygon56577-1"
       transform="translate(-36.073,-17.643)"
       style="fill:#c37c1a;fill-opacity:1" /><polygon
       fill="#4472db"
       points="81.189,101.352 92.83,112.99 76.93,117.251 65.289,105.609 "
       id="polygon56579"
       transform="translate(-36.073,-17.643)"
       style="fill:#c37c1a;fill-opacity:1" /><polygon
       fill="#4472db"
       points="108.729,108.729 120.369,120.37 104.469,124.63 92.828,112.988 "
       id="polygon56581"
       transform="translate(-36.073,-17.643)"
       style="fill:#c37c1a;fill-opacity:1" /><polygon
       fill="#4472db"
       points="136.268,116.108 147.908,127.747 132.008,132.007 120.367,120.366 "
       id="polygon56583"
       transform="translate(-36.073,-17.643)"
       style="fill:#c37c1a;fill-opacity:1" /><polygon
       fill="#4472db"
       points="163.807,123.485 175.447,135.126 159.547,139.386 147.906,127.745 "
       id="polygon56585-3"
       transform="translate(-36.073,-17.643)"
       style="fill:#c37c1a;fill-opacity:1" /><polygon
       fill="#4472db"
       points="191.347,130.864 202.987,142.503 187.087,146.763 175.445,135.122 "
       id="polygon56587"
       transform="translate(-36.073,-17.643)"
       style="fill:#c37c1a;fill-opacity:1" /><polygon
       fill="#4472db"
       points="218.886,138.241 224.706,144.062 216.757,146.19 210.937,140.37 "
       id="polygon56589"
       transform="translate(-36.073,-17.643)"
       style="fill:#c37c1a;fill-opacity:1" /><polygon
       fill="#4472db"
       points="246.431,145.63 252.251,151.448 244.302,153.579 238.481,147.759 "
       id="polygon56591"
       transform="translate(-36.073,-17.643)"
       style="fill:#c37c1a;fill-opacity:1" /><polygon
       fill="#4472db"
       points="334.454,92.527 340.274,98.346 332.325,100.477 326.505,94.656 "
       id="polygon56593"
       transform="translate(-36.073,-17.643)"
       style="fill:#c37c1a;fill-opacity:1" /><polygon
       fill="#4472db"
       points="292.157,30.066 297.978,35.885 290.026,38.016 284.206,32.195 "
       id="polygon56595"
       transform="translate(-36.073,-17.643)"
       style="fill:#c37c1a;fill-opacity:1" /><polygon
       fill="#4472db"
       points="239.046,118.079 250.687,129.72 234.786,133.979 223.146,122.339 "
       id="polygon56597"
       transform="translate(-36.073,-17.643)"
       style="fill:#c37c1a;fill-opacity:1" /><polygon
       fill="#4472db"
       points="286.747,105.299 298.388,116.938 282.487,121.198 270.847,109.557 "
       id="polygon56599"
       transform="translate(-36.073,-17.643)"
       style="fill:#c37c1a;fill-opacity:1" /><polygon
       fill="#4472db"
       points="266.585,125.458 278.226,137.097 262.325,141.356 250.685,129.716 "
       id="polygon56601"
       transform="translate(-36.073,-17.643)"
       style="fill:#c37c1a;fill-opacity:1" /><polygon
       fill="#4472db"
       points="161.834,20.711 167.654,26.531 159.705,28.66 153.885,22.84 "
       id="polygon56603"
       transform="translate(-36.073,-17.643)"
       style="fill:#c37c1a;fill-opacity:1" /><polygon
       fill="#4472db"
       points="114.135,33.49 119.955,39.311 112.004,41.439 106.184,35.619 "
       id="polygon56605"
       transform="translate(-36.073,-17.643)"
       style="fill:#c37c1a;fill-opacity:1" /><polygon
       fill="#4472db"
       points="134.295,13.33 137.205,16.24 133.23,17.305 130.32,14.395 "
       id="polygon56607"
       transform="translate(-36.073,-17.643)"
       style="fill:#c37c1a;fill-opacity:1" /><polygon
       fill="#4472db"
       points="86.596,26.111 89.506,29.021 85.529,30.086 82.619,27.176 "
       id="polygon56609"
       transform="translate(-36.073,-17.643)"
       style="fill:#c37c1a;fill-opacity:1" /><polygon
       fill="#4472db"
       points="59.055,18.734 61.965,21.645 57.99,22.709 55.08,19.799 "
       id="polygon56611"
       transform="translate(-36.073,-17.643)"
       style="fill:#c37c1a;fill-opacity:1" /><polygon
       fill="#4472db"
       points="3.977,3.975 6.887,6.885 2.91,7.949 0,5.039 "
       id="polygon56613"
       transform="translate(-36.073,-17.643)"
       style="fill:#c37c1a;fill-opacity:1" /><polygon
       fill="#4472db"
       points="11.354,31.514 14.264,34.424 10.287,35.488 7.377,32.578 "
       id="polygon56615"
       transform="translate(-36.073,-17.643)"
       style="fill:#c37c1a;fill-opacity:1" /><polygon
       fill="#4472db"
       points="26.111,86.59 29.021,89.5 25.045,90.564 22.135,87.654 "
       id="polygon56617"
       transform="translate(-36.073,-17.643)"
       style="fill:#c37c1a;fill-opacity:1" /><polygon
       fill="#4472db"
       points="33.49,114.129 36.4,117.04 32.424,118.104 29.514,115.194 "
       id="polygon56619"
       transform="translate(-36.073,-17.643)"
       style="fill:#c37c1a;fill-opacity:1" /><polygon
       fill="#4472db"
       points="61.029,121.513 63.939,124.423 59.965,125.487 57.055,122.577 "
       id="polygon56621"
       transform="translate(-36.073,-17.643)"
       style="fill:#c37c1a;fill-opacity:1" /><polygon
       fill="#4472db"
       points="88.57,128.733 91.48,131.644 87.504,132.708 84.594,129.798 "
       id="polygon56623"
       transform="translate(-36.073,-17.643)"
       style="fill:#c37c1a;fill-opacity:1" /><polygon
       fill="#4472db"
       points="116.109,136.272 119.02,139.183 115.045,140.247 112.135,137.337 "
       id="polygon56625"
       transform="translate(-36.073,-17.643)"
       style="fill:#c37c1a;fill-opacity:1" /><polygon
       fill="#4472db"
       points="198.729,158.409 201.64,161.319 197.663,162.384 194.753,159.474 "
       id="polygon56627"
       transform="translate(-36.073,-17.643)"
       style="fill:#c37c1a;fill-opacity:1" /><polygon
       fill="#4472db"
       points="237.077,15.307 239.987,18.217 236.011,19.281 233.101,16.371 "
       id="polygon56629"
       transform="translate(-36.073,-17.643)"
       style="fill:#c37c1a;fill-opacity:1" /><polygon
       fill="#4472db"
       points="264.618,22.688 267.528,25.598 263.552,26.662 260.642,23.752 "
       id="polygon56631"
       transform="translate(-36.073,-17.643)"
       style="fill:#c37c1a;fill-opacity:1" /><polygon
       fill="#4472db"
       points="327.077,64.986 329.987,67.896 326.011,68.961 323.101,66.051 "
       id="polygon56633"
       transform="translate(-36.073,-17.643)"
       style="fill:#c37c1a;fill-opacity:1" /><polygon
       fill="#4472db"
       points="314.294,112.686 317.204,115.597 313.228,116.661 310.317,113.75 "
       id="polygon56635"
       transform="translate(-36.073,-17.643)"
       style="fill:#c37c1a;fill-opacity:1" /><polygon
       fill="#4472db"
       points="38.893,38.893 44.713,44.713 36.762,46.842 30.941,41.021 "
       id="polygon56637"
       transform="translate(-36.073,-17.643)"
       style="fill:#c37c1a;fill-opacity:1" /><polygon
       fill="#4472db"
       points="66.434,46.117 72.254,51.938 64.303,54.066 58.482,48.246 "
       id="polygon56639"
       transform="translate(-36.073,-17.643)"
       style="fill:#c37c1a;fill-opacity:1" /><polygon
       fill="#4472db"
       points="26.111,61.031 31.932,66.85 23.98,68.98 18.16,63.16 "
       id="polygon56641"
       transform="translate(-36.073,-17.643)"
       style="fill:#c37c1a;fill-opacity:1" /><polygon
       fill="#4472db"
       points="46.271,66.43 52.092,72.25 44.141,74.379 38.32,68.559 "
       id="polygon56643"
       transform="translate(-36.073,-17.643)"
       style="fill:#c37c1a;fill-opacity:1" /><polygon
       fill="#4472db"
       points="143.648,143.651 149.469,149.47 141.52,151.601 135.699,145.78 "
       id="polygon56645"
       transform="translate(-36.073,-17.643)"
       style="fill:#c37c1a;fill-opacity:1" /><polygon
       fill="#4472db"
       points="53.65,93.971 59.471,99.791 51.52,101.92 45.699,96.1 "
       id="polygon56647"
       transform="translate(-36.073,-17.643)"
       style="fill:#c37c1a;fill-opacity:1" /><polygon
       fill="#4472db"
       points="141.672,40.869 153.313,52.51 137.412,56.77 125.771,45.129 "
       id="polygon56649"
       transform="translate(-36.073,-17.643)"
       style="fill:#c37c1a;fill-opacity:1" /><polygon
       fill="#4472db"
       points="189.374,28.09 195.194,33.908 187.245,36.039 181.424,30.219 "
       id="polygon56651"
       transform="translate(-36.073,-17.643)"
       style="fill:#c37c1a;fill-opacity:1" /><polygon
       fill="#4472db"
       points="169.211,48.248 180.852,59.887 164.951,64.146 153.311,52.506 "
       id="polygon56653"
       transform="translate(-36.073,-17.643)"
       style="fill:#c37c1a;fill-opacity:1" /><polygon
       fill="#4472db"
       points="216.913,35.467 222.733,41.287 214.784,43.416 208.964,37.596 "
       id="polygon56655"
       transform="translate(-36.073,-17.643)"
       style="fill:#c37c1a;fill-opacity:1" /><polygon
       fill="#4472db"
       points="196.751,55.625 208.392,67.266 192.491,71.525 180.85,59.885 "
       id="polygon56657-5"
       transform="translate(-36.073,-17.643)"
       style="fill:#c37c1a;fill-opacity:1" /><polygon
       fill="#4472db"
       points="244.452,42.846 256.093,54.484 240.192,58.744 228.552,47.104 "
       id="polygon56659"
       transform="translate(-36.073,-17.643)"
       style="fill:#c37c1a;fill-opacity:1" /><polygon
       fill="#4472db"
       points="271.991,50.223 283.632,61.863 267.731,66.123 256.091,54.482 "
       id="polygon56661"
       transform="translate(-36.073,-17.643)"
       style="fill:#c37c1a;fill-opacity:1" /><polygon
       fill="#4472db"
       points="299.53,57.602 311.171,69.24 295.271,73.5 283.63,61.859 "
       id="polygon56663"
       transform="translate(-36.073,-17.643)"
       style="fill:#c37c1a;fill-opacity:1" /><polygon
       fill="#4472db"
       points="306.907,85.137 318.548,96.777 302.647,101.037 291.007,89.396 "
       id="polygon56665"
       transform="translate(-36.073,-17.643)"
       style="fill:#c37c1a;fill-opacity:1" /></g><path
     fill="none"
     d="m 106.017,56.926 c -2.035,2.417 -3.051,5.416 -3.051,8.997 0,3.58 1.016,6.58 3.051,8.996 0.207,0.246 0.425,0.471 0.645,0.692 1.544,0.914 3.319,1.375 5.33,1.375 3.238,0 5.875,-1.209 7.91,-3.625 2.035,-2.418 3.053,-5.416 3.053,-8.997 0,-3.581 -1.018,-6.579 -3.053,-8.997 -0.207,-0.246 -0.425,-0.471 -0.645,-0.692 -1.543,-0.914 -3.318,-1.375 -5.33,-1.375 -3.238,0 -5.875,1.209 -7.91,3.626 z"
     id="path56721-4" /><polygon
     fill="none"
     points="237.677,86.745 233.432,74.755 229.072,86.745 "
     id="polygon56739"
     transform="translate(-36.073,-17.643)" /><path
     fill="none"
     d="m 227.89,52.337 v 23.092 h 4.899 c 6.624,-0.018 9.944,-4.136 9.961,-12.354 -0.008,-4.358 -0.956,-7.548 -2.823,-9.596 -1.401,-0.757 -3.104,-1.142 -5.114,-1.142 z"
     id="path56749" /></g>



<g
   id="g586"
   transform="translate(1.7460502,-0.91793791)"><text
     xml:space="preserve"
     style="font-style:normal;font-variant:normal;font-weight:normal;font-stretch:normal;font-size:59.895px;font-family:'Humnst777 BlkCn BT';-inkscape-font-specification:'Humnst777 BlkCn BT, Normal';font-variant-ligatures:normal;font-variant-caps:normal;font-variant-numeric:normal;font-variant-east-asian:normal;fill:#ffffff;fill-opacity:1;fill-rule:evenodd;stroke:#c38b24;stroke-width:0.834;stroke-dasharray:none;stroke-opacity:1"
     x="10.110315"
     y="64.191566"
     id="text56932-0"><tspan
       sodipodi:role="line"
       id="tspan56930-1"
       x="10.110315"
       y="64.191566"
       style="font-style:normal;font-variant:normal;font-weight:normal;font-stretch:normal;font-size:59.895px;font-family:'Humnst777 BlkCn BT';-inkscape-font-specification:'Humnst777 BlkCn BT, Normal';font-variant-ligatures:normal;font-variant-caps:normal;font-variant-numeric:normal;font-variant-east-asian:normal;fill:#ffffff;fill-opacity:1;stroke:#c38b24;stroke-width:0.834;stroke-dasharray:none;stroke-opacity:1">C</tspan></text><path
     style="fill:#502d16;fill-opacity:1;fill-rule:nonzero;stroke:#28170b;stroke-width:0.894015;stroke-dasharray:none;stroke-opacity:1"
     d="m -20.886232,-5.8221257 c 0.03669,-0.202556 0.06422,-0.391062 0.10584,-0.576297 0.05513,-0.245716 0.17214,-0.439943 0.436775,-0.458935 0.06939,-0.147171 0.108745,-0.296649 0.198222,-0.404567 0.126772,-0.152657 0.284898,-0.277585 0.330592,-0.485155 0.0064,-0.02779 0.03251,-0.0614 0.05804,-0.07311 0.151005,-0.06821 0.186835,-0.202329 0.225053,-0.346094 0.03623,-0.136609 0.116412,-0.250638 0.24587,-0.326849 0.04351,-0.0257 0.07165,-0.0802 0.102118,-0.124765 0.0356,-0.05222 0.0594,-0.11324 0.09922,-0.161313 0.130296,-0.157334 0.271946,-0.29546 0.356257,-0.497389 0.09776,-0.234126 0.333525,-0.269012 0.635034,-0.15045 0.139615,-0.125164 0.302291,-0.21607 0.510177,-0.193192 0.08348,-0.195726 0.205271,-0.339964 0.428099,-0.367066 0.03234,-0.0036 0.06467,-0.03778 0.08964,-0.06439 0.09612,-0.101949 0.212502,-0.127689 0.347521,-0.111413 0.0516,0.0064 0.117243,0.0064 0.157419,-0.01971 0.195536,-0.128171 0.381298,-0.113158 0.567715,0.01362 0.01662,0.01062 0.03333,0.01798 0.06402,0.03442 0.02697,-0.05658 0.05468,-0.110778 0.07893,-0.166471 0.108136,-0.249685 0.317957,-0.318911 0.557242,-0.182621 0.02697,0.01535 0.0534,0.03133 0.07911,0.04632 0.29139,-0.316122 0.488317,-0.280038 0.737046,-0.04759 0.172748,-0.12937 0.361825,-0.12898 0.556598,-0.04223 0.0603,-0.124518 0.09134,-0.269239 0.180413,-0.349092 0.08219,-0.07384 0.226978,-0.07838 0.361599,-0.0822 0.01034,-0.02161 0.02234,-0.04268 0.03106,-0.06493 0.103979,-0.259537 0.345995,-0.32534 0.5639,-0.149169 0.0733,0.05922 0.137545,0.129552 0.204445,0.19351 0.01663,-0.0112 0.03106,-0.01581 0.03705,-0.02516 0.188288,-0.301328 0.475935,-0.31723 0.692161,-0.03378 0.08038,0.105224 0.14955,0.218931 0.230376,0.338538 0.123662,-0.08901 0.247149,-0.190958 0.399171,-0.126773 0.12511,0.05277 0.236505,0.138117 0.377001,0.222992 0.296578,-0.142095 0.511604,0.03279 0.704805,0.27576 0.03851,-0.0097 0.07475,-0.01599 0.109364,-0.0277 0.1582517,-0.05395 0.3098377,-0.02879 0.4279447,0.08047 0.180622,0.167361 0.348302,0.3491859 0.515727,0.5302169 0.06376,0.06894 0.111441,0.152493 0.176481,0.243399 0.275522,-0.140968 0.47578,-0.0063 0.656184,0.185 0.04641,0.04923 0.08846,0.08274 0.162803,0.06912 0.153284,-0.02806 0.275288,0.03678 0.367293,0.153529 0.08219,0.10433 0.155145,0.216225 0.230148,0.326213 0.04287,0.06285 0.08165,0.128652 0.129461,0.204872 0.268195,-0.0841 0.430878,0.06231 0.557297,0.272972 0.05777,0.09633 0.124485,0.163229 0.243425,0.189922 0.0736,0.01653 0.14976,0.07611 0.19802,0.137335 0.1133,0.144002 0.21393,0.298648 0.31302,0.453212 0.0383,0.05994 0.0773,0.102905 0.14355,0.139715 0.0779,0.04323 0.13277,0.12818 0.19554,0.197007 0.0125,0.01308 0.0166,0.03469 0.0207,0.05304 0.0424,0.357602 0.23721,0.651554 0.40283,0.957113 0.0283,0.05213 0.0717,0.104248 0.12139,0.135483 0.49349,0.310881 1.02227,0.359273 1.5745,0.194218 0.35291,-0.105539 0.70431,-0.216461 1.07129,-0.263117 0.10668,-0.01344 0.21488,-0.02443 0.32233,-0.02389 1.29858002,0.0054 2.55474002,0.225207 3.73721,0.77878 0.66492,0.3112 1.26927,0.720626 1.82302,1.203937 0.40789,0.356022 0.76582,0.759798 1.13202,1.1565 0.55563,0.602055 1.11341,1.202439 1.6835,1.790734 0.44179,0.45590998 0.89539,0.90117398 1.35883,1.33506898 0.76116,0.71266 1.55909,1.38241602 2.42847,1.96141902 0.5829903,0.388282 1.1916403,0.731507 1.8633803,0.942646 0.41553,0.130496 0.84157,0.190649 1.2776,0.09577 0.28807,-0.06276 0.52974,-0.207016 0.74462,-0.402669 0.31723,-0.288865 0.52616,-0.652834 0.68866,-1.040954 0.1222,-0.291962 0.20631,-0.599746 0.31445,-0.89783202 0.0398,-0.109591 -0.008,-0.1947 -0.0404,-0.290292 -0.0325,-0.09551 -0.0408,-0.197251 -0.16323,-0.233081 -0.045,-0.01308 -0.10688,-0.05487 -0.11475,-0.09322 -0.0439,-0.208914 -0.27947,-0.274553 -0.33827,-0.462658 -0.0354,-0.113317 -0.0437,-0.236416 -0.0535,-0.35594 -0.006,-0.07721 -0.006,-0.144311 -0.0785,-0.20034 -0.0847,-0.06576 -0.11433,-0.16902798 -0.11164,-0.27345798 0.004,-0.145428 0.0145,-0.290937 0.0311,-0.435556 0.008,-0.08419 -5.4e-4,-0.142739 -0.059,-0.220367 -0.12097,-0.160613 -0.1597,-0.375094 -0.31193,-0.521148 0.002,-0.125574 -0.002,-0.251601 0.008,-0.376448 0.006,-0.08056 0.0346,-0.159187 0.0524,-0.236415 -0.34218,-0.196444 -0.34378,-0.410698 -0.13049,-0.801196 -0.13112,-0.182611 -0.0984,-0.380017 -0.008,-0.570348 0.10875,-0.228623 0.22816,-0.452332 0.34869,-0.675078 0.0369,-0.0683 0.0657,-0.120378 0.0392,-0.209077 -0.0249,-0.08401 -0.0103,-0.188823 0.0145,-0.276941 0.0623,-0.223554 0.1858,-0.416265 0.33981,-0.589021 0.0607,-0.06803 0.10129,-0.132404 0.0812,-0.237142 -0.0236,-0.123802 0.0362,-0.235698 0.12137,-0.327957 0.116,-0.126045 0.23167,-0.252391 0.35275,-0.37335 0.058,-0.05795 0.12843,-0.103622 0.19575,-0.156936 -0.16115,-0.271464 -0.065,-0.476018 0.10274,-0.650527 0.21942,-0.228314 0.45472,-0.441451 0.69821,-0.675732 -0.0638,-0.283216 0.14209,-0.46115 0.33608,-0.632008 0.23794,-0.209632 0.49484,-0.397093 0.83655,-0.494447 -0.10129,-0.184618 -0.18103,-0.356821 -0.28472,-0.5132059 -0.1682,-0.25398 -0.34443,-0.503583 -0.53118,-0.744212 -0.2032,-0.261457 -0.35228,-0.540868 -0.38756,-0.875028 -0.0234,-0.220839 -0.0609,-0.440415 -0.0791,-0.661653 -0.0186,-0.221874 0.0897,-0.352834 0.32471,-0.429444 0.60601,-0.197316 1.19472,-0.133184 1.75697,0.143919 0.23132,0.114034 0.43769,0.279004 0.65504,0.42118 0.0261,0.01726 0.0503,0.03714 0.0816,0.0604 0.048,-0.03397 0.0938,-0.06567 0.13898,-0.09845 0.51233,-0.373896 1.09556,-0.546027 1.71802,-0.617704 0.5248,-0.0604 1.03642,0.02171 1.552,0.100279 0.40117,0.06112 0.8067,0.09774 1.21166,0.126908 0.29818,0.02144 0.56495,-0.07093 0.82448,-0.23538 0.87327,-0.553491 1.79941,-0.993833 2.81659,-1.219204 0.8391,-0.18588 1.65605,-0.132312 2.43243,0.254308 0.37843,0.188486 0.69972,0.458842 0.97834,0.778626 0.13339,0.153129 0.26954,0.303888 0.40917,0.451295 0.22467,0.237051 0.41284,0.498107 0.54738,0.796747 0.12551,0.278448 0.13401,0.566287 0.0623,0.857461 -0.0325,0.131903 -0.10253,0.24754 -0.2167,0.327085 -0.0767,0.05349 -0.10357,0.121498 -0.0961,0.211701 0.0103,0.12016 0.006,0.241983 0.0238,0.360863 0.0464,0.3174069 -0.0708,0.5584269 -0.32734,0.7390579 -0.33274,0.234035 -0.70567,0.379699 -1.10055,0.456463 -0.27924,0.05422 -0.56598,0.0732 -0.85037,0.09434 -0.10065,0.0073 -0.16612,0.03751 -0.2149,0.124048 -0.0435,0.0772 -0.0909,0.154092 -0.14769,0.221956 -0.22162,0.264789 -0.40789,0.545635 -0.49841,0.886634 -0.0421,0.158234 -0.15432,0.273054 -0.32336,0.323279 -0.041,0.01226 -0.0781,0.05858 -0.10399,0.09783 -0.0878,0.133585 -0.1742,0.254453 -0.34185,0.313017 -0.0972,0.03397 -0.14645,0.136209 -0.17607,0.262727 -0.0717,0.305795 -0.0234,0.637412 -0.1974,0.921755 -0.0306,0.04977 -0.0278,0.120942 -0.037,0.182757 -0.0276,0.181593 -0.0435,0.365639 -0.0843,0.544118 -0.0207,0.08855 -0.069,0.184455 -0.13421,0.245325 -0.0778,0.07248 -0.10751,0.152966 -0.1218,0.247859 -0.0313,0.207088 -0.0947,0.384694 -0.29262,0.506608 -0.10233,0.06312 -0.16509,0.187533 -0.29014,0.23785 -0.03,0.012 -0.0427,0.07293 -0.0584,0.113303 -0.0895,0.23181 -0.21281,0.308892 -0.45248,0.265506 -0.0737,-0.01326 -0.12139,0.0036 -0.16592,0.05776 -0.052,0.06349 -0.10709,0.124138 -0.16799,0.193982 0.0526,0.09949 0.10461,0.192465 0.15141,0.288067 0.0723,0.147816 0.10317,0.297131 0.0215,0.455201 -0.021,0.04033 -0.0238,0.09575 -0.0187,0.142403 0.0103,0.100851 0.0239,0.203119 0.0522,0.300065 0.0673,0.230539 0.0377,0.427618 -0.17481,0.571138 0.0618,0.37723898 0.10046,0.74493098 -0.26271,1.01901998 0,0.143602 0.0103,0.295859 -0.002,0.44621 -0.0125,0.157343 -0.11497,0.263835 -0.26162,0.341471 0.006,0.112927 0.0187,0.226642 0.0145,0.339727 -0.005,0.13232302 -0.0165,0.26542502 -0.0408,0.39551302 -0.0103,0.05849 -0.0435,0.130723 -0.0895,0.161475 -0.11599,0.07729 -0.11081,0.182866 -0.1162,0.299756 -0.006,0.138434 -0.0263,0.278223 -0.0594,0.412679 -0.0187,0.07548 -0.0627,0.154891 -0.11889,0.208041 -0.0576,0.05459 -0.0799,0.09965 -0.07,0.178651 0.0448,0.361743 -0.0311,0.498988 -0.34658,0.649738 -0.0398,0.337501 0.0207,0.721888 -0.41346,0.871766 -0.0145,0.122366 -0.0247,0.242291 -0.0422,0.361262 -0.0244,0.165463 -0.1017,0.301981 -0.25032,0.385102 -0.0634,0.03542 -0.0864,0.08301 -0.10025,0.149089 -0.051,0.243017 -0.17399,0.419597 -0.4389,0.464429 -0.0304,0.0054 -0.0623,0.03841 -0.0818,0.06666 -0.11578,0.169433 -0.11454,0.170213 -0.3205,0.236896 -0.12615,0.31199 -0.24914,0.62398 -0.37796,0.933509 -0.24522,0.589248 -0.56827,1.135036 -0.94049,1.65198 -0.52266,0.725539 -1.12568,1.37623 -1.83253,1.9258941 -0.71983,0.559777 -1.49122,1.036676 -2.33383,1.390227 -0.42108,0.17658 -0.84633,0.345213 -1.27657,0.498098 -0.79134,0.281238 -1.60619,0.474192 -2.43507,0.608967 -0.65949,0.107276 -1.32274,0.162746 -1.99106,0.162912 -0.8863903,1.78e-4 -1.7619803,-0.09417 -2.6257703,-0.292292 -0.29602,-0.06784 -0.58982,-0.145981 -0.89864,-0.222827 -0.0292,0.04024 -0.0658,0.08301 -0.0943,0.130722 -0.65991,1.112475 -1.53134,2.037484 -2.53056,2.848058 -0.0778,0.06318 -0.10316,0.137726 -0.12491,0.224103 -0.21981,0.874069 -0.42474,1.752343 -0.66555,2.620699 -0.23062,0.831392 -0.49756,1.652856 -0.75105,2.477896 -0.21258,0.691448 -0.44915,1.376383 -0.63822,2.074111 -0.23147,0.8546 -0.38764,1.72613 -0.30809,2.617365 0.0441,0.492535 0.12925,0.981422 0.20009,1.47143 0.0765,0.527663 0.16819,1.053348 0.23357,1.582359 0.054,0.437397 0.0375,0.876138 -0.0822,1.304469 -0.10088,0.360625 -0.20979,0.718871 -0.31269,1.078941 -0.12097,0.423086 -0.18725,0.855242 -0.2114,1.294539 -0.0439,0.798971 0.0721,1.583643 0.2179,2.36449 0.11206,0.600227 0.1829,1.203699 0.22164,1.813142 0.0474,0.747321 0.0708,1.497813 0.21535,2.236305 0.065,0.331545 0.17006,0.647518 0.30714,0.957679 0.14334,0.324147 0.27363,0.65831 0.36508,0.999853 0.065,0.242306 0.20196,0.344427 0.42478,0.396467 0.28399,0.06636 0.56516,0.145681 0.84641,0.223315 0.32246,0.08908 0.61333,0.243324 0.87754,0.446451 0.3035,0.233315 0.49684,0.539028 0.58299,0.911973 0.0373,0.161232 -0.0261,0.285367 -0.14686,0.386296 -0.12138,0.101411 -0.26946,0.137391 -0.41951,0.169024 -0.4319,0.09113 -0.87136,0.0929 -1.30891,0.09606 -0.50199,0.0038 -1.00518,0.0038 -1.50585,-0.02741 -0.74086,-0.04624 -1.48222,-0.104969 -2.20600998,-0.288857 -0.0125,-0.0033 -0.0251,-4.48e-4 -0.0574,-4.48e-4 0,0.104665 0.002,0.208767 -2.5e-4,0.312784 -0.005,0.290221 -0.10046,0.408948 -0.38374,0.48547 -0.32766,0.08852 -0.66316,0.116488 -0.99980002,0.117697 -0.61007,0.0027 -1.2211,0.01196 -1.83006,-0.01656 -0.716,-0.03357 -1.43066,-0.09361 -2.13506,-0.247382 -0.37454,-0.08178 -0.63416,-0.301338 -0.85182,-0.595456 -0.28036,-0.37898 -0.39615,-0.820188 -0.47992,-1.271886 -0.1133,-0.611979 -0.10481,-1.22881 -0.0125,-1.840237 0.10895,-0.721725 0.2504,-1.438534 0.37207,-2.158357 0.14085,-0.83314 0.25453,-1.670494 0.29418,-2.514837 0.0263,-0.557942 0.0419,-1.118123 0.0228,-1.676064 -0.0315,-0.923019 -0.18787,-1.828079 -0.43508,-2.720281 -0.21511,-0.776554 -0.42212,-1.555983 -0.55864,-2.352481 -0.113508,-0.662687 -0.128427,-1.323146 -0.0613,-1.991794 0.0679,-0.675713 0.12075,-1.353973 0.1483,-2.032389 0.0298,-0.736117 0.0404,-1.474053 0.0267,-2.210644 -0.0125,-0.659902 -0.0687,-1.318931 -0.1073,-1.978272 -0.002,-0.04928 -0.0186,-0.09793 -0.0309,-0.157034 -0.0555,0.0027 -0.105642,-2.2e-4 -0.153695,0.0086 -0.944808,0.171965 -1.898579,0.268206 -2.854884,0.345133 -0.7801507,0.06273 -1.5617097,0.07997 -2.3430517,0.05723 -0.749454,-0.02175 -1.495429,-0.09308 -2.237744,-0.206305 -0.920239,-0.140334 -1.816863,-0.368245 -2.685472,-0.699068 -0.558323,-0.212576 -1.093232,-0.477921 -1.6043,-0.789754 -0.669835,-0.408713 -1.284897,-0.887669 -1.853093,-1.427884 -0.02716,-0.02579 -0.05578,-0.0504 -0.09633,-0.08709 -0.02234,0.04895 -0.04415,0.08447 -0.05532,0.123021 -0.125936,0.43906 -0.350616,0.828063 -0.602927,1.204111 -0.392977,0.585435 -0.784439,1.171834 -1.174146,1.759423 -0.35451,0.534581 -0.717038,1.064312 -1.054297,1.609545 -0.213205,0.344728 -0.403126,0.706391 -0.573909,1.074168 -0.221158,0.476489 -0.321203,0.991046 -0.366898,1.51093 -0.05779,0.657353 -0.08513,1.317424 -0.132153,1.975808 -0.04868,0.683899 -0.105633,1.367172 -0.158663,2.050752 -0.06628,0.856587 -0.07974,1.71253 0,2.569597 0.112057,1.206802 0.401385,2.374754 0.722032,3.539914 0.194913,0.708531 0.313892,1.437806 0.470835,2.156916 0.09466,0.433737 0.173373,0.87279 0.300971,1.296994 0.167155,0.555961 0.538946,0.969755 1.014965,1.294139 0.386283,0.263274 0.813102,0.442399 1.245561,0.611499 0.283544,0.110774 0.569558,0.217113 0.846271,0.343547 0.796973,0.364047 1.267188,0.992077 1.454032,1.840167 0.04804,0.218295 -0.0545,0.3994 -0.282845,0.468941 -0.156599,0.04759 -0.321763,0.07447 -0.484992,0.09155 -0.220366,0.0231 -0.442704,0.02768 -0.676748,0.04089 -0.03915,0.305638 -0.257077,0.400838 -0.515018,0.454006 -0.462676,0.0955 -0.932092,0.112448 -1.401753,0.134927 -0.909425,0.04344 -1.817505,0.01387 -2.723762,-0.05715 -0.391858,-0.03076 -0.781727,-0.09234 -1.17048,-0.153139 -0.115997,-0.01802 -0.232448,-0.06785 -0.336385,-0.125399 -0.488847,-0.27052 -0.870595,-0.638614 -1.022239,-1.196324 -0.03791,-0.139711 -0.04207,-0.288392 -0.06856,-0.431509 -0.08557,-0.46189 -0.156409,-0.927417 -0.265756,-1.383647 -0.217511,-0.907206 -0.440099,-1.813773 -0.692639,-2.711608 -0.218207,-0.775762 -0.48324,-1.536671 -0.830273,-2.26873 -0.451389,-0.951942 -0.870568,-1.91907 -1.314728,-2.874514 -0.280961,-0.604461 -0.578969,-1.201028 -0.875069,-1.798145 -0.247972,-0.500376 -0.516254,-0.991173 -0.75156,-1.497306 -0.102945,-0.221474 -0.162188,-0.467431 -0.21217,-0.708294 -0.06483,-0.312228 0.01034,-0.617623 0.09964,-0.918012 0.130909,-0.440893 0.355694,-0.841256 0.539275,-1.259486 0.36984,-0.842523 0.742293,-1.683936 1.105483,-2.529476 0.09486,-0.220995 0.167366,-0.452721 0.235305,-0.683894 0.04059,-0.138514 0.07602,-0.28585 0.07332,-0.428575 -0.0083,-0.507163 -0.03502,-1.014013 -0.07251,-1.526902 -0.149343,0.136129 -0.256681,0.310965 -0.481899,0.330984 -0.02135,0.106797 -0.03273,0.20765 -0.06235,0.302861 -0.03728,0.120301 -0.07519,0.24444 -0.138159,0.3522 -0.160738,0.274632 -0.35704,0.331304 -0.69295,0.210268 -0.105024,0.22474 -0.312236,0.352287 -0.498431,0.505178 -0.297843,0.244527 -0.503032,0.549129 -0.54889,0.945596 -0.03025,0.262636 -0.17296,0.391853 -0.391528,0.369129 -0.139819,-0.01468 -0.24525,-0.08454 -0.27363,-0.224663 -0.02238,-0.109678 -0.03728,-0.228706 -0.01864,-0.337341 0.06711,-0.393202 0.10004,-0.79389 0.237769,-1.173191 0.03479,-0.09607 0.02072,-0.195411 0.01659,-0.297372 -0.0062,-0.19485 0.01034,-0.395026 0.05138,-0.585511 0.05097,-0.234196 0.114966,-0.47077 0.213534,-0.688191 0.172132,-0.380257 0.274393,-0.775451 0.348692,-1.183201 0.07622,-0.41816 0.169025,-0.833377 0.260577,-1.248369 0.02424,-0.109994 0.03561,-0.199001 -0.04908,-0.297459 -0.09902,-0.114889 -0.113103,-0.264141 -0.08555,-0.41505 0.08784,-0.480782 0.175237,-0.961639 0.259872,-1.442984 0.02299,-0.131201 0.03893,-0.263915 0.05138,-0.396617 0.01034,-0.106819 0.0062,-0.208444 -0.04743,-0.313026 -0.07582,-0.150028 -0.07436,-0.32018 -0.06091,-0.485951 0.0083,-0.113795 0.02112,-0.228388 0.04619,-0.339483 0.02713,-0.121195 0.03334,-0.224028 -0.03999,-0.341794 -0.08286,-0.132793 -0.05261,-0.296172 -0.03397,-0.448035 0.0083,-0.0693 0.03025,-0.137334 0.03439,-0.206539 0.0021,-0.03902 -0.0062,-0.09116 -0.03189,-0.11713 -0.0868,-0.09004 -0.113505,-0.201939 -0.112057,-0.315572 0.004,-0.304118 6.46e-4,-0.610232 0.03438,-0.911741 0.08699,-0.776237 0.207797,-1.547554 0.402586,-2.3056761 0.01864,-0.07021 0.02487,-0.151793 0.0083,-0.221083 -0.121586,-0.501921 -0.187042,-1.011627 -0.213367,-1.525936 -0.04598,-0.898151 0.105633,-1.759744 0.515576,-2.56619 0.232055,-0.456546 0.55858,-0.845936 0.895694,-1.228024 0.617533,-0.700108 1.224751,-1.409444 1.842467,-2.10939 0.575588,-0.652289 1.146309,-1.30956602 1.743209,-1.94196502 0.510029,-0.540385 1.055086,-1.049209 1.681295,-1.45696398 0.281003,-0.183002 0.574635,-0.352516 0.878917,-0.492458 0.507255,-0.233327 1.028634,-0.435492 1.541914,-0.65594 0.174614,-0.07493 0.366503,-0.137245 0.507253,-0.256433 0.148933,-0.126128 0.110611,-0.351417 0.155564,-0.532529 0.05658,-0.227751 0.09734,-0.459479 0.143956,-0.689773 0.03643,-0.179913 0.120137,-0.300546 0.310862,-0.368655 0.143548,-0.05131 0.29142,-0.143357 0.300865,-0.345359 0.0064,-0.13837 0.09446,-0.243499 0.1945,-0.338701 0.04722,-0.04478 0.07766,-0.109343 0.107298,-0.169096 0.02234,-0.04487 0.03351,-0.09577 0.04595,-0.144874 0.05032,-0.196761 0.12946,-0.372551 0.320727,-0.449634"
     id="path7180" /></g></svg>
