<?xml version="1.0" encoding="UTF-8" standalone="no"?>
<!-- Created with Inkscape (http://www.inkscape.org/) -->

<svg
   xmlns:dc="http://purl.org/dc/elements/1.1/"
   xmlns:cc="http://creativecommons.org/ns#"
   xmlns:rdf="http://www.w3.org/1999/02/22-rdf-syntax-ns#"
   xmlns:svg="http://www.w3.org/2000/svg"
   xmlns="http://www.w3.org/2000/svg"
   xmlns:sodipodi="http://sodipodi.sourceforge.net/DTD/sodipodi-0.dtd"
   xmlns:inkscape="http://www.inkscape.org/namespaces/inkscape"
   width="100mm"
   height="100mm"
   viewBox="0 0 100 100"
   version="1.1"
   id="svg8"
   inkscape:version="0.92.4 (5da689c313, 2019-01-14)"
   sodipodi:docname="CAMELS_Icon_V2.svg">
  <defs
     id="defs2" />
  <sodipodi:namedview
     id="base"
     pagecolor="#ffffff"
     bordercolor="#666666"
     borderopacity="1.0"
     inkscape:pageopacity="0.0"
     inkscape:pageshadow="2"
     inkscape:zoom="0.35"
     inkscape:cx="-269.59507"
     inkscape:cy="14.690654"
     inkscape:document-units="mm"
     inkscape:current-layer="layer1"
     showgrid="false"
     inkscape:window-width="1920"
     inkscape:window-height="1137"
     inkscape:window-x="-8"
     inkscape:window-y="-8"
     inkscape:window-maximized="1" />
  <metadata
     id="metadata5">
    <rdf:RDF>
      <cc:Work
         rdf:about="">
        <dc:format>image/svg+xml</dc:format>
        <dc:type
           rdf:resource="http://purl.org/dc/dcmitype/StillImage" />
        <dc:title></dc:title>
      </cc:Work>
    </rdf:RDF>
  </metadata>
  <g
     inkscape:label="Layer 1"
     inkscape:groupmode="layer"
     id="layer1"
     transform="translate(-48.273814,-52.720239)">
    <g
       id="g531"
       transform="translate(48.273812,52.720237)">
      <rect
         style="fill:#dfb51b;fill-opacity:1;stroke:#af9017;stroke-width:3.84614992;stroke-linejoin:round;stroke-dasharray:none;stroke-opacity:1"
         id="rect10042"
         width="96.153847"
         height="96.153847"
         x="1.9230769"
         y="1.9230769"
         rx="13.690398"
         ry="13.690398" />
      <path
         inkscape:connector-curvature="0"
         style="fill:#502d16;fill-opacity:1;fill-rule:nonzero;stroke:#28170b;stroke-width:1.05280006;stroke-dasharray:none;stroke-opacity:1"
         d="m 26.641218,26.715883 c 0.04318,-0.238534 0.07562,-0.46052 0.124646,-0.67866 0.06489,-0.289358 0.202701,-0.518076 0.51434,-0.540438 0.08172,-0.173309 0.128061,-0.34934 0.233435,-0.476428 0.14928,-0.179773 0.335495,-0.326881 0.389304,-0.571321 0.0074,-0.03272 0.03831,-0.07233 0.0683,-0.08608 0.177823,-0.08029 0.220021,-0.238266 0.265025,-0.407567 0.04269,-0.160866 0.137085,-0.295153 0.289539,-0.3849 0.05123,-0.03027 0.08441,-0.09443 0.120255,-0.146916 0.04195,-0.0615 0.07,-0.133353 0.116838,-0.189967 0.15343,-0.185286 0.320249,-0.34794 0.419528,-0.585737 0.115132,-0.275699 0.392765,-0.316783 0.747823,-0.177165 0.164406,-0.147402 0.355983,-0.254448 0.600786,-0.227508 0.0983,-0.230484 0.241729,-0.400343 0.504142,-0.432257 0.03805,-0.0047 0.07611,-0.04447 0.105624,-0.07584 0.113181,-0.120059 0.250242,-0.150378 0.409232,-0.131206 0.06073,0.007 0.138061,0.0079 0.185382,-0.02316 0.230264,-0.15094 0.449017,-0.133258 0.668548,0.0161 0.01953,0.01244 0.03926,0.02122 0.07538,0.04054 0.03172,-0.0666 0.06439,-0.130453 0.09294,-0.196042 0.127328,-0.294029 0.374424,-0.375541 0.656205,-0.215046 0.03172,0.01805 0.06294,0.03686 0.09318,0.05455 0.343153,-0.37227 0.575052,-0.329786 0.867958,-0.05603 0.203433,-0.152356 0.426086,-0.151893 0.65545,-0.04975 0.07098,-0.146645 0.107567,-0.317061 0.212457,-0.411102 0.09684,-0.08693 0.267293,-0.09228 0.425819,-0.09676 0.01219,-0.02548 0.02634,-0.05029 0.03659,-0.0765 0.12245,-0.305632 0.407452,-0.383124 0.664061,-0.17565 0.08635,0.06969 0.161967,0.152551 0.240752,0.227875 0.01953,-0.01317 0.03659,-0.01854 0.04367,-0.02963 0.221727,-0.354856 0.560464,-0.373572 0.815098,-0.03977 0.09464,0.123915 0.176112,0.25782 0.271293,0.39866 0.145623,-0.104808 0.29105,-0.224875 0.470067,-0.149281 0.147328,0.06214 0.278512,0.162649 0.443965,0.262594 0.349251,-0.167331 0.602469,0.03866 0.829978,0.324733 0.04537,-0.01146 0.08806,-0.01878 0.128792,-0.03266 0.18636,-0.06352 0.364861,-0.03395 0.503949,0.0948 0.212701,0.197091 0.410158,0.411205 0.607323,0.624388 0.07512,0.08114 0.13123,0.179578 0.207822,0.28664 0.32447,-0.166015 0.560295,-0.007 0.77273,0.217849 0.05463,0.05795 0.104148,0.09741 0.191725,0.08141 0.180504,-0.03306 0.324174,0.04325 0.432525,0.180795 0.09684,0.122864 0.1827,0.25463 0.271026,0.384153 0.0505,0.07407 0.09612,0.151501 0.152452,0.241266 0.315834,-0.09901 0.507412,0.07339 0.656278,0.321452 0.06806,0.113427 0.146599,0.192212 0.28666,0.223655 0.08659,0.01953 0.176358,0.08958 0.233191,0.16172 0.133428,0.169578 0.251928,0.35169 0.368621,0.533713 0.04513,0.07054 0.09099,0.121182 0.169039,0.164527 0.09171,0.05092 0.156356,0.150943 0.230265,0.231997 0.01463,0.01538 0.01953,0.04084 0.0244,0.06243 0.05,0.421118 0.279342,0.767282 0.474384,1.127108 0.03342,0.06137 0.08441,0.122768 0.142939,0.159552 0.581151,0.366088 1.203841,0.423081 1.854144,0.228705 0.415598,-0.12428 0.829415,-0.25491 1.261577,-0.309851 0.125622,-0.01585 0.253048,-0.02871 0.37957,-0.02815 1.529235,0.0064 3.008491,0.265207 4.400983,0.917103 0.783023,0.36647 1.494697,0.848609 2.146804,1.417771 0.480336,0.419257 0.901838,0.894742 1.333072,1.361907 0.654326,0.70898 1.311168,1.415994 1.98252,2.108786 0.520243,0.536881 1.054413,1.061225 1.600169,1.572187 0.89635,0.839236 1.835996,1.627948 2.859794,2.309793 0.686526,0.457242 1.403274,0.861426 2.194321,1.110068 0.489337,0.153673 0.99104,0.224507 1.504525,0.112765 0.339226,-0.07388 0.623812,-0.243777 0.87686,-0.474182 0.37357,-0.340167 0.619617,-0.768779 0.810975,-1.225835 0.143915,-0.34382 0.24295,-0.706268 0.370301,-1.057292 0.04684,-0.129062 -0.0098,-0.229289 -0.04756,-0.341854 -0.0383,-0.112472 -0.04806,-0.232289 -0.192212,-0.27448 -0.05293,-0.01538 -0.125865,-0.06458 -0.135134,-0.109769 -0.0517,-0.24602 -0.329104,-0.323323 -0.398354,-0.544832 -0.04171,-0.133451 -0.05146,-0.278405 -0.06294,-0.419157 -0.0074,-0.09095 -0.0074,-0.169942 -0.09245,-0.235924 -0.09977,-0.07739 -0.134647,-0.199041 -0.131475,-0.322026 0.0048,-0.171259 0.01708,-0.342602 0.03659,-0.51292 0.0098,-0.09911 -6.59e-4,-0.168088 -0.06952,-0.259501 -0.142452,-0.189138 -0.188066,-0.441713 -0.367327,-0.613714 0.0024,-0.147867 -0.0023,-0.296283 0.0098,-0.443301 0.0074,-0.09482 0.04074,-0.187455 0.06172,-0.278407 -0.402962,-0.231336 -0.40484,-0.483637 -0.153672,-0.943499 -0.154404,-0.215044 -0.115863,-0.447509 -0.0098,-0.671642 0.12806,-0.269236 0.268682,-0.532668 0.410621,-0.794977 0.0434,-0.08049 0.07732,-0.141769 0.04611,-0.246216 -0.02928,-0.09891 -0.01219,-0.222361 0.01706,-0.326132 0.07343,-0.263249 0.218799,-0.490193 0.400156,-0.69363 0.07147,-0.08013 0.119281,-0.155916 0.09561,-0.279261 -0.0278,-0.145791 0.04268,-0.277565 0.142941,-0.38621 0.136599,-0.148427 0.272805,-0.297216 0.415403,-0.439654 0.0683,-0.06823 0.151236,-0.122036 0.230509,-0.18482 -0.189774,-0.319679 -0.07658,-0.560556 0.120986,-0.766057 0.258391,-0.268873 0.535487,-0.519866 0.822221,-0.795746 -0.07512,-0.333529 0.167331,-0.543058 0.395766,-0.744263 0.280198,-0.246867 0.582737,-0.467624 0.985139,-0.582264 -0.11928,-0.21741 -0.21319,-0.420192 -0.335298,-0.604357 -0.198066,-0.29909 -0.405598,-0.593023 -0.625522,-0.876391 -0.239288,-0.307894 -0.41484,-0.636924 -0.456382,-1.030441 -0.02757,-0.260064 -0.07171,-0.518635 -0.09318,-0.779171 -0.02196,-0.261277 0.105623,-0.415498 0.382378,-0.505714 0.713649,-0.232364 1.406906,-0.156843 2.069013,0.169478 0.272418,0.134282 0.515438,0.328563 0.771388,0.495984 0.03073,0.02024 0.05928,0.0437 0.09609,0.07108 0.0566,-0.04006 0.110495,-0.0773 0.163675,-0.115936 0.60332,-0.440306 1.290139,-0.643011 2.023157,-0.727413 0.618006,-0.07116 1.220502,0.02561 1.827653,0.118084 0.472407,0.07201 0.949964,0.115108 1.42686,0.149452 0.35113,0.02523 0.66528,-0.08356 0.970917,-0.277192 1.028361,-0.651799 2.118996,-1.170347 3.316835,-1.435741 0.988139,-0.218897 1.950177,-0.155817 2.864456,0.299467 0.445649,0.221972 0.824,0.540338 1.152101,0.916922 0.157092,0.180333 0.31742,0.357856 0.48185,0.531453 0.264561,0.279154 0.486166,0.586569 0.644595,0.938252 0.147817,0.327912 0.15782,0.666869 0.07343,1.00976 -0.03831,0.155331 -0.120743,0.291499 -0.255194,0.385178 -0.09025,0.06294 -0.121963,0.143086 -0.113181,0.249304 0.01219,0.141502 0.0074,0.284958 0.02805,0.424954 0.05464,0.373767 -0.08342,0.657599 -0.385475,0.870318 -0.391838,0.275598 -0.831002,0.447135 -1.296018,0.537534 -0.328835,0.06384 -0.666499,0.08619 -1.001409,0.111087 -0.118547,0.009 -0.195628,0.04419 -0.253071,0.146085 -0.05123,0.09095 -0.107086,0.181455 -0.173918,0.261376 -0.260976,0.311815 -0.480335,0.642542 -0.586931,1.044108 -0.04953,0.186335 -0.181724,0.321557 -0.380789,0.380698 -0.0483,0.01441 -0.09196,0.06901 -0.122452,0.115206 -0.103422,0.157308 -0.205141,0.299645 -0.402574,0.36861 -0.1144,0.03995 -0.172454,0.160405 -0.207334,0.309389 -0.08441,0.360101 -0.02756,0.750623 -0.232461,1.085466 -0.03609,0.05867 -0.0327,0.142427 -0.04367,0.215214 -0.03245,0.213851 -0.05122,0.430583 -0.09928,0.640764 -0.02439,0.10425 -0.08123,0.217214 -0.158061,0.288894 -0.09171,0.08535 -0.1266,0.18014 -0.14343,0.291881 -0.03682,0.243874 -0.111478,0.453028 -0.344591,0.59658 -0.120499,0.07431 -0.194408,0.22085 -0.341667,0.280102 -0.03536,0.01416 -0.05025,0.0859 -0.06878,0.133428 -0.105377,0.272983 -0.250607,0.363758 -0.532853,0.312662 -0.08683,-0.01562 -0.142938,0.0039 -0.195382,0.068 -0.06122,0.07471 -0.126111,0.146184 -0.197824,0.228435 0.06195,0.117156 0.123183,0.226654 0.178309,0.339237 0.08514,0.174065 0.121475,0.349897 0.02537,0.536037 -0.02463,0.04756 -0.02805,0.112767 -0.02197,0.167699 0.01219,0.118767 0.02805,0.239191 0.06146,0.353365 0.07928,0.271481 0.0444,0.503572 -0.20587,0.672573 0.07269,0.444237 0.118302,0.877245 -0.309371,1.200008 0,0.16911 0.01219,0.348411 -0.0024,0.52547 -0.01463,0.185286 -0.135377,0.310694 -0.308076,0.40212 0.0074,0.132987 0.02197,0.266899 0.01706,0.400068 -0.0049,0.155818 -0.01953,0.312563 -0.04806,0.465751 -0.01219,0.06887 -0.05123,0.153939 -0.105377,0.190162 -0.136599,0.09105 -0.130499,0.215339 -0.136842,0.352992 -0.0074,0.163017 -0.03098,0.327633 -0.06999,0.485976 -0.02196,0.08891 -0.0739,0.182406 -0.140012,0.244995 -0.06781,0.06428 -0.09415,0.117351 -0.08244,0.210384 0.05269,0.425992 -0.03659,0.587609 -0.408132,0.76513 -0.04684,0.397445 0.0244,0.850103 -0.4869,1.026595 -0.01706,0.144112 -0.02903,0.285337 -0.04975,0.425432 -0.02878,0.194845 -0.119766,0.355612 -0.294784,0.453495 -0.07465,0.04175 -0.101712,0.09773 -0.118058,0.175578 -0.06002,0.286177 -0.204898,0.494119 -0.516851,0.546906 -0.03585,0.0064 -0.07342,0.04525 -0.09635,0.07849 -0.136354,0.199529 -0.134891,0.200457 -0.377424,0.278974 -0.148553,0.367404 -0.293393,0.734806 -0.44509,1.099314 -0.288783,0.693911 -0.669208,1.336634 -1.107539,1.945392 -0.615495,0.854404 -1.325608,1.620656 -2.157999,2.26796 -0.847688,0.659197 -1.756086,1.22079 -2.748345,1.637134 -0.495876,0.207946 -0.996652,0.406527 -1.503308,0.586569 -0.931889,0.331193 -1.891465,0.55841 -2.867553,0.717126 -0.77663,0.126326 -1.557676,0.19165 -2.344697,0.191846 -1.043828,2.06e-4 -2.074922,-0.110886 -3.092134,-0.344198 -0.348592,-0.07993 -0.694575,-0.171917 -1.058242,-0.262408 -0.03439,0.04738 -0.07757,0.0978 -0.110986,0.153943 -0.777119,1.310055 -1.803332,2.399356 -2.980025,3.353896 -0.0917,0.0744 -0.121473,0.162187 -0.147087,0.263906 -0.258852,1.029309 -0.500188,2.063579 -0.783753,3.086159 -0.271585,0.979059 -0.585932,1.946424 -0.884445,2.917996 -0.25034,0.814256 -0.528927,1.620842 -0.751581,2.442492 -0.272585,1.006386 -0.45648,2.032709 -0.362812,3.082237 0.05197,0.580017 0.152208,1.155734 0.23563,1.732771 0.09001,0.62138 0.198066,1.240433 0.27505,1.863403 0.06366,0.515081 0.04416,1.031747 -0.09684,1.536153 -0.118791,0.424675 -0.247046,0.84655 -0.368227,1.270572 -0.142454,0.498232 -0.220509,1.00714 -0.24895,1.52446 -0.0517,0.940881 0.08489,1.864916 0.256609,2.78445 0.131963,0.706832 0.215385,1.417489 0.261,2.135172 0.05586,0.880053 0.08342,1.763839 0.253606,2.633495 0.07658,0.390433 0.200263,0.762522 0.361692,1.12777 0.168796,0.381718 0.322224,0.775234 0.429916,1.177442 0.07658,0.285338 0.237828,0.405599 0.500217,0.466884 0.334445,0.07816 0.665546,0.171552 0.996748,0.262975 0.379742,0.104908 0.722261,0.286543 1.033412,0.525742 0.357397,0.274758 0.585076,0.634767 0.686524,1.073951 0.04391,0.189871 -0.03073,0.33605 -0.172943,0.454906 -0.14294,0.119425 -0.317321,0.161794 -0.494019,0.199041 -0.508608,0.107321 -1.026118,0.1094 -1.541385,0.113131 -0.591149,0.0047 -1.183716,0.0047 -1.773305,-0.03227 -0.872445,-0.05447 -1.745476,-0.12362 -2.597821,-0.340162 -0.01463,-0.0038 -0.02951,-4.98e-4 -0.06756,-4.98e-4 0,0.123256 0.0016,0.245848 -2.96e-4,0.368341 -0.0049,0.341763 -0.118303,0.481577 -0.451894,0.571693 -0.385864,0.104249 -0.780947,0.137183 -1.177375,0.138598 -0.718429,0.0033 -1.437982,0.01414 -2.155095,-0.01953 -0.843174,-0.0395 -1.684761,-0.110227 -2.514276,-0.29132 -0.441062,-0.09631 -0.746799,-0.354859 -1.003115,-0.701209 -0.330152,-0.446296 -0.466506,-0.965864 -0.565148,-1.497788 -0.133428,-0.720674 -0.123426,-1.44706 -0.01463,-2.16708 0.128303,-0.849912 0.294877,-1.694036 0.438158,-2.541703 0.16587,-0.981117 0.299736,-1.967193 0.346423,-2.9615 0.03098,-0.65704 0.04928,-1.316708 0.02684,-1.973746 -0.03707,-1.086961 -0.221241,-2.152767 -0.512364,-3.203432 -0.253316,-0.914483 -0.497094,-1.832342 -0.657865,-2.770308 -0.133669,-0.780386 -0.151233,-1.558149 -0.07221,-2.345551 0.08,-0.79573 0.142207,-1.594452 0.17465,-2.393365 0.03512,-0.866859 0.04756,-1.735861 0.03146,-2.603276 -0.01463,-0.777108 -0.08098,-1.553188 -0.126353,-2.329635 -0.0023,-0.05802 -0.02196,-0.115305 -0.03634,-0.18492 -0.06538,0.0033 -0.124401,-3.56e-4 -0.180992,0.01006 -1.112613,0.202506 -2.235787,0.315838 -3.361938,0.406429 -0.918717,0.07388 -1.839092,0.09416 -2.759201,0.06739 -0.882565,-0.02561 -1.761035,-0.109601 -2.635187,-0.242949 -1.083684,-0.165258 -2.13956,-0.433645 -3.162434,-0.823227 -0.657496,-0.250334 -1.287408,-0.562808 -1.889242,-0.930027 -0.788805,-0.481294 -1.513114,-1.04532 -2.182221,-1.681487 -0.03195,-0.03039 -0.06562,-0.05937 -0.113427,-0.102562 -0.02635,0.05763 -0.05197,0.09947 -0.06512,0.144866 -0.148306,0.517042 -0.41289,0.975135 -0.710016,1.417973 -0.462774,0.689415 -0.923764,1.379962 -1.382686,2.071911 -0.417475,0.629527 -0.844391,1.253349 -1.241552,1.895415 -0.25107,0.405959 -0.474723,0.831853 -0.675842,1.264952 -0.260437,0.561119 -0.378251,1.167065 -0.432062,1.779285 -0.06805,0.77411 -0.100249,1.551411 -0.155623,2.326734 -0.05733,0.805367 -0.1244,1.609994 -0.186846,2.414984 -0.07805,1.008725 -0.0939,2.016696 0,3.025986 0.131963,1.421145 0.472678,2.796532 0.850273,4.168636 0.229532,0.834378 0.369642,1.693181 0.554463,2.540009 0.111478,0.51077 0.204165,1.027807 0.354423,1.527352 0.196846,0.654702 0.634666,1.141988 1.195229,1.523988 0.454895,0.310037 0.957527,0.520974 1.466792,0.720113 0.333907,0.130451 0.670718,0.25567 0.996578,0.404559 0.938523,0.428702 1.492255,1.168285 1.712275,2.166999 0.0566,0.257069 -0.06417,0.470342 -0.333077,0.552228 -0.184407,0.05603 -0.378913,0.08771 -0.571126,0.107812 -0.259511,0.02718 -0.521339,0.03258 -0.79695,0.04816 -0.04611,0.359919 -0.302734,0.47203 -0.606492,0.534638 -0.544856,0.112473 -1.097638,0.132426 -1.650711,0.158892 -1.070952,0.05118 -2.140317,0.01634 -3.207534,-0.06729 -0.461455,-0.0362 -0.92057,-0.108742 -1.378368,-0.180335 -0.136599,-0.02122 -0.273733,-0.07991 -0.396133,-0.14767 -0.575669,-0.318566 -1.02522,-0.752038 -1.203799,-1.408799 -0.04464,-0.164528 -0.04953,-0.339613 -0.08073,-0.508149 -0.100761,-0.543931 -0.18419,-1.09214 -0.312958,-1.629395 -0.256143,-1.068337 -0.518267,-2.135923 -0.815659,-3.193217 -0.256965,-0.913548 -0.569067,-1.809604 -0.977736,-2.671681 -0.531562,-1.121017 -1.02519,-2.259913 -1.548238,-3.385057 -0.330864,-0.711817 -0.681798,-1.414342 -1.03049,-2.117512 -0.292016,-0.589248 -0.607948,-1.167214 -0.885045,-1.763242 -0.121231,-0.26081 -0.190995,-0.550451 -0.249853,-0.834096 -0.07634,-0.36768 0.01219,-0.727322 0.117329,-1.081062 0.15416,-0.519198 0.418866,-0.990667 0.635056,-1.483183 0.435527,-0.99216 0.874129,-1.983018 1.301826,-2.978734 0.111712,-0.260246 0.19709,-0.533131 0.277097,-0.805362 0.04781,-0.163113 0.08951,-0.33662 0.08635,-0.504687 -0.0098,-0.597245 -0.04123,-1.194117 -0.08538,-1.798099 -0.175868,0.160309 -0.30227,0.366197 -0.56749,0.389772 -0.02513,0.125767 -0.03853,0.244531 -0.07342,0.356647 -0.04391,0.141672 -0.08855,0.287859 -0.162697,0.414756 -0.189286,0.323413 -0.420453,0.390146 -0.816025,0.247613 -0.123668,0.264659 -0.367692,0.41486 -0.586956,0.594901 -0.350744,0.287957 -0.592375,0.646661 -0.646379,1.113544 -0.03562,0.309288 -0.203677,0.46145 -0.461067,0.434692 -0.164652,-0.01731 -0.288809,-0.09956 -0.322227,-0.264563 -0.02635,-0.129157 -0.04391,-0.269331 -0.02196,-0.397257 0.07903,-0.463043 0.117815,-0.934891 0.280001,-1.381561 0.04097,-0.113131 0.02439,-0.230118 0.01952,-0.350186 -0.0073,-0.229458 0.01219,-0.46519 0.0605,-0.689505 0.06001,-0.275793 0.135377,-0.554386 0.251459,-0.810421 0.202704,-0.447795 0.323128,-0.913181 0.410623,-1.393352 0.08976,-0.492428 0.199045,-0.981395 0.306858,-1.470093 0.02855,-0.129523 0.04195,-0.23434 -0.05781,-0.350284 -0.116596,-0.135304 -0.133184,-0.311061 -0.100741,-0.488773 0.103433,-0.566176 0.20636,-1.132439 0.306027,-1.699269 0.02708,-0.154502 0.04585,-0.31079 0.0605,-0.467062 0.01219,-0.125792 0.0073,-0.245467 -0.05586,-0.368625 -0.08928,-0.176675 -0.08758,-0.377045 -0.07172,-0.572256 0.0098,-0.134013 0.02488,-0.268954 0.0544,-0.399782 0.03194,-0.142721 0.03926,-0.263814 -0.04708,-0.402499 -0.09757,-0.15638 -0.06195,-0.348779 -0.04001,-0.527614 0.0098,-0.08161 0.03562,-0.161721 0.0405,-0.243219 0.0023,-0.04595 -0.0073,-0.107354 -0.03756,-0.137937 -0.102205,-0.106038 -0.133672,-0.237803 -0.131964,-0.371619 0.0048,-0.358135 7.56e-4,-0.718617 0.04049,-1.073672 0.10245,-0.914109 0.244704,-1.822414 0.474092,-2.715196 0.02196,-0.08263 0.02928,-0.178747 0.0098,-0.260344 -0.143184,-0.591067 -0.220263,-1.191303 -0.251266,-1.796963 -0.05414,-1.057673 0.1244,-2.072294 0.607152,-3.021967 0.273268,-0.537637 0.657789,-0.996191 1.054777,-1.446132 0.727212,-0.824456 1.442277,-1.659778 2.169708,-2.484047 0.677817,-0.76813 1.349902,-1.542152 2.05282,-2.286872 0.600615,-0.636368 1.242477,-1.235568 1.979909,-1.715739 0.33091,-0.215505 0.676696,-0.415128 1.03502,-0.579926 0.597349,-0.274768 1.21133,-0.512838 1.815775,-0.772437 0.205626,-0.08825 0.431602,-0.161626 0.597347,-0.301985 0.175381,-0.148528 0.130256,-0.413822 0.183186,-0.627102 0.0666,-0.268203 0.114645,-0.54109 0.169529,-0.812285 0.04293,-0.211874 0.141475,-0.35393 0.366081,-0.434133 0.16904,-0.06042 0.343176,-0.168819 0.354301,-0.406707 0.0074,-0.162941 0.111231,-0.286738 0.229044,-0.398846 0.05561,-0.05274 0.09148,-0.128767 0.126353,-0.199138 0.02635,-0.05279 0.03952,-0.112767 0.05414,-0.170602 0.05928,-0.231705 0.152452,-0.438717 0.377692,-0.52949"
         id="path7180" />
    </g>
    <text
       xml:space="preserve"
       style="font-style:normal;font-variant:normal;font-weight:normal;font-stretch:normal;font-size:67.39331818px;line-height:1.25;font-family:Consolas;-inkscape-font-specification:'Consolas, Normal';font-variant-ligatures:normal;font-variant-caps:normal;font-variant-numeric:normal;font-feature-settings:normal;text-align:start;letter-spacing:0px;word-spacing:0px;writing-mode:lr-tb;text-anchor:start;fill:#ffffff;stroke-width:0.26458332"
       x="107.59651"
       y="147.40239"
       id="text821"><tspan
         sodipodi:role="line"
         id="tspan819"
         x="107.59651"
         y="147.40239"
         style="font-style:normal;font-variant:normal;font-weight:bold;font-stretch:normal;font-size:67.3908844px;font-family:Consolas;-inkscape-font-specification:'Consolas, Bold';font-variant-ligatures:normal;font-variant-caps:normal;font-variant-numeric:normal;font-feature-settings:normal;text-align:start;writing-mode:lr-tb;text-anchor:start;fill:#ffffff;stroke-width:0.26458332">C</tspan></text>
  </g>
</svg>
