<svg width="403" height="308" viewBox="0 0 403 308" fill="none" xmlns="http://www.w3.org/2000/svg">
<path d="M241.799 62.1621C257.539 62.1621 270.299 49.4022 270.299 33.6621C270.299 17.922 257.539 5.16211 241.799 5.16211C226.059 5.16211 213.299 17.922 213.299 33.6621C213.299 49.4022 226.059 62.1621 241.799 62.1621Z" fill="#BF8A36" stroke="#BF8A36" stroke-width="10" stroke-miterlimit="10"/>
<path d="M261.899 94.5625C250.799 83.4625 232.799 83.4625 221.599 94.5625C211.199 104.963 194.599 105.663 183.499 96.4625C182.799 95.6625 182.099 94.7625 181.299 93.9625C170.199 82.8625 170.199 64.8625 181.299 53.6625C192.399 42.5625 192.399 24.5625 181.299 13.3625C170.199 2.16254 152.199 2.26254 140.999 13.3625C129.799 24.4625 129.899 42.4625 140.999 53.6625C152.099 64.7625 152.099 82.7625 140.999 93.9625C134.399 100.563 131.699 109.663 132.999 118.263C133.799 124.263 136.499 130.163 141.099 134.763C152.199 145.863 170.199 145.863 181.399 134.763C192.599 123.663 210.499 123.663 221.699 134.763C232.899 145.863 250.799 145.863 261.999 134.763C273.199 123.663 272.999 105.763 261.899 94.5625Z" fill="#2A4CDF" stroke="#2A4CDF" stroke-width="10" stroke-miterlimit="10"/>
<path d="M0 267.863C0 262.163 0.899997 256.863 2.7 252.163C4.5 247.463 7.1 243.263 10.5 239.763C13.9 236.263 17.9 233.563 22.6 231.563C27.3 229.663 32.5 228.563 38.2 228.463C43.9 228.363 50 229.163 56.5 231.163C56.5 234.263 56.5 237.463 56.5 240.663C56.5 243.863 56.5 246.963 56.5 250.163C52.1 248.063 47.7 246.863 43.4 246.563C39.1 246.263 35.1 246.863 31.6 248.363C28.1 249.863 25.3 252.263 23.2 255.463C21.1 258.663 20.1 262.863 20.1 267.963C20.1 273.063 21.1 277.163 23.2 280.463C25.3 283.663 28.1 286.063 31.6 287.563C35.1 289.063 39 289.663 43.4 289.363C47.7 289.063 52.1 287.863 56.5 285.763C56.5 288.863 56.5 292.063 56.5 295.263C56.5 298.463 56.5 301.563 56.5 304.763C50 306.663 43.9 307.563 38.2 307.463C32.5 307.263 27.3 306.263 22.6 304.363C17.9 302.463 13.9 299.663 10.5 296.163C7.1 292.663 4.5 288.563 2.7 283.763C0.899997 278.863 0 273.563 0 267.863Z" fill="#BF8A36"/>
<path d="M63.3008 305.864C67.2008 293.364 71.1008 280.664 75.0008 267.764C78.9008 254.964 82.8008 242.264 86.7008 229.664C91.1008 229.664 95.6008 229.664 100.101 229.664C104.601 229.664 109.101 229.664 113.501 229.664C117.401 242.164 121.301 254.864 125.201 267.764C129.101 280.564 133.001 293.264 136.901 305.864C133.701 305.864 130.401 305.864 127.101 305.864C123.801 305.864 120.501 305.864 117.201 305.864C116.501 303.464 115.701 301.064 115.101 298.664C114.401 296.264 113.701 293.864 113.001 291.464C108.701 291.464 104.501 291.464 100.201 291.464C95.9008 291.464 91.6008 291.464 87.4008 291.464C86.7008 293.864 85.9008 296.264 85.3008 298.664C84.6008 301.064 83.9008 303.464 83.2008 305.864C80.0008 305.864 76.7008 305.864 73.4008 305.864C69.8008 305.864 66.5008 305.864 63.3008 305.864ZM92.1008 274.764C94.7008 274.764 97.3008 274.764 100.001 274.764C102.601 274.764 105.301 274.764 107.901 274.764C106.601 270.364 105.301 265.964 104.001 261.464C102.701 256.964 101.301 252.564 100.101 248.164C98.8008 252.564 97.5008 256.964 96.1008 261.464C94.7008 265.964 93.4008 270.364 92.1008 274.764Z" fill="#BF8A36"/>
<path d="M145.199 305.864C145.199 293.364 145.199 280.664 145.199 267.764C145.199 254.964 145.199 242.264 145.199 229.664C149.799 229.664 154.499 229.664 159.199 229.664C163.899 229.664 168.599 229.664 173.199 229.664C175.399 237.264 177.499 244.964 179.599 252.764C181.699 260.564 183.799 268.264 185.899 275.864C187.999 268.264 190.099 260.564 192.199 252.764C194.299 244.964 196.399 237.264 198.499 229.664C203.099 229.664 207.799 229.664 212.399 229.664C216.999 229.664 221.599 229.664 226.199 229.664C226.299 242.164 226.299 254.864 226.399 267.764C226.499 280.564 226.499 293.264 226.599 305.864C223.499 305.864 220.299 305.864 217.099 305.864C213.899 305.864 210.799 305.864 207.599 305.864C207.599 297.364 207.599 288.764 207.599 280.064C207.599 271.364 207.599 262.764 207.599 254.264C205.399 262.764 203.099 271.364 200.799 280.064C198.499 288.764 196.199 297.364 193.999 305.864C191.199 305.864 188.399 305.864 185.499 305.864C182.599 305.864 179.799 305.864 176.899 305.864C174.699 297.464 172.399 289.064 170.199 280.464C167.999 271.964 165.699 263.464 163.499 255.064C163.499 263.464 163.499 271.864 163.499 280.464C163.499 289.064 163.499 297.464 163.499 305.864C160.499 305.864 157.499 305.864 154.299 305.864C151.399 305.864 148.299 305.864 145.199 305.864Z" fill="#BF8A36"/>
<path d="M240.199 305.864C240.199 293.364 240.199 280.664 240.199 267.764C240.199 254.964 240.199 242.264 240.199 229.664C247.699 229.664 255.399 229.664 262.999 229.664C270.699 229.664 278.299 229.664 285.799 229.664C285.799 232.464 285.799 235.464 285.799 238.364C285.799 241.364 285.799 244.264 285.799 247.064C281.499 247.064 277.099 247.064 272.799 247.064C268.499 247.064 264.099 247.064 259.799 247.064C259.799 248.964 259.799 250.764 259.799 252.564C259.799 254.364 259.799 256.264 259.799 258.064C263.799 258.064 267.799 258.064 271.799 258.064C275.799 258.064 279.799 258.064 283.699 258.064C283.699 260.864 283.699 263.664 283.699 266.464C283.699 269.264 283.699 272.164 283.699 274.964C279.799 274.964 275.899 274.964 271.799 274.964C267.699 274.964 263.799 274.964 259.799 274.964C259.799 277.164 259.799 279.364 259.799 281.564C259.799 283.764 259.799 285.964 259.799 288.164C264.099 288.164 268.499 288.164 272.799 288.164C277.099 288.164 281.499 288.164 285.799 288.164C285.799 290.964 285.799 293.964 285.799 296.864C285.799 299.864 285.799 302.764 285.799 305.564C278.299 305.564 270.599 305.564 262.999 305.564C255.399 305.864 247.799 305.864 240.199 305.864Z" fill="#BF8A36"/>
<path d="M298.199 305.864C298.199 293.364 298.199 280.664 298.199 267.764C298.199 254.964 298.199 242.264 298.199 229.664C301.499 229.664 304.799 229.664 308.099 229.664C311.399 229.664 314.599 229.664 317.799 229.664C317.799 239.264 317.799 249.064 317.799 258.864C317.799 268.664 317.799 278.364 317.799 288.064C321.799 288.064 325.799 288.064 329.799 288.064C333.799 288.064 337.799 288.064 341.699 288.064C341.699 290.964 341.699 293.964 341.699 296.964C341.699 299.964 341.699 302.964 341.699 305.864C334.499 305.864 327.299 305.864 319.999 305.864C312.599 305.864 305.399 305.864 298.199 305.864Z" fill="#BF8A36"/>
<path d="M402.2 282.963C402.2 288.663 400.7 293.263 397.8 296.763C394.8 300.263 390.9 302.863 385.9 304.463C380.9 306.063 375.4 306.763 369.3 306.563C363.2 306.363 356.9 305.463 350.6 303.663C350.6 300.463 350.6 297.263 350.6 294.063C350.6 290.863 350.6 287.663 350.6 284.463C356.4 286.563 361.7 287.863 366.5 288.363C371.3 288.863 375.1 288.663 377.9 287.763C380.7 286.863 382.2 285.263 382.2 282.963C382.2 281.363 381.4 280.063 379.8 279.063C378.2 278.063 376.2 277.163 373.7 276.363C371.2 275.563 368.6 274.563 365.8 273.463C363 272.363 360.4 270.963 357.9 269.363C355.4 267.663 353.4 265.463 351.8 262.763C350.2 260.063 349.4 256.663 349.4 252.563C349.4 247.463 350.7 243.163 353.4 239.663C356.1 236.163 359.7 233.463 364.3 231.663C368.9 229.863 374.1 228.963 380 228.963C385.9 228.963 391.9 229.863 398.2 231.663C398.2 234.863 398.2 238.063 398.2 241.263C398.2 244.463 398.2 247.663 398.2 250.863C393 248.663 388.2 247.263 383.8 246.763C379.4 246.263 375.9 246.463 373.3 247.463C370.7 248.363 369.4 249.863 369.4 251.963C369.4 253.463 370.2 254.663 371.8 255.663C373.4 256.663 375.4 257.463 377.9 258.263C380.4 259.063 383 259.963 385.8 261.063C388.6 262.163 391.2 263.563 393.7 265.363C396.2 267.163 398.2 269.363 399.8 272.163C401.4 275.063 402.2 278.663 402.2 282.963Z" fill="#BF8A36"/>
<path d="M63.6992 218.564C63.6992 209.564 63.6992 200.564 63.6992 191.364C63.6992 182.164 63.6992 173.164 63.6992 164.164C65.9992 164.164 68.3992 164.164 70.7992 164.164C73.1992 164.164 75.4992 164.164 77.7992 164.164C80.5992 169.264 83.4992 174.364 86.3992 179.564C89.2992 184.764 92.1992 189.864 94.9992 194.964C94.9992 189.864 94.9992 184.764 94.9992 179.564C94.9992 174.364 94.9992 169.264 94.9992 164.164C97.2992 164.164 99.5992 164.164 101.899 164.164C104.199 164.164 106.499 164.164 108.799 164.164C108.799 173.164 108.799 182.164 108.799 191.364C108.799 200.564 108.799 209.564 108.799 218.564C106.499 218.564 104.199 218.564 101.799 218.564C99.3992 218.564 97.0992 218.564 94.6992 218.564C91.8992 213.464 88.9992 208.364 86.0992 203.164C83.1992 197.964 80.2992 192.864 77.4992 187.764C77.4992 192.864 77.4992 197.964 77.4992 203.164C77.4992 208.364 77.4992 213.464 77.4992 218.564C75.1992 218.564 72.8992 218.564 70.5992 218.564C68.2992 218.564 65.9992 218.564 63.6992 218.564Z" fill="#2A4CDF"/>
<path d="M140.898 219.863C136.998 219.863 133.398 219.163 130.098 217.763C126.798 216.363 123.898 214.363 121.498 211.763C119.098 209.163 117.198 206.163 115.898 202.663C114.598 199.163 113.898 195.363 113.898 191.263C113.898 187.163 114.598 183.363 115.898 179.863C117.198 176.363 119.098 173.363 121.498 170.863C123.898 168.363 126.798 166.363 130.098 164.963C133.398 163.563 136.998 162.863 140.898 162.863C144.798 162.863 148.398 163.563 151.698 164.963C154.998 166.363 157.798 168.363 160.298 170.863C162.698 173.363 164.598 176.363 165.898 179.863C167.198 183.363 167.898 187.163 167.898 191.263C167.898 195.363 167.198 199.163 165.898 202.663C164.598 206.163 162.698 209.163 160.298 211.763C157.898 214.363 154.998 216.263 151.698 217.763C148.298 219.163 144.798 219.863 140.898 219.863ZM140.898 206.863C143.498 206.863 145.798 206.163 147.598 204.863C149.498 203.563 150.898 201.763 151.998 199.363C152.998 197.063 153.598 194.263 153.598 191.163C153.598 188.063 153.098 185.363 151.998 183.063C150.998 180.763 149.498 178.963 147.598 177.663C145.698 176.363 143.498 175.663 140.898 175.663C138.298 175.663 136.098 176.263 134.198 177.563C132.298 178.863 130.798 180.663 129.798 182.963C128.798 185.263 128.198 187.963 128.198 191.063C128.198 194.163 128.698 196.863 129.798 199.263C130.798 201.563 132.298 203.463 134.198 204.763C136.098 206.163 138.298 206.863 140.898 206.863Z" fill="#2A4CDF"/>
<path d="M172.898 218.564C172.898 209.564 172.898 200.564 172.898 191.364C172.898 182.164 172.898 173.164 172.898 164.164C176.198 164.164 179.498 164.164 182.898 164.164C186.298 164.164 189.598 164.164 192.898 164.164C194.398 169.564 195.998 175.064 197.498 180.664C198.998 186.264 200.498 191.764 201.998 197.164C203.498 191.764 204.998 186.264 206.498 180.664C207.998 175.064 209.498 169.564 210.998 164.164C214.298 164.164 217.598 164.164 220.898 164.164C224.198 164.164 227.498 164.164 230.698 164.164C230.798 173.164 230.798 182.164 230.898 191.364C230.998 200.564 230.998 209.564 231.098 218.564C228.898 218.564 226.598 218.564 224.298 218.564C221.998 218.564 219.798 218.564 217.498 218.564C217.498 212.464 217.498 206.364 217.498 200.164C217.498 193.964 217.498 187.764 217.498 181.764C215.898 187.864 214.298 193.964 212.598 200.164C210.898 206.364 209.298 212.564 207.698 218.564C205.698 218.564 203.698 218.564 201.698 218.564C199.598 218.564 197.598 218.564 195.598 218.564C193.998 212.564 192.398 206.564 190.798 200.464C189.198 194.364 187.598 188.364 185.998 182.364C185.998 188.364 185.998 194.364 185.998 200.464C185.998 206.564 185.998 212.564 185.998 218.564C183.898 218.564 181.698 218.564 179.398 218.564C177.298 218.564 175.098 218.564 172.898 218.564Z" fill="#2A4CDF"/>
<path d="M236.398 218.564C239.198 209.564 241.998 200.564 244.798 191.364C247.598 182.164 250.398 173.164 253.198 164.164C256.298 164.164 259.498 164.164 262.798 164.164C266.098 164.164 269.198 164.164 272.398 164.164C275.198 173.164 277.998 182.164 280.798 191.364C283.598 200.564 286.398 209.564 289.198 218.564C286.898 218.564 284.598 218.564 282.198 218.564C279.798 218.564 277.498 218.564 275.098 218.564C274.598 216.864 274.098 215.164 273.598 213.364C273.098 211.664 272.598 209.864 272.098 208.164C269.098 208.164 265.998 208.164 262.898 208.164C259.798 208.164 256.798 208.164 253.698 208.164C253.198 209.864 252.698 211.564 252.198 213.364C251.698 215.064 251.198 216.864 250.698 218.564C248.398 218.564 246.098 218.564 243.698 218.564C241.098 218.564 238.698 218.564 236.398 218.564ZM256.998 196.264C258.898 196.264 260.698 196.264 262.598 196.264C264.498 196.264 266.398 196.264 268.198 196.264C267.298 193.164 266.398 189.964 265.398 186.764C264.398 183.564 263.498 180.364 262.598 177.264C261.698 180.364 260.698 183.564 259.798 186.764C258.898 189.964 257.898 193.164 256.998 196.264Z" fill="#2A4CDF"/>
<path d="M294.898 218.564C294.898 209.564 294.898 200.564 294.898 191.364C294.898 182.164 294.898 173.164 294.898 164.164C298.098 164.164 301.298 164.164 304.598 164.164C307.898 164.164 311.098 164.164 314.298 164.164C318.198 164.164 321.898 164.864 325.198 166.164C328.498 167.564 331.398 169.464 333.798 171.864C336.298 174.364 338.198 177.164 339.498 180.464C340.898 183.764 341.498 187.364 341.498 191.264C341.498 195.164 340.798 198.764 339.498 202.064C338.098 205.364 336.198 208.264 333.798 210.764C331.298 213.264 328.498 215.164 325.198 216.564C321.898 217.964 318.298 218.564 314.298 218.564C311.098 218.564 307.898 218.564 304.598 218.564C301.398 218.564 298.098 218.564 294.898 218.564ZM314.298 176.764C313.398 176.764 312.598 176.764 311.698 176.764C310.798 176.764 309.898 176.764 308.998 176.764C308.998 181.564 308.998 186.464 308.998 191.364C308.998 196.264 308.998 201.164 308.998 205.964C309.898 205.964 310.798 205.964 311.698 205.964C312.598 205.964 313.498 205.964 314.298 205.964C316.998 205.964 319.298 205.364 321.298 204.064C323.298 202.764 324.798 201.064 325.898 198.864C326.998 196.664 327.498 194.164 327.498 191.364C327.498 188.564 326.998 186.064 325.898 183.964C324.798 181.764 323.298 180.064 321.298 178.764C319.298 177.364 316.998 176.764 314.298 176.764Z" fill="#2A4CDF"/>
</svg>
